<?xml version="1.0" encoding="UTF-8"?>
<svg width="893px" height="1223px" viewBox="0 0 893 1223" version="1.1" xmlns="http://www.w3.org/2000/svg" xmlns:xlink="http://www.w3.org/1999/xlink">
    <title>create-sprite</title>
    <g id="Page-1" stroke="none" stroke-width="1" fill="none" fill-rule="evenodd">
        <g id="create-sprite">
            <g id="Group-22" transform="translate(670.000000, 190.000000)">
                <g id="Shape_1_copy_7_" transform="translate(146.000000, 92.000000)" fill="#F1F4F6" fill-rule="nonzero">
                    <g id="Shape_1_copy_6_">
                        <polygon id="Shape_211_" points="25 0 25 25 0 25 0 30 30 30 30 0"></polygon>
                    </g>
                </g>
                <g id="Blank_27_" transform="translate(141.000000, 87.000000)" fill="#93A0B0" fill-rule="nonzero">
                    <path d="M0,0 L0,30 L31,30 L31,0 L0,0 Z M29,28 L2,28 L2,2 L29,2 L29,28 Z" id="Shape_212_"></path>
                </g>
                <g id="Blank_29_" fill="#93A0B0" fill-rule="nonzero">
                    <g id="Blank_28_">
                        <path d="M186,49 L176,49 L176,50 L186,50 L186,49 Z M186,59 L176,59 L176,60 L186,60 L186,59 Z M186,54 L186,55 L192,55 L192,54 L186,54 Z M0,128 L31,128 L31,130 L0,130 L0,128 Z M159,128 L192,128 L192,130 L159,130 L159,128 Z M159,0 L33,0 C31.9,0 31,0.9 31,2 L31,11 L33,11 L33,4 C33,2.9 33.9,2 35,2 L157,2 C158.1,2 159,2.9 159,4 L159,87 L161,87 L161,2 C161,0.9 160.1,0 159,0 Z M33,127.9 L33,16 L31,16 L31,130 L114,130 L114,128 L33,127.9 C33,128 33,128 33,127.9 Z M120,130 L159,130 L159,128 L120,128 L120,130 Z" id="Shape_213_"></path>
                    </g>
                </g>
                <rect id="Rectangle-path_122_" fill="#93A0B0" fill-rule="nonzero" x="159" y="122" width="2" height="6"></rect>
                <g id="Group-21" transform="translate(96.381229, 62.034253) rotate(45.000000) translate(-96.381229, -62.034253) translate(63.619401, 29.279602)">
                    <path d="M49.0609451,0.5 L59.5,0.5 C62.8137085,0.5 65.5,3.1862915 65.5,6.5 L65.5,59.5093026 C65.5,62.8230111 62.8137085,65.5093026 59.5,65.5093026 L6.5,65.5093026 C3.1862915,65.5093026 0.5,62.8230111 0.5,59.5093026 C0.5,58.5348021 0.5,57.8039267 0.5,57.3166765 C0.5,56.5075596 0.5,55.669456 0.5,54.8023657 C0.5,54.1648228 0.5,53.4648863 0.5,52.7025562 C0.5,47.2402917 0.5,31.8394396 0.5,6.5 C0.5,3.1862915 3.1862915,0.5 6.5,0.5 L46.433259,0.5" id="Rectangle-12-Copy" stroke="#93A0B0" stroke-linecap="round" stroke-linejoin="round"></path>
                    <g id="Combined-Shape">
                        <g id="path-1-link" fill="#E2E9ED" fill-rule="nonzero">
                            <path d="M33,22.0052554 L33,33 L21.7142857,33 L20.0396758,36.9074232 C21.5387515,38.0981564 22.5,39.9368224 22.5,42 C22.5,45.5898509 19.5898509,48.5 16,48.5 C12.4101491,48.5 9.5,45.5898509 9.5,42 C9.5,39.9368224 10.4612485,38.0981564 11.9603242,36.9074232 L10.2857143,33 L0,33 L0,7 C0,3.13400675 3.13400675,0 7,0 L33,0 L33,11.0099255 L28.5384151,13.2407179 C27.4692133,11.591268 25.6120463,10.5 23.5,10.5 C20.1862915,10.5 17.5,13.1862915 17.5,16.5 C17.5,19.8137085 20.1862915,22.5 23.5,22.5 C25.5865302,22.5 27.4243023,21.4349405 28.4993191,19.818819 L28.516504,19.830246 L33,22.0052554 Z" id="path-1"></path>
                        </g>
                        <path d="M32.5,22.3181122 L28.6613706,20.4516549 C27.4446191,22.0399978 25.5535112,23 23.5,23 C19.9101491,23 17,20.0898509 17,16.5 C17,12.9101491 19.9101491,10 23.5,10 C25.5768638,10 27.4867539,10.9820862 28.7009149,12.600451 L32.5,10.7009085 L32.5,0.5 L7,0.5 C3.41014913,0.5 0.5,3.41014913 0.5,7 L0.5,32.5 L10.6154124,32.5 L12.5703152,37.0614399 L12.2713118,37.2989416 C10.8463209,38.4308284 10,40.145261 10,42 C10,45.3137085 12.6862915,48 16,48 C19.3137085,48 22,45.3137085 22,42 C22,40.145261 21.1536791,38.4308284 19.7286882,37.2989416 L19.4296848,37.0614399 L21.3845876,32.5 L32.5,32.5 L32.5,22.3181122 Z" id="Shape" stroke="#93A0B0"></path>
                    </g>
                    <path d="M32.5,54.5052554 L36.983496,52.330246 L37.0006809,52.318819 C38.0756977,53.9349405 39.9134698,55 42,55 C45.3137085,55 48,52.3137085 48,49 C48,45.6862915 45.3137085,43 42,43 C39.8879537,43 38.0307867,44.091268 36.9615849,45.7407179 L32.5,43.5099255 L32.5,32.5 L44.7222222,32.5 L45.6918233,28.1367952 C44.3535216,27.036375 43.5,25.3678628 43.5,23.5 C43.5,20.1862915 46.1862915,17.5 49.5,17.5 C52.8137085,17.5 55.5,20.1862915 55.5,23.5 C55.5,25.3678628 54.6464784,27.036375 53.3081767,28.1367952 L54.2777778,32.5 L65.5236575,32.5 L65.5236575,59.5038897 C65.5236575,62.8175982 62.837366,65.5038897 59.5236575,65.5038897 L32.5,65.5038897 L32.5,54.5052554 Z" id="Combined-Shape" stroke="#93A0B0" fill="#E2E9ED" fill-rule="nonzero"></path>
                </g>
                <g id="Group-18" transform="translate(149.258621, 94.258621)" stroke="#93A0B0" stroke-width="2">
                    <path d="M14.4827586,10.862069 L6.72413793,10.862069 C5.01724138,10.862069 3.62068965,9.46551724 3.62068965,7.75862069 L3.62068965,1.11022302e-16" id="Shape"></path>
                    <polyline id="Shape" stroke-linecap="square" points="10.862069 7.24137931 14.4827586 10.862069 10.862069 14.4827586"></polyline>
                    <polyline id="Shape" stroke-linecap="square" points="1.11022302e-16 3.62068965 3.62068965 1.11022302e-16 7.24137931 3.62068965"></polyline>
                </g>
            </g>
            <rect id="Rectangle-path" fill="#E2E9ED" fill-rule="nonzero" x="49" y="23" width="98" height="15"></rect>
            <rect id="Rectangle-path" fill="#93A1B0" fill-rule="nonzero" x="1" y="128" width="35.2" height="2"></rect>
            <rect id="Rectangle-path" fill="#93A1B0" fill-rule="nonzero" x="164" y="128" width="37" height="2"></rect>
            <g id="Rounded_Rectangle_1_12_" transform="translate(36.000000, 0.000000)" fill="#93A1B0" fill-rule="nonzero">
                <path d="M128,0 L2,0 C0.9,0 0,0.9 0,2 L0,11 L2,11 C2,6.6 2,4 2,4 C2,2.9 2.9,2 4,2 L126,2 C127.1,2 128,2.9 128,4 L128,98 L130,98 L130,2 C130,0.9 129.1,0 128,0 Z M2,127.9 C2,122.9 2,46.2 2,16 L0,16 L0,130 L83,130 L83,128 L2,127.9 C2,128 2,128 2,127.9 Z M89,130 L128,130 L128,128 L89,128 L89,130 Z" id="Shape"></path>
            </g>
            <g id="Shape_3_8_" transform="translate(141.991004, 91.280785)" fill="#F1F4F6" fill-rule="nonzero">
                <path d="M22.0089963,5.71921535 L22.0089963,0.0192153499 C22.0089963,0.0192153499 2.50899625,-1.38078465 0.00899625156,19.7192153 C0.00899625156,19.7192153 -0.591003748,32.1192153 8.00899625,36.7192153 L17.6089963,36.7192153 C17.6089963,36.7192153 7.40899625,34.5192153 7.30899625,18.9192153 C7.20899625,18.9192153 9.80899625,6.71921535 22.0089963,5.71921535 Z" id="Shape"></path>
            </g>
            <g id="Ellipse_1_14_" transform="translate(149.000000, 97.000000)" fill="#93A1B0" fill-rule="nonzero">
                <path d="M30.8,10 L28.7,10 C29.6,11.8 30.1,13.9 30.1,16 C30.1,23.8 23.8,30.1 16,30.1 C8.2,30.1 1.9,23.8 1.9,16 C1.9,8.2 8.2,1.9 16,1.9 C19,1.9 21.7,2.8 24,4.4 L24,2.2 C21.6,0.8 18.9,0 16,0 C7.2,0 -5.68434189e-14,7.2 -5.68434189e-14,16 C-5.68434189e-14,24.8 7.2,32 16,32 C24.8,32 32,24.8 32,16 C32,13.9 31.6,11.9 30.8,10 Z" id="Shape"></path>
            </g>
            <polygon id="Shape" fill="#93A1B0" fill-rule="nonzero" points="160.8 118.8 156.2 112.3 157.8 111.1 161.2 115.8 180.5 99.2 181.9 100.8"></polygon>
            <rect id="Rectangle-path" fill="#93A1B0" fill-rule="nonzero" x="232" y="128" width="35.2" height="2"></rect>
            <rect id="Rectangle-path" fill="#93A1B0" fill-rule="nonzero" x="395" y="128" width="37" height="2"></rect>
            <g id="Rounded_Rectangle_1_1_" transform="translate(267.000000, 0.000000)" fill="#93A1B0" fill-rule="nonzero">
                <path d="M128,0 L2,0 C0.9,0 0,0.9 0,2 L0,11 L2,11 C2,6.6 2,4 2,4 C2,2.9 2.9,2 4,2 L126,2 C127.1,2 128,2.9 128,4 L128,98 L130,98 L130,2 C130,0.9 129.1,0 128,0 Z M2,127.9 C2,122.9 2,46.2 2,16 L0,16 L0,130 L83,130 L83,128 L2,127.9 C2,128 2,128 2,127.9 Z M89,130 L128,130 L128,128 L89,128 L89,130 Z" id="Shape"></path>
            </g>
            <g id="Shape_3_1_" transform="translate(372.991004, 91.280785)" fill="#F1F4F6" fill-rule="nonzero">
                <path d="M22.0089963,5.71921535 L22.0089963,0.0192153499 C22.0089963,0.0192153499 2.50899625,-1.38078465 0.00899625156,19.7192153 C0.00899625156,19.7192153 -0.591003748,32.1192153 8.00899625,36.7192153 L17.6089963,36.7192153 C17.6089963,36.7192153 7.40899625,34.5192153 7.30899625,18.9192153 C7.20899625,18.9192153 9.80899625,6.71921535 22.0089963,5.71921535 Z" id="Shape"></path>
            </g>
            <g id="Ellipse_1_1_" transform="translate(380.000000, 97.000000)" fill="#93A1B0" fill-rule="nonzero">
                <path d="M30.8,10 L28.7,10 C29.6,11.8 30.1,13.9 30.1,16 C30.1,23.8 23.8,30.1 16,30.1 C8.2,30.1 1.9,23.8 1.9,16 C1.9,8.2 8.2,1.9 16,1.9 C19,1.9 21.7,2.8 24,4.4 L24,2.2 C21.6,0.8 18.9,0 16,0 C7.2,0 -1.13686838e-13,7.2 -1.13686838e-13,16 C-1.13686838e-13,24.8 7.2,32 16,32 C24.8,32 32,24.8 32,16 C32,13.9 31.6,11.9 30.8,10 Z" id="Shape"></path>
            </g>
            <g id="Group" transform="translate(292.000000, 107.200000)">
                <path d="M26,4.8 L0,4.8 L26,4.8 Z" id="Shape"></path>
                <g id="Shape" transform="translate(93.900000, 0.000000)" fill-rule="nonzero">
                    <path d="M-3.33066907e-16,5.4 L5.6,2.5 L5.6,3.7 C5.6,3.8 5.6,3.9 5.5,4 C5.5,4.1 5.4,4.1 5.3,4.2 L2.8,5.5 C2.7,5.6 2.6,5.6 2.5,5.6 C2.4,5.6 2.3,5.7 2.1,5.7 C2.4,5.8 2.6,5.8 2.8,6 L5.3,7.3 C5.4,7.4 5.5,7.4 5.5,7.5 C5.5,7.6 5.6,7.7 5.6,7.8 L5.6,9 L-3.33066907e-16,6.1 L-3.33066907e-16,5.4 Z" id="Path" fill="#93A1B0"></path>
                    <path d="M9.1,10.5 C9,10.7 8.9,10.9 8.7,11 C8.5,11.1 8.3,11.2 8.2,11.2 L7.5,11.2 L11.6,0.7 C11.7,0.5 11.8,0.4 11.9,0.2 C12.1,0.1 12.2,-1.66533454e-16 12.4,-1.66533454e-16 L13.1,-1.66533454e-16 L9.1,10.5 Z" id="Path" fill="#93A1B0"></path>
                    <path d="M20.6,6.1 L15,9 L15,7.8 C15,7.7 15,7.6 15.1,7.5 C15.1,7.4 15.2,7.4 15.3,7.3 L17.8,6 C18,5.9 18.2,5.8 18.5,5.7 C18.4,5.7 18.2,5.6 18.1,5.6 C18,5.6 17.9,5.5 17.8,5.5 L15.3,4.2 C15.2,4.1 15.1,4.1 15.1,4 C15.1,3.9 15,3.8 15,3.7 L15,2.5 L20.6,5.4 L20.6,6.1 Z" id="Path" fill="#E8EEF1"></path>
                </g>
            </g>
            <g id="Group" transform="translate(281.000000, 14.000000)" fill-rule="nonzero">
                <g id="Rounded_Rectangle_2">
                    <path d="M2,31.5 C1.2,31.5 0.5,30.8 0.5,30 L0.5,2 C0.5,1.2 1.2,0.5 2,0.5 L47,0.5 C47.8,0.5 48.5,1.2 48.5,2 L48.5,30 C48.5,30.8 47.8,31.5 47,31.5 L2,31.5 Z" id="Shape" fill="#E2E9ED"></path>
                    <path d="M47,1 C47.6,1 48,1.4 48,2 L48,30 C48,30.6 47.6,31 47,31 L2,31 C1.4,31 1,30.6 1,30 L1,2 C1,1.4 1.4,1 2,1 L47,1 Z M47,0 L2,0 C0.9,0 0,0.9 0,2 L0,30 C0,31.1 0.9,32 2,32 L47,32 C48.1,32 49,31.1 49,30 L49,2 C49,0.9 48.1,0 47,0 Z" id="Shape" fill="#93A1B0"></path>
                </g>
                <g id="Rounded_Rectangle_2_copy" transform="translate(41.000000, 69.000000)">
                    <path d="M2,28.5 C1.2,28.5 0.5,27.8 0.5,27 L0.5,2 C0.5,1.2 1.2,0.5 2,0.5 L42,0.5 C42.8,0.5 43.5,1.2 43.5,2 L43.5,27 C43.5,27.8 42.8,28.5 42,28.5 L2,28.5 Z" id="Shape" fill="#E2E9ED"></path>
                    <path d="M42,1 C42.6,1 43,1.4 43,2 L43,27 C43,27.6 42.6,28 42,28 L2,28 C1.4,28 1,27.6 1,27 L1,2 C1,1.4 1.4,1 2,1 L42,1 Z M42,0 L2,0 C0.9,0 0,0.9 0,2 L0,27 C0,28.1 0.9,29 2,29 L42,29 C43.1,29 44,28.1 44,27 L44,2 C44,0.9 43.1,0 42,0 Z" id="Shape" fill="#93A1B0"></path>
                </g>
                <g id="Shape_8" transform="translate(0.000000, 12.000000)">
                    <path d="M2,19.5 C1.2,19.5 0.5,18.8 0.5,18 L0.5,10.2 L11,0.7 L21,10.7 L28,2.7 L38.9,13.6 L48.5,8.8 L48.5,18 C48.5,18.8 47.8,19.5 47,19.5 L2,19.5 Z" id="Shape" fill="#B4C4D7"></path>
                    <path d="M11,1.4 L20.3,10.7 L21.1,11.5 L21.8,10.7 L28.1,3.5 L38.3,13.7 L38.8,14.2 L39.4,13.9 L48,9.6 L48,16 L48,17 L48,18 C48,18.6 47.6,19 47,19 L2,19 C1.4,19 1,18.6 1,18 L1,17 L1,16 L1,11 L1,10.4 L11,1.4 Z M11,0 L0,10 L0,11 L0,16 L0,17 L0,18 C0,19.1 0.9,20 2,20 L47,20 C48.1,20 49,19.1 49,18 L49,17 L49,16 L49,8 L39,13 L28,2 L21,10 L11,0 Z" id="Shape" fill="#93A1B0"></path>
                </g>
                <g id="Rectangle_1_copy_2" transform="translate(58.000000, 3.000000)" fill="#E2E9ED">
                    <path d="M0,0 L0,4 L43,4 L43,0 L0,0 Z M0,12 L36,12 L36,8 L0,8 L0,12 Z M0,20 L28,20 L28,16 L0,16 L0,20 Z" id="Shape"></path>
                </g>
                <g id="Rectangle_1_copy_3" transform="translate(0.000000, 71.000000)" fill="#E2E9ED">
                    <path d="M0,0 L0,4 L33,4 L33,0 L0,0 Z M0,12 L26,12 L26,8 L0,8 L0,12 Z M0,20 L18,20 L18,16 L0,16 L0,20 Z" id="Shape"></path>
                </g>
                <g id="Rectangle_1" transform="translate(0.000000, 42.000000)">
                    <rect id="Rectangle-path" fill="#E2E9ED" x="0.5" y="0.5" width="29" height="14"></rect>
                    <path d="M29,1 L29,14 L1,14 L1,1 L29,1 Z M30,0 L0,0 L0,15 L30,15 L30,0 Z" id="Shape" fill="#93A1B0"></path>
                </g>
                <g id="Rectangle_1_copy" transform="translate(37.000000, 42.000000)">
                    <rect id="Rectangle-path" fill="#E2E9ED" x="0.5" y="0.5" width="65" height="14"></rect>
                    <path d="M65,1 L65,14 L1,14 L1,1 L65,1 Z M66,0 L0,0 L0,15 L66,15 L66,0 Z" id="Shape" fill="#93A1B0"></path>
                </g>
                <g id="Ellipse_2" transform="translate(37.200000, 6.200000)">
                    <circle id="Oval" fill="#FFFFFF" cx="3.3" cy="3.3" r="2.8"></circle>
                    <path d="M3.3,1 C4.6,1 5.6,2 5.6,3.3 C5.6,4.6 4.6,5.6 3.3,5.6 C2,5.6 1,4.6 1,3.3 C1,2 2,1 3.3,1 Z M3.3,-1.66533454e-16 C1.5,-1.66533454e-16 -1.66533454e-16,1.5 -1.66533454e-16,3.3 C-1.66533454e-16,5.1 1.5,6.6 3.3,6.6 C5.1,6.6 6.6,5.1 6.6,3.3 C6.6,1.5 5.1,-1.66533454e-16 3.3,-1.66533454e-16 Z" id="Shape" fill="#93A1B0"></path>
                </g>
                <g id="Ellipse_2_copy" transform="translate(54.500000, 75.500000)">
                    <path d="M8,15.5 C3.9,15.5 0.5,12.1 0.5,8 C0.5,3.9 3.9,0.5 8,0.5 C12.1,0.5 15.5,3.9 15.5,8 C15.5,12.1 12.1,15.5 8,15.5 Z" id="Shape" fill="#FFFFFF"></path>
                    <path d="M8,1 C11.9,1 15,4.1 15,8 C15,11.9 11.9,15 8,15 C4.1,15 1,11.9 1,8 C1,4.1 4.1,1 8,1 Z M8,0 C3.6,0 0,3.6 0,8 C0,12.4 3.6,16 8,16 C12.4,16 16,12.4 16,8 C16,3.6 12.4,0 8,0 Z" id="Shape" fill="#93A1B0"></path>
                </g>
                <g id="Shape_9" transform="translate(60.700000, 80.000000)">
                    <polygon id="Shape" fill="#FFFFFF" points="0.5 0.9 5.6 4 0.5 7.1"></polygon>
                    <path d="M1,1.8 L4.7,4 L1,6.2 L1,1.8 Z M-2.22044605e-16,0 L-2.22044605e-16,7.9 L6.6,3.9 L-2.22044605e-16,0 Z" id="Shape" fill="#93A1B0"></path>
                </g>
                <g id="Rectangle_3" transform="translate(62.400000, 79.300000)" fill="#FFFFFF">
                    <rect id="Rectangle-path" x="-1.11022302e-16" y="1.66533454e-16" width="1.4" height="4"></rect>
                </g>
                <g id="Rectangle_2" transform="translate(12.000000, 0.000000)" fill="#FFFFFF">
                    <rect id="Rectangle-path" x="0" y="0" width="3" height="1"></rect>
                </g>
                <g id="Rectangle_2_copy" transform="translate(75.000000, 97.000000)" fill="#FFFFFF">
                    <rect id="Rectangle-path" x="0" y="0" width="3" height="1"></rect>
                </g>
            </g>
            <g id="Rectangle_2_copy_2_" transform="translate(383.000000, 64.000000)" fill="#FFFFFF" fill-rule="nonzero">
                <rect id="Rectangle-path" x="0" y="0" width="2" height="3"></rect>
            </g>
            <rect id="Rectangle-path" fill="#93A1B0" fill-rule="nonzero" x="462" y="128" width="35.2" height="2"></rect>
            <rect id="Rectangle-path" fill="#93A1B0" fill-rule="nonzero" x="625" y="128" width="37" height="2"></rect>
            <g id="Rounded_Rectangle_1_4_" transform="translate(497.000000, 0.000000)" fill="#93A1B0" fill-rule="nonzero">
                <path d="M128,0 L2,0 C0.9,0 0,0.9 0,2 L0,11 L2,11 C2,6.6 2,4 2,4 C2,2.9 2.9,2 4,2 L126,2 C127.1,2 128,2.9 128,4 L128,98 L130,98 L130,2 C130,0.9 129.1,0 128,0 Z M2,127.9 C2,122.9 2,46.2 2,16 L0,16 L0,130 L83,130 L83,128 L2,127.9 C2,128 2,128 2,127.9 Z M89,130 L128,130 L128,128 L89,128 L89,130 Z" id="Shape"></path>
            </g>
            <g id="Shape_3_3_" transform="translate(602.991004, 91.280785)" fill="#F1F4F6" fill-rule="nonzero">
                <path d="M22.0089963,5.71921535 L22.0089963,0.0192153499 C22.0089963,0.0192153499 2.50899625,-1.38078465 0.00899625156,19.7192153 C0.00899625156,19.7192153 -0.591003748,32.1192153 8.00899625,36.7192153 L17.6089963,36.7192153 C17.6089963,36.7192153 7.40899625,34.5192153 7.30899625,18.9192153 C7.20899625,18.9192153 9.80899625,6.71921535 22.0089963,5.71921535 Z" id="Shape"></path>
            </g>
            <g id="Ellipse_1_3_" transform="translate(610.000000, 97.000000)" fill="#93A1B0" fill-rule="nonzero">
                <path d="M30.8,10 L28.7,10 C29.6,11.8 30.1,13.9 30.1,16 C30.1,23.8 23.8,30.1 16,30.1 C8.2,30.1 1.9,23.8 1.9,16 C1.9,8.2 8.2,1.9 16,1.9 C19,1.9 21.7,2.8 24,4.4 L24,2.2 C21.6,0.8 18.9,0 16,0 C7.2,0 -1.13686838e-13,7.2 -1.13686838e-13,16 C-1.13686838e-13,24.8 7.2,32 16,32 C24.8,32 32,24.8 32,16 C32,13.9 31.6,11.9 30.8,10 Z" id="Shape"></path>
            </g>
            <polygon id="Shape" fill="#93A1B0" fill-rule="nonzero" points="593.1 111.5 592.1 111.5 592.1 17 567.1 17 567.1 84.8 566.1 84.8 566.1 16 593.1 16"></polygon>
            <path d="M573,101.4 L572,101.4 L572,35 L547.1,35 L547.1,43.5 L546.1,43.5 L546.1,34 L573,34 L573,101.4 Z M547.1,98.7 L546.1,98.7 L546.1,46.6 L547.1,46.6 L547.1,98.7 Z" id="Shape" fill="#93A1B0" fill-rule="nonzero"></path>
            <polygon id="Shape" fill="#93A1B0" fill-rule="nonzero" points="527.1 111.2 526.1 111.2 526.1 58.8 553.1 58.8 553.1 103.3 552.1 103.3 552.1 59.8 527.1 59.8"></polygon>
            <rect id="Rectangle-path" fill="#93A1B0" fill-rule="nonzero" x="508.6" y="16.5" width="50.8" height="1"></rect>
            <rect id="Rectangle-path" fill="#93A1B0" fill-rule="nonzero" x="508.6" y="27.5" width="50.8" height="1"></rect>
            <rect id="Rectangle-path" fill="#93A1B0" fill-rule="nonzero" x="508.6" y="36.5" width="26.5" height="1"></rect>
            <rect id="Rectangle-path" fill="#93A1B0" fill-rule="nonzero" x="508.6" y="46.5" width="26.5" height="1"></rect>
            <rect id="Rectangle-path" fill="#93A1B0" fill-rule="nonzero" x="508.5" y="56.5" width="10" height="1"></rect>
            <rect id="Rectangle-path" fill="#93A1B0" fill-rule="nonzero" x="508.5" y="66.5" width="10" height="1"></rect>
            <rect id="Rectangle-path" fill="#93A1B0" fill-rule="nonzero" x="508.5" y="76.5" width="10" height="1"></rect>
            <rect id="Rectangle-path" fill="#93A1B0" fill-rule="nonzero" x="508.5" y="86.5" width="10" height="1"></rect>
            <rect id="Rectangle-path" fill="#93A1B0" fill-rule="nonzero" x="508.5" y="96.5" width="10" height="1"></rect>
            <rect id="Rectangle-path" fill="#93A1B0" fill-rule="nonzero" x="600.7" y="17.5" width="14.2" height="1"></rect>
            <rect id="Rectangle-path" fill="#93A1B0" fill-rule="nonzero" x="600.7" y="27.5" width="14.2" height="1"></rect>
            <rect id="Rectangle-path" fill="#93A1B0" fill-rule="nonzero" x="600.7" y="37.5" width="14.2" height="1"></rect>
            <rect id="Rectangle-path" fill="#93A1B0" fill-rule="nonzero" x="600.7" y="47.5" width="14.2" height="1"></rect>
            <rect id="Rectangle-path" fill="#93A1B0" fill-rule="nonzero" x="600.7" y="57.5" width="14.2" height="1"></rect>
            <rect id="Rectangle-path" fill="#93A1B0" fill-rule="nonzero" x="600.7" y="67.5" width="14.2" height="1"></rect>
            <rect id="Rectangle-path" fill="#93A1B0" fill-rule="nonzero" x="600.7" y="77.5" width="14.2" height="1"></rect>
            <polygon id="Shape" fill="#93A1B0" fill-rule="nonzero" points="612.4 116.4 611.2 114.8 621.1 106.6 629.2 110.8 643 97.7 644.4 99.1 629.6 113.2 621.3 109"></polygon>
            <rect id="Rectangle-path" fill="#93A1B0" fill-rule="nonzero" x="693" y="128" width="35.2" height="2"></rect>
            <rect id="Rectangle-path" fill="#93A1B0" fill-rule="nonzero" x="856" y="128" width="37" height="2"></rect>
            <g id="Rounded_Rectangle_1_6_" transform="translate(728.000000, 0.000000)" fill="#93A1B0" fill-rule="nonzero">
                <path d="M128,0 L2,0 C0.9,0 0,0.9 0,2 L0,11 L2,11 C2,6.6 2,4 2,4 C2,2.9 2.9,2 4,2 L126,2 C127.1,2 128,2.9 128,4 L128,98 L130,98 L130,2 C130,0.9 129.1,0 128,0 Z M2,127.9 C2,122.9 2,46.2 2,16 L0,16 L0,130 L83,130 L83,128 L2,127.9 C2,128 2,128 2,127.9 Z M89,130 L128,130 L128,128 L89,128 L89,130 Z" id="Shape"></path>
            </g>
            <g id="Shape_3_5_" transform="translate(833.991004, 91.280785)" fill="#F1F4F6" fill-rule="nonzero">
                <path d="M22.0089963,5.71921535 L22.0089963,0.0192153499 C22.0089963,0.0192153499 2.50899625,-1.38078465 0.00899625156,19.7192153 C0.00899625156,19.7192153 -0.591003748,32.1192153 8.00899625,36.7192153 L17.6089963,36.7192153 C17.6089963,36.7192153 7.40899625,34.5192153 7.30899625,18.9192153 C7.20899625,18.9192153 9.80899625,6.71921535 22.0089963,5.71921535 Z" id="Shape"></path>
            </g>
            <g id="Ellipse_1_5_" transform="translate(841.000000, 97.000000)" fill="#93A1B0" fill-rule="nonzero">
                <path d="M30.8,10 L28.7,10 C29.6,11.8 30.1,13.9 30.1,16 C30.1,23.8 23.8,30.1 16,30.1 C8.2,30.1 1.9,23.8 1.9,16 C1.9,8.2 8.2,1.9 16,1.9 C19,1.9 21.7,2.8 24,4.4 L24,2.2 C21.6,0.8 18.9,0 16,0 C7.2,0 2.27373675e-13,7.2 2.27373675e-13,16 C2.27373675e-13,24.8 7.2,32 16,32 C24.8,32 32,24.8 32,16 C32,13.9 31.6,11.9 30.8,10 Z" id="Shape"></path>
            </g>
            <path d="M795.9,86.2 L794.9,86.2 L794.9,57.7 L818.1,57.7 L818.1,23.3 L772,23.3 L772,50.1 L784.5,50.1 L784.5,51.1 L771,51.1 L771,22.3 L819.1,22.3 L819.1,58.7 L795.9,58.7 L795.9,86.2 Z M809.4,51.1 L792.4,51.1 L792.4,50.1 L809.4,50.1 L809.4,51.1 Z" id="Shape" fill="#93A1B0" fill-rule="nonzero"></path>
            <rect id="Rectangle-path" fill="#93A1B0" fill-rule="nonzero" x="758.5" y="71.8" width="73.7" height="1"></rect>
            <rect id="Rectangle-path" fill="#93A1B0" fill-rule="nonzero" x="743.5" y="36.8" width="10" height="1"></rect>
            <polygon id="Shape" fill="#93A1B0" fill-rule="nonzero" points="834 99.3 820 99.3 820 93.7 821 93.7 821 98.3 833 98.3 833 86.9 821 86.9 821 90.3 820 90.3 820 85.9 821 85.9 821 85.9 834 85.9"></polygon>
            <rect id="Rectangle-path" fill="#93A1B0" fill-rule="nonzero" x="753.5" y="31.8" width="10" height="1"></rect>
            <rect id="Rectangle-path" fill="#93A1B0" fill-rule="nonzero" x="743.5" y="25.8" width="10" height="1"></rect>
            <path d="M841.4,50.7 C840.8,50.7 840.2,50.6 839.5,50.5 C837.7,50 836.2,48.8 835.2,47.2 C833.3,43.9 834.4,39.6 837.8,37.6 C841.1,35.7 845.4,36.8 847.4,40.2 C848.1,41.3 848.5,42.7 848.4,44.1 L847.4,44 C847.5,42.9 847.2,41.7 846.6,40.7 C844.9,37.8 841.2,36.8 838.4,38.5 C835.5,40.2 834.5,43.9 836.2,46.7 C837,48.1 838.3,49.1 839.9,49.5 C841.5,49.9 843.1,49.7 844.5,48.9 C845.3,48.4 845.9,47.8 846.5,47.1 L847.3,47.7 C846.7,48.5 846,49.2 845.1,49.7 C843.8,50.4 842.6,50.7 841.4,50.7 Z" id="Shape" fill="#9DAAB7" fill-rule="nonzero"></path>
            <path d="M833.5,22.3 C833.2,22.3 832.9,22.3 832.6,22.2 C831.7,22 830.9,21.4 830.5,20.6 C830.2,19.9 830,19.4 830,18.7 L831,18.7 C831,19.3 831.1,19.7 831.3,20.2 C831.6,20.7 832.2,21.1 832.8,21.3 C833.5,21.5 834.1,21.4 834.7,21.1 C835.3,20.8 835.7,20.2 835.8,19.6 C836,18.9 835.9,18.3 835.6,17.7 C835.3,17.1 834.7,16.7 834.1,16.6 C833.4,16.4 832.8,16.5 832.2,16.8 C831.9,17 831.6,17.2 831.4,17.6 L830.6,17 C831,16.5 831.3,16.2 831.8,16 C832.6,15.6 833.5,15.4 834.4,15.7 C835.3,15.9 836.1,16.5 836.5,17.3 C836.9,18.1 837.1,19 836.8,20 C836.6,20.9 836,21.7 835.2,22.1 C834.7,22.1 834.1,22.3 833.5,22.3 Z" id="Shape" fill="#93A1B0" fill-rule="nonzero"></path>
            <path d="M859.2,119.2 L851,119.2 L851,117.2 L857.2,117.2 L857.3,112.9 L859.3,112.9 L859.2,119.2 Z M859.2,109.2 L857.2,109.2 L857.3,104 L873.1,102.6 L873.3,104.6 L859.3,105.8 L859.2,109.2 Z" id="Shape" fill="#93A1B0" fill-rule="nonzero"></path>
            <g id="zc-blank" transform="translate(1.000000, 190.000000)" fill-rule="nonzero">
                <g id="Shape_1_copy" transform="translate(146.000000, 92.000000)" fill="#F1F4F6">
                    <polygon id="Shape_126_" points="25 0 25 25 0 25 0 30 30 30 30 0"></polygon>
                </g>
                <g id="Blank_4_" transform="translate(141.000000, 87.000000)" fill="#93A0B0">
                    <path d="M0,0 L0,30 L31,30 L31,0 L0,0 Z M29,28 L2,28 L2,2 L29,2 L29,28 Z" id="Shape_127_"></path>
                </g>
                <g id="Blank" fill="#93A0B0">
                    <path d="M155,110 L157,110 L157,103 L164,103 L164,101 L157,101 L157,94 L155,94 L155,101 L148,101 L148,103 L155,103 L155,110 Z M186,49 L176,49 L176,50 L186,50 L186,49 Z M186,59 L176,59 L176,60 L186,60 L186,59 Z M186,54 L186,55 L192,55 L192,54 L186,54 Z M0,128 L31,128 L31,130 L0,130 L0,128 Z M159,128 L192,128 L192,130 L159,130 L159,128 Z M159,0 L33,0 C31.9,0 31,0.9 31,2 L31,11 L33,11 L33,4 C33,2.9 33.9,2 35,2 L157,2 C158.1,2 159,2.9 159,4 L159,87 L161,87 L161,2 C161,0.9 160.1,0 159,0 Z M33,127.9 L33,16 L31,16 L31,130 L114,130 L114,128 L33,127.9 C33,128 33,128 33,127.9 Z M120,130 L159,130 L159,128 L120,128 L120,130 Z" id="Shape_128_"></path>
                </g>
                <g id="Blank-line" transform="translate(54.300000, 25.600000)" fill="#93A0B0">
                    <path d="M4.5,0 L0.1,0 L0.1,1.4 L0.1,7.1 L1.2,7.1 L1.2,1.4 L4.5,1.4 L4.5,0 Z M13.3,0 L8.9,0 L8.9,1.4 L13.3,1.4 L13.3,0 Z M22,0 L17.6,0 L17.6,1.4 L22,1.4 L22,0 Z M30.9,0 L26.5,0 L26.5,1.4 L30.9,1.4 L30.9,0 Z M39.6,0 L35.2,0 L35.2,1.4 L39.6,1.4 L39.6,0 Z M48.5,0 L44.1,0 L44.1,1.4 L48.5,1.4 L48.5,0 Z M57.3,0 L52.9,0 L52.9,1.4 L57.3,1.4 L57.3,0 Z M66,0 L61.6,0 L61.6,1.4 L66,1.4 L66,0 Z M74.9,0 L70.5,0 L70.5,1.4 L74.9,1.4 L74.9,0 Z M79.3,0 L79.3,4.3 L80.4,4.3 L80.4,0 L79.3,0 Z M79.3,15.7 L80.4,15.7 L80.4,10 L79.3,10 L79.3,15.7 Z M79.3,27.2 L80.4,27.2 L80.4,21.5 L79.3,21.5 L79.3,27.2 Z M79.3,38.6 L80.4,38.6 L80.4,32.9 L79.3,32.9 L79.3,38.6 Z M79.3,50.1 L80.4,50.1 L80.4,44.4 L79.3,44.4 L79.3,50.1 Z M79.3,61.5 L80.4,61.5 L80.4,55.8 L79.3,55.8 L79.3,61.5 Z M79.3,72.9 L80.4,72.9 L80.4,67.2 L79.3,67.2 L79.3,72.9 Z M74.9,75.8 L79.3,75.8 L79.3,74.4 L74.9,74.4 L74.9,75.8 Z M66,75.8 L70.4,75.8 L70.4,74.4 L66,74.4 L66,75.8 Z M57.3,75.8 L61.7,75.8 L61.7,74.4 L57.3,74.4 L57.3,75.8 Z M48.5,75.8 L52.9,75.8 L52.9,74.4 L48.5,74.4 L48.5,75.8 Z M39.6,75.8 L44,75.8 L44,74.4 L39.6,74.4 L39.6,75.8 Z M30.9,75.8 L35.3,75.8 L35.3,74.4 L30.9,74.4 L30.9,75.8 Z M22,75.8 L26.4,75.8 L26.4,74.4 L22,74.4 L22,75.8 Z M13.3,75.8 L17.7,75.8 L17.7,74.4 L13.3,74.4 L13.3,75.8 Z M4.5,75.8 L8.9,75.8 L8.9,74.4 L4.5,74.4 L4.5,75.8 Z M0,74.4 L1.1,74.4 L1.1,68.7 L0,68.7 L0,74.4 Z M0,62.9 L1.1,62.9 L1.1,57.2 L0,57.2 L0,62.9 Z M0,51.5 L1.1,51.5 L1.1,45.8 L0,45.8 L0,51.5 Z M0,40 L1.1,40 L1.1,34.3 L0,34.3 L0,40 Z M0,17.2 L1.1,17.2 L1.1,11.4 L0,11.4 L0,17.2 Z M0,28.6 L1.1,28.6 L1.1,22.9 L0,22.9 L0,28.6 Z" id="Shape_129_"></path>
                </g>
                <rect id="Rectangle-path_58_" fill="#93A0B0" x="159" y="122" width="2" height="6"></rect>
            </g>
            <g id="zc-import" transform="translate(223.000000, 190.000000)" fill-rule="nonzero">
                <g id="Shape_1_copy_4_" transform="translate(146.000000, 92.000000)" fill="#F1F4F6">
                    <polygon id="Shape_172_" points="25 0 25 25 0 25 0 30 30 30 30 0"></polygon>
                </g>
                <g id="Blank_14_" transform="translate(141.000000, 87.000000)" fill="#93A0B0">
                    <path d="M0,0 L0,30 L31,30 L31,0 L0,0 Z M29,28 L2,28 L2,2 L29,2 L29,28 Z" id="Shape_173_"></path>
                </g>
                <g id="Blank_16_">
                    <g id="Blank_15_" fill="#93A0B0">
                        <path d="M186,49 L176,49 L176,50 L186,50 L186,49 Z M186,59 L176,59 L176,60 L186,60 L186,59 Z M186,54 L186,55 L192,55 L192,54 L186,54 Z M0,128 L31,128 L31,130 L0,130 L0,128 Z M159,128 L192,128 L192,130 L159,130 L159,128 Z M159,0 L33,0 C31.9,0 31,0.9 31,2 L31,11 L33,11 L33,4 C33,2.9 33.9,2 35,2 L157,2 C158.1,2 159,2.9 159,4 L159,87 L161,87 L161,2 C161,0.9 160.1,0 159,0 Z M33,127.9 L33,16 L31,16 L31,130 L114,130 L114,128 L33,127.9 C33,128 33,128 33,127.9 Z M120,130 L159,130 L159,128 L120,128 L120,130 Z" id="Shape_174_"></path>
                    </g>
                    <g id="Rectangle_1_copy_2_" transform="translate(149.000000, 93.000000)" fill="#93A0B0">
                        <path d="M14.4,7 L9,14 L9,4 L7,4 L7,14.1 L1.6,7 L0,8.2 L7.5,18.1 L7.9,18.7 L15.9,8.2 L14.4,7 Z M9,0 L7,0 L7,2 L9,2 L9,0 Z" id="Shape_175_"></path>
                    </g>
                    <g id="Rectangle_1_copy_4" transform="translate(48.000000, 29.000000)" fill="#E2E9ED">
                        <path d="M73,0 L54,0 L54,3 L73,3 L73,0 Z M0,15 L0,18 L98,18 L98,15 L0,15 Z M0,33 L98,33 L98,30 L0,30 L0,33 Z M0,47 L73,47 L73,44 L0,44 L0,47 Z" id="Shape_176_"></path>
                    </g>
                    <g id="Rectangle_1_copy_5" transform="translate(48.000000, 29.000000)" fill="#B4C5D7">
                        <path d="M0,0 L0,3 L47,3 L47,0 L0,0 Z M0,72 L47,72 L47,67 L0,67 L0,72 Z" id="Shape_177_"></path>
                    </g>
                </g>
                <rect id="Rectangle-path_96_" fill="#93A0B0" x="159" y="122" width="2" height="6"></rect>
            </g>
            <g id="zc-templates" transform="translate(445.000000, 190.000000)" fill-rule="nonzero">
                <g id="Shape_1_copy_6_" transform="translate(146.000000, 92.000000)" fill="#F1F4F6">
                    <polygon id="Shape_211_" points="25 0 25 25 0 25 0 30 30 30 30 0"></polygon>
                </g>
                <g id="Blank_27_" transform="translate(141.000000, 87.000000)" fill="#93A0B0">
                    <path d="M0,0 L0,30 L31,30 L31,0 L0,0 Z M29,28 L2,28 L2,2 L29,2 L29,28 Z" id="Shape_212_"></path>
                </g>
                <g id="Blank_28_" fill="#93A0B0">
                    <path d="M186,49 L176,49 L176,50 L186,50 L186,49 Z M186,59 L176,59 L176,60 L186,60 L186,59 Z M186,54 L186,55 L192,55 L192,54 L186,54 Z M0,128 L31,128 L31,130 L0,130 L0,128 Z M159,128 L192,128 L192,130 L159,130 L159,128 Z M159,0 L33,0 C31.9,0 31,0.9 31,2 L31,11 L33,11 L33,4 C33,2.9 33.9,2 35,2 L157,2 C158.1,2 159,2.9 159,4 L159,87 L161,87 L161,2 C161,0.9 160.1,0 159,0 Z M33,127.9 L33,16 L31,16 L31,130 L114,130 L114,128 L33,127.9 C33,128 33,128 33,127.9 Z M120,130 L159,130 L159,128 L120,128 L120,130 Z" id="Shape_213_"></path>
                </g>
                <rect id="Rectangle-path_122_" fill="#93A0B0" x="159" y="122" width="2" height="6"></rect>
                <g id="Shape_1_copy_8_" transform="translate(146.200000, 95.200000)" fill="#93A1B0">
                    <polygon id="Shape" points="4.9 12.5 7.21644966e-16 5.6 1.6 4.4 5.3 9.7 18.3 -1.66533454e-16 19.5 1.6"></polygon>
                </g>
                <g id="Rectangle_2_20_" transform="translate(51.000000, 32.000000)" fill="#93A0B0">
                    <path d="M0,0 L0,20 L36,20 L36,0 L0,0 Z M35,19 L1,19 L1,1 L35,1 L35,19 Z" id="Shape_215_"></path>
                </g>
                <g id="Rectangle_3_6_" transform="translate(52.000000, 33.000000)" fill="#B4C4D7">
                    <rect id="Rectangle-path_123_" x="0" y="0" width="34" height="18"></rect>
                </g>
                <g id="Rectangle_2_copy_18_" transform="translate(101.000000, 32.000000)" fill="#93A0B0">
                    <polygon id="Shape_216_" points="0 0 0 6 1 6 1 1 35 1 35 19 1 19 1 11 0 11 0 20 36 20 36 0"></polygon>
                </g>
                <g id="Rectangle_4_4_" transform="translate(101.000000, 33.000000)" fill="#E2E9ED">
                    <polygon id="Shape_217_" points="1 0 1 5 0 5 0 10 1 10 1 18 35 18 35 0"></polygon>
                </g>
                <g id="Rectangle_2_copy_2_10_" transform="translate(101.000000, 67.000000)" fill="#93A0B0">
                    <polygon id="Shape_218_" points="25 0 25 1 35 1 35 19 1 19 1 1 20 1 20 0 0 0 0 20 36 20 36 0"></polygon>
                </g>
                <g id="Rectangle_5" transform="translate(121.000000, 67.000000)" fill="#E2E9ED">
                    <rect id="Rectangle-path_124_" x="0" y="0" width="5" height="1"></rect>
                </g>
                <g id="Rectangle_3_copy_2_4_" transform="translate(102.000000, 68.000000)" fill="#E2E9ED">
                    <rect id="Rectangle-path_125_" x="0" y="0" width="34" height="18"></rect>
                </g>
                <g id="Rectangle_2_copy_3_12_" transform="translate(51.000000, 67.000000)" fill="#93A0B0">
                    <polygon id="Shape_219_" points="0 0 0 20 7 20 7 19 1 19 1 1 35 1 35 19 12 19 12 20 36 20 36 0"></polygon>
                </g>
                <g id="Rectangle_3_copy_3_4_" transform="translate(52.000000, 68.000000)" fill="#E2E9ED">
                    <polygon id="Shape_220_" points="0 0 0 18 6 18 6 19 11 19 11 18 34 18 34 0"></polygon>
                </g>
            </g>
            <g id="zc-data-view" transform="translate(0.000000, 380.000000)" fill-rule="nonzero">
                <g id="Rectangle_2_6_" transform="translate(48.000000, 31.000000)" fill="#93A0B0">
                    <path d="M0,0 L0,8 L8,8 L8,0 L0,0 Z M7,7 L1,7 L1,1 L7,1 L7,7 Z" id="Shape_138_"></path>
                </g>
                <g id="Rectangle_3_copy" transform="translate(63.000000, 31.000000)" fill="#E2E9ED">
                    <path d="M0,8 L36,8 L36,6 L0,6 L0,8 Z M61,0 L0,0 L0,2 L61,2 L61,0 Z M46,6 L46,8 L81,8 L81,6 L46,6 Z" id="Shape_139_"></path>
                </g>
                <g id="Rectangle_2_copy_4_" transform="translate(48.000000, 50.000000)" fill="#93A0B0">
                    <path d="M0,0 L0,8 L8,8 L8,0 L0,0 Z M7,7 L1,7 L1,1 L7,1 L7,7 Z" id="Shape_140_"></path>
                </g>
                <g id="Rectangle_3_copy_2" transform="translate(63.000000, 50.000000)" fill="#E2E9ED">
                    <path d="M61,0 L0,0 L0,2 L61,2 L61,0 Z M0,6 L0,8 L81,8 L81,6 L0,6 Z" id="Shape_141_"></path>
                </g>
                <g id="Rounded_Rectangle_2_2_" transform="translate(48.000000, 75.000000)" fill="#F6F9FA">
                    <path d="M0,19 C0,20.1 0.9,21 2,21 L21,21 C22.1,21 23,20.1 23,19 L23,0 L0,19 Z" id="Shape_142_"></path>
                </g>
                <g id="Rounded_Rectangle_2_copy_2_" transform="translate(84.000000, 75.000000)" fill="#F6F9FA">
                    <path d="M0,19 C0,20.1 0.9,21 2,21 L21,21 C22.1,21 23,20.1 23,19 L23,0 L0,19 Z" id="Shape_143_"></path>
                </g>
                <g id="Rounded_Rectangle_2_copy_2" transform="translate(120.000000, 75.000000)" fill="#F6F9FA">
                    <path d="M0,19 C0,20.1 0.9,21 2,21 L21,21 C22.1,21 23,20.1 23,19 L23,0 L0,19 Z" id="Shape_144_"></path>
                </g>
                <g id="Rounded_Rectangle_1" transform="translate(48.000000, 73.000000)" fill="#93A0B0">
                    <path d="M22,0 L2,0 C0.9,0 0,0.9 0,2 L0,9 L1,9 L1,3 C1,1.9 1.9,1 3,1 L21,1 C22.1,1 23,1.9 23,3 L23,21 C23,22.1 22.1,23 21,23 L3,23 C1.9,23 1,22.1 1,21 L1,15 L0,15 L0,22 C0,23.1 0.9,24 2,24 L22,24 C23.1,24 24,23.1 24,22 L24,2 C24,0.9 23.1,0 22,0 Z" id="Shape_145_"></path>
                </g>
                <g id="Ellipse_2_2_" transform="translate(55.000000, 77.000000)" fill="#93A0B0">
                    <path d="M5,0 C2.2,0 0,2.2 0,5 C0,7.8 2.2,10 5,10 C7.8,10 10,7.8 10,5 C10,2.2 7.8,0 5,0 Z M5,9 C2.8,9 1,7.2 1,5 C1,2.8 2.8,1 5,1 C7.2,1 9,2.8 9,5 C9,7.2 7.2,9 5,9 Z" id="Shape_146_"></path>
                </g>
                <g id="Ellipse_3" transform="translate(56.000000, 78.000000)" fill="#E2E9ED">
                    <circle id="Oval_2_" cx="4" cy="4" r="4"></circle>
                </g>
                <g id="Rectangle_3_2_" transform="translate(55.000000, 90.000000)" fill="#93A0B0">
                    <rect id="Rectangle-path_63_" x="0" y="0" width="10" height="1"></rect>
                </g>
                <g id="Rounded_Rectangle_1_copy" transform="translate(84.000000, 73.000000)" fill="#93A0B0">
                    <path d="M22,0 L2,0 C0.9,0 0,0.9 0,2 L0,22 C0,23.1 0.9,24 2,24 L9,24 L9,23 L3,23 C1.9,23 1,22.1 1,21 L1,3 C1,1.9 1.9,1 3,1 L21,1 C22.1,1 23,1.9 23,3 L23,21 C23,22.1 22.1,23 21,23 L15,23 L15,24 L22,24 C23.1,24 24,23.1 24,22 L24,2 C24,0.9 23.1,0 22,0 Z" id="Shape_147_"></path>
                </g>
                <g id="Ellipse_2_copy_2_" transform="translate(91.000000, 77.000000)" fill="#93A0B0">
                    <path d="M5,0 C2.2,0 0,2.2 0,5 C0,7.8 2.2,10 5,10 C7.8,10 10,7.8 10,5 C10,2.2 7.8,0 5,0 Z M5,9 C2.8,9 1,7.2 1,5 C1,2.8 2.8,1 5,1 C7.2,1 9,2.8 9,5 C9,7.2 7.2,9 5,9 Z" id="Shape_148_"></path>
                </g>
                <g id="Ellipse_3_copy" transform="translate(92.000000, 78.000000)" fill="#E2E9ED">
                    <circle id="Oval_3_" cx="4" cy="4" r="4"></circle>
                </g>
                <g id="Rectangle_3_copy_3" transform="translate(91.000000, 90.000000)" fill="#93A0B0">
                    <rect id="Rectangle-path_64_" x="0" y="0" width="10" height="1"></rect>
                </g>
                <g id="Rounded_Rectangle_1_copy_2" transform="translate(120.000000, 73.000000)" fill="#93A0B0">
                    <path d="M24,9 L24,2 C24,0.9 23.1,0 22,0 L2,0 C0.9,0 0,0.9 0,2 L0,22 C0,23.1 0.9,24 2,24 L22,24 C23.1,24 24,23.1 24,22 L24,15 L23,15 L23,21 C23,22.1 22.1,23 21,23 L3,23 C1.9,23 1,22.1 1,21 L1,3 C1,1.9 1.9,1 3,1 L21,1 C22.1,1 23,1.9 23,3 L23,9 L24,9 Z" id="Shape_149_"></path>
                </g>
                <g id="Ellipse_2_copy_2" transform="translate(127.000000, 77.000000)" fill="#93A0B0">
                    <path d="M5,0 C2.2,0 0,2.2 0,5 C0,7.8 2.2,10 5,10 C7.8,10 10,7.8 10,5 C10,2.2 7.8,0 5,0 Z M5,9 C2.8,9 1,7.2 1,5 C1,2.8 2.8,1 5,1 C7.2,1 9,2.8 9,5 C9,7.2 7.2,9 5,9 Z" id="Shape_150_"></path>
                </g>
                <g id="Ellipse_3_copy_2" transform="translate(128.000000, 78.000000)" fill="#E2E9ED">
                    <circle id="Oval_4_" cx="4" cy="4" r="4"></circle>
                </g>
                <g id="Rectangle_3_copy_4" transform="translate(127.000000, 90.000000)" fill="#93A0B0">
                    <rect id="Rectangle-path_65_" x="0" y="0" width="10" height="1"></rect>
                </g>
                <g id="Blank_10_" fill="#93A0B0">
                    <path d="M186,49 L176,49 L176,50 L186,50 L186,49 Z M186,59 L176,59 L176,60 L186,60 L186,59 Z M186,54 L186,55 L192,55 L192,54 L186,54 Z M0,128 L31,128 L31,130 L0,130 L0,128 Z M159,128 L192,128 L192,130 L159,130 L159,128 Z M159,0 L33,0 C31.9,0 31,0.9 31,2 L31,11 L33,11 L33,4 C33,2.9 33.9,2 35,2 L157,2 C158.1,2 159,2.9 159,4 L159,128 L161,128 L161,2 C161,0.9 160.1,0 159,0 Z M33,127.9 L33,16 L31,16 L31,130 L114,130 L114,128 L33,127.9 C33,128 33,128 33,127.9 Z M120,130 L159,130 L159,128 L120,128 L120,130 Z" id="Shape_151_"></path>
                </g>
            </g>
            <g id="zc-calendar" transform="translate(224.000000, 380.000000)" fill-rule="nonzero">
                <g id="Rectangle_2_copy_4_2_" transform="translate(48.000000, 34.000000)" fill="#93A0B0">
                    <path d="M5,30 L0,30 L0,31 L5,31 L5,30 Z M77,16 L83,16 L83,15 L77,15 L77,0 L76,0 L76,15 L58,15 L58,0 L57,0 L57,15 L39,15 L39,0 L38,0 L38,15 L20,15 L20,0 L19,0 L19,15 L0,15 L0,16 L19,16 L19,30 L11,30 L11,31 L19,31 L19,45 L0,45 L0,46 L19,46 L19,61 L20,61 L20,46 L38,46 L38,61 L39,61 L39,46 L57,46 L57,61 L58,61 L58,46 L65,46 L65,45 L58,45 L58,31 L76,31 L76,45 L68,45 L68,46 L76,46 L76,61 L77,61 L77,46 L95,46 L95,45 L77,45 L77,31 L95,31 L95,30 L77,30 L77,16 Z M38,45 L20,45 L20,31 L38,31 L38,45 Z M38,30 L20,30 L20,16 L38,16 L38,30 Z M57,45 L39,45 L39,31 L57,31 L57,45 Z M57,30 L39,30 L39,16 L57,16 L57,30 Z M76,30 L58,30 L58,16 L76,16 L76,30 Z M89,15 L89,16 L95,16 L95,15 L89,15 Z" id="Shape_136_"></path>
                </g>
                <g id="Rectangle_2_4_" transform="translate(87.000000, 50.000000)" fill="#E2E9ED">
                    <rect id="Rectangle-path_61_" x="0" y="0" width="18" height="14"></rect>
                </g>
                <g id="Blank_8_" fill="#93A0B0">
                    <path d="M186,49 L176,49 L176,50 L186,50 L186,49 Z M186,59 L176,59 L176,60 L186,60 L186,59 Z M186,54 L186,55 L192,55 L192,54 L186,54 Z M0,128 L31,128 L31,130 L0,130 L0,128 Z M159,128 L192,128 L192,130 L159,130 L159,128 Z M159,0 L33,0 C31.9,0 31,0.9 31,2 L31,11 L33,11 L33,4 C33,2.9 33.9,2 35,2 L157,2 C158.1,2 159,2.9 159,4 L159,128 L161,128 L161,2 C161,0.9 160.1,0 159,0 Z M33,127.9 L33,16 L31,16 L31,130 L114,130 L114,128 L33,127.9 C33,128 33,128 33,127.9 Z M120,130 L159,130 L159,128 L120,128 L120,130 Z" id="Shape_137_"></path>
                </g>
            </g>
            <g id="zc-blank_1_" transform="translate(447.000000, 380.000000)" fill="#93A0B0" fill-rule="nonzero">
                <g id="Blank_6_">
                    <path d="M186,49 L176,49 L176,50 L186,50 L186,49 Z M186,59 L176,59 L176,60 L186,60 L186,59 Z M186,54 L186,55 L192,55 L192,54 L186,54 Z M0,128 L31,128 L31,130 L0,130 L0,128 Z M159,128 L192,128 L192,130 L159,130 L159,128 Z M159,0 L33,0 C31.9,0 31,0.9 31,2 L31,11 L33,11 L33,4 C33,2.9 33.9,2 35,2 L157,2 C158.1,2 159,2.9 159,4 L159,123 L161,123 L161,2 C161,0.9 160.1,0 159,0 Z M33,127.9 L33,16 L31,16 L31,130 L114,130 L114,128 L33,127.9 C33,128 33,128 33,127.9 Z M120,130 L159,130 L159,128 L120,128 L120,130 Z" id="Shape_1_"></path>
                </g>
                <rect id="Rectangle-path_1_" x="159" y="122" width="2" height="6"></rect>
            </g>
            <g id="Group" transform="translate(515.000000, 416.000000)" fill="#93A0B0" fill-rule="nonzero">
                <path d="M30,0 C29.4,0 29,0.4 29,1 L29,14.3 C29,14.9 29.4,15.3 30,15.3 C30.6,15.3 31,14.9 31,14.3 L31,2 C46,2.5 58,14.9 58,30 C58,45.4 45.4,58 30,58 C14.6,58 2,45.4 2,30 C2,22.5 4.9,15.5 10.2,10.2 C10.6,9.8 10.6,9.2 10.2,8.8 C9.8,8.4 9.2,8.4 8.8,8.8 C3.2,14.5 1.13686838e-13,22 1.13686838e-13,30 C1.13686838e-13,46.5 13.5,60 30,60 C46.5,60 60,46.5 60,30 C60,13.5 46.5,0 30,0 Z" id="Shape"></path>
                <path d="M28.6,33.5 C29.2,34.3 30.2,34.9 31.2,35 C31.3,35 31.4,35 31.5,35 C32.4,35 33.3,34.6 34,34 C34.7,33.3 35.1,32.2 35,31.2 C34.9,30.2 34.4,29.2 33.5,28.6 L20.6,19.2 C20.2,18.9 19.7,19 19.3,19.3 C19,19.6 18.9,20.2 19.2,20.6 L28.6,33.5 Z M32.4,30.2 C32.8,30.5 33,30.9 33,31.3 C33,31.8 32.9,32.2 32.5,32.5 C32.2,32.8 31.7,33 31.3,33 C30.8,33 30.4,32.7 30.2,32.4 L24.5,24.5 L32.4,30.2 Z" id="Shape"></path>
            </g>
            <g id="zc-spreadsheet" transform="translate(670.000000, 380.000000)" fill-rule="nonzero">
                <g id="Rectangle_2_copy_8" transform="translate(48.000000, 35.000000)" fill="#93A0B0">
                    <path d="M94,0 L77,0 L77,1 L94,1 L94,15 L58,15 L58,1 L71,1 L71,0 L58,0 L57,0 L39,0 L38,0 L20,0 L19,0 L1,0 L0,0 L0,1 L0,15 L0,16 L0,30 L0,31 L0,35 L1,35 L1,31 L19,31 L19,45 L1,45 L1,41 L0,41 L0,45 L0,46 L0,59 L0,60 L95,60 L95,59 L95,46 L95,45 L95,31 L95,30 L95,16 L95,15 L95,1 L95,0 L94,0 Z M19,59 L1,59 L1,46 L19,46 L19,59 Z M19,30 L1,30 L1,16 L19,16 L19,30 Z M19,15 L1,15 L1,1 L19,1 L19,15 Z M38,59 L20,59 L20,46 L38,46 L38,59 Z M38,45 L20,45 L20,31 L38,31 L38,45 Z M38,30 L20,30 L20,16 L38,16 L38,30 Z M38,15 L20,15 L20,1 L38,1 L38,15 Z M57,59 L39,59 L39,46 L57,46 L57,59 Z M57,45 L39,45 L39,31 L57,31 L57,45 Z M57,30 L39,30 L39,16 L57,16 L57,30 Z M57,15 L39,15 L39,1 L57,1 L57,15 Z M94,59 L58,59 L58,46 L94,46 L94,59 Z M94,45 L58,45 L58,31 L94,31 L94,45 Z M94,30 L58,30 L58,16 L94,16 L94,30 Z" id="Shape_207_"></path>
                </g>
                <g id="Rectangle_2_16_" transform="translate(49.000000, 36.000000)" fill="#E4EAEE">
                    <rect id="Rectangle-path_114_" x="0" y="0" width="18" height="14"></rect>
                </g>
                <g id="Rectangle_2_copy_14_" transform="translate(87.000000, 66.000000)" fill="#E4EAEE">
                    <rect id="Rectangle-path_115_" x="0" y="0" width="18" height="14"></rect>
                </g>
                <g id="Rectangle_2_copy_3_8_" transform="translate(68.000000, 66.000000)" fill="#E4EAEE">
                    <rect id="Rectangle-path_116_" x="0" y="0" width="18" height="14"></rect>
                </g>
                <g id="Rectangle_2_copy_2_6_" transform="translate(106.000000, 66.000000)" fill="#E4EAEE">
                    <rect id="Rectangle-path_117_" x="0" y="0" width="36" height="14"></rect>
                </g>
                <g id="Blank_23_" fill="#93A0B0">
                    <path d="M186,49 L176,49 L176,50 L186,50 L186,49 Z M186,59 L176,59 L176,60 L186,60 L186,59 Z M186,54 L186,55 L192,55 L192,54 L186,54 Z M0,128 L31,128 L31,130 L0,130 L0,128 Z M159,128 L192,128 L192,130 L159,130 L159,128 Z M159,0 L33,0 C31.9,0 31,0.9 31,2 L31,11 L33,11 L33,4 C33,2.9 33.9,2 35,2 L157,2 C158.1,2 159,2.9 159,4 L159,128 L161,128 L161,2 C161,0.9 160.1,0 159,0 Z M33,127.9 L33,16 L31,16 L31,130 L114,130 L114,128 L33,127.9 C33,128 33,128 33,127.9 Z M120,130 L159,130 L159,128 L120,128 L120,130 Z" id="Shape_208_"></path>
                </g>
            </g>
            <g id="zc-pivot-table" transform="translate(0.000000, 540.000000)" fill-rule="nonzero">
                <g id="Rectangle_2_12_" transform="translate(48.000000, 32.000000)" fill="#E2E9ED">
                    <rect id="Rectangle-path_98_" x="0" y="0" width="12" height="12"></rect>
                </g>
                <g id="Rectangle_2_copy_10_" transform="translate(66.000000, 32.000000)" fill="#93A0B0">
                    <polygon id="Shape_187_" points="66 0 66 1 77 1 77 11 1 11 1 1 60 1 60 0 0 0 0 12 78 12 78 0"></polygon>
                </g>
                <g id="Rectangle_2_copy_3_4_" transform="translate(66.000000, 54.000000)" fill="#93A0B0">
                    <polygon id="Shape_188_" points="0 0 0 4 1 4 1 1 57 1 57 11 1 11 1 7 0 7 0 12 58 12 58 0"></polygon>
                </g>
                <g id="Rectangle_2_copy_2_2_" transform="translate(48.000000, 50.000000)" fill="#93A0B0">
                    <polygon id="Shape_189_" points="0 0 0 31 1 31 1 1 11 1 11 44 1 44 1 37 0 37 0 45 12 45 12 0"></polygon>
                </g>
                <g id="Shape_1" transform="translate(139.000000, 63.000000)" fill="#93A0B0">
                    <rect id="Rectangle-path_99_" x="0" y="0" width="1" height="25"></rect>
                </g>
                <g id="Shape_2" transform="translate(135.000000, 55.000000)" fill="#93A0B0">
                    <polygon id="Shape_190_" points="4.5 0 0 8 9 8"></polygon>
                </g>
                <g id="Shape_1_copy_2" transform="translate(78.000000, 87.000000)" fill="#93A0B0">
                    <rect id="Rectangle-path_100_" x="0" y="0" width="62" height="1"></rect>
                </g>
                <g id="Shape_2_copy" transform="translate(70.000000, 83.000000)" fill="#93A0B0">
                    <polygon id="Shape_191_" points="0 4.5 8 9 8 0"></polygon>
                </g>
                <g id="Blank_19_" fill="#93A0B0">
                    <path d="M186,49 L176,49 L176,50 L186,50 L186,49 Z M186,59 L176,59 L176,60 L186,60 L186,59 Z M186,54 L186,55 L192,55 L192,54 L186,54 Z M0,128 L31,128 L31,130 L0,130 L0,128 Z M159,128 L192,128 L192,130 L159,130 L159,128 Z M159,0 L33,0 C31.9,0 31,0.9 31,2 L31,11 L33,11 L33,4 C33,2.9 33.9,2 35,2 L157,2 C158.1,2 159,2.9 159,4 L159,128 L161,128 L161,2 C161,0.9 160.1,0 159,0 Z M33,127.9 L33,16 L31,16 L31,130 L114,130 L114,128 L33,127.9 C33,128 33,128 33,127.9 Z M120,130 L159,130 L159,128 L120,128 L120,130 Z" id="Shape_192_"></path>
                </g>
            </g>
            <g id="Rectangle_1_copy_7_1_" transform="translate(272.000000, 574.000000)" fill="#E2E9ED" fill-rule="nonzero">
                <g id="Rectangle_1_copy_7">
                    <path d="M0,41 L13,41 L13,40 L0,40 L0,41 Z M0,31 L28,31 L28,30 L0,30 L0,31 Z M9,21 L28,21 L28,20 L9,20 L9,21 Z M0,11 L43,11 L43,10 L0,10 L0,11 Z M0,51 L13,51 L13,50 L0,50 L0,51 Z M15,0 L0,0 L0,1 L15,1 L15,0 Z M3,20 L0,20 L0,21 L3,21 L3,20 Z M87,21 L96,21 L96,20 L87,20 L87,21 Z M87,11 L96,11 L96,10 L87,10 L87,11 Z M87,0 L87,1 L96,1 L96,0 L87,0 Z M22,1 L61,1 L61,0 L22,0 L22,1 Z M87,31 L96,31 L96,30 L87,30 L87,31 Z M87,51 L96,51 L96,50 L87,50 L87,51 Z M87,41 L96,41 L96,40 L87,40 L87,41 Z" id="Shape"></path>
                </g>
            </g>
            <g id="Rectangle_2_copy_4_1_" transform="translate(335.000000, 574.000000)" fill="#93A0B0" fill-rule="nonzero">
                <g id="Rectangle_2_copy_4">
                    <path d="M0,0 L0,61 L21,61 L21,0 L0,0 Z M20,60 L1,60 L1,1 L20,1 L20,60 Z" id="Shape"></path>
                </g>
            </g>
            <g id="Rectangle_2_copy_5_1_" transform="translate(319.000000, 585.000000)" fill="#FFFFFF" fill-rule="nonzero">
                <g id="Rectangle_2_copy_5">
                    <polygon id="Shape" points="20 0 1 0 1 45 0 45 0 50 5 50 5 49 20 49"></polygon>
                </g>
            </g>
            <g id="Rectangle_2_copy_6_1_" transform="translate(319.000000, 584.000000)" fill="#FFFFFF" fill-rule="nonzero">
                <g id="Rectangle_2_copy_6">
                    <polygon id="Shape" points="20 0 1 0 1 45 0 45 0 50 5 50 5 49 20 49"></polygon>
                </g>
            </g>
            <g id="Rectangle_2_copy_1_" transform="translate(319.000000, 584.000000)" fill="#93A0B0" fill-rule="nonzero">
                <g id="Rectangle_2_copy_3_">
                    <polygon id="Shape" points="21 6 21 0 0 0 0 51 21 51 21 13 20 13 20 50 1 50 1 1 20 1 20 6"></polygon>
                </g>
            </g>
            <g id="Rectangle_2_copy_2_1_" transform="translate(302.000000, 594.000000)" fill="#93A0B0" fill-rule="nonzero">
                <g id="Rectangle_2_copy_2">
                    <polygon id="Shape" points="0 0 0 14 1 14 1 1 20 1 20 40 1 40 1 17 0 17 0 41 21 41 21 0"></polygon>
                </g>
            </g>
            <g id="Rectangle_2_1_" transform="translate(303.000000, 595.000000)" fill="#E2E9ED" fill-rule="nonzero">
                <g id="Rectangle_2_2_">
                    <rect id="Rectangle-path" x="0" y="0" width="19" height="39"></rect>
                </g>
            </g>
            <g id="Rectangle_2_copy_3_3_" transform="translate(286.000000, 611.000000)" fill="#93A0B0" fill-rule="nonzero">
                <g id="Rectangle_2_copy_3">
                    <path d="M0,0 L0,24 L21,24 L21,0 L0,0 Z M20,23 L1,23 L1,1 L20,1 L20,23 Z" id="Shape"></path>
                </g>
            </g>
            <g id="Rectangle_2_copy_3_2_" transform="translate(286.000000, 612.000000)" fill="#FFFFFF" fill-rule="nonzero">
                <g id="Rectangle_2_copy_3_1_">
                    <polygon id="Shape" points="20 0 1 0 1 18 0 18 0 23 5 23 5 22 20 22"></polygon>
                </g>
            </g>
            <g id="Blank_2_" transform="translate(224.000000, 540.000000)" fill="#93A0B0" fill-rule="nonzero">
                <g id="Blank_3_">
                    <path d="M186,49 L176,49 L176,50 L186,50 L186,49 Z M186,59 L176,59 L176,60 L186,60 L186,59 Z M186,54 L186,55 L192,55 L192,54 L186,54 Z M0,128 L31,128 L31,130 L0,130 L0,128 Z M159,128 L192,128 L192,130 L159,130 L159,128 Z M159,0 L33,0 C31.9,0 31,0.9 31,2 L31,11 L33,11 C33,6.6 33,4 33,4 C33,2.9 33.9,2 35,2 L157,2 C158.1,2 159,2.9 159,4 L159,128 L161,128 L161,2 C161,0.9 160.1,0 159,0 Z M33,127.9 C33,122.9 33,46.2 33,16 L31,16 L31,130 L114,130 L114,128 L33,127.9 C33,128 33,128 33,127.9 Z M120,130 L159,130 L159,128 L120,128 L120,130 Z" id="Shape"></path>
                </g>
            </g>
            <g id="zc-wf-form" transform="translate(0.000000, 700.000000)" fill-rule="nonzero">
                <g id="Rectangle_1_copy_3_6_" transform="translate(52.000000, 89.000000)" fill="#93A0B0">
                    <rect id="Rectangle-path_144_" x="0" y="0" width="88" height="1"></rect>
                </g>
                <g id="Rectangle_2_32_" transform="translate(47.000000, 100.000000)" fill="#93A0B0">
                    <path d="M0,0 L0,10 L10,10 L10,0 L0,0 Z M9,9 L1,9 L1,1 L9,1 L9,9 Z" id="Shape_257_"></path>
                </g>
                <g id="Rectangle_1_copy_2_6_" transform="translate(96.000000, 79.000000)" fill="#93A0B0">
                    <rect id="Rectangle-path_145_" x="0" y="0" width="1" height="21"></rect>
                </g>
                <g id="Rectangle_1_copy_6_4_" transform="translate(52.000000, 90.000000)" fill="#93A0B0">
                    <rect id="Rectangle-path_146_" x="0" y="0" width="1" height="10"></rect>
                </g>
                <g id="Rectangle_2_copy_26_" transform="translate(134.000000, 100.000000)" fill="#93A0B0">
                    <path d="M0,0 L0,10 L10,10 L10,0 L0,0 Z M9,9 L1,9 L1,1 L9,1 L9,9 Z" id="Shape_258_"></path>
                </g>
                <g id="Ellipse_1_12_" transform="translate(92.000000, 100.000000)" fill="#93A0B0">
                    <path d="M5,0 C2.2,0 0,2.2 0,5 C0,7.8 2.2,10 5,10 C7.8,10 10,7.8 10,5 C10,2.2 7.8,0 5,0 Z M5,9 C2.8,9 1,7.2 1,5 C1,2.8 2.8,1 5,1 C7.2,1 9,2.8 9,5 C9,7.2 7.2,9 5,9 Z" id="Shape_259_"></path>
                </g>
                <g id="Rectangle_1_copy_5_6_" transform="translate(48.000000, 23.000000)" fill="#93A0B0">
                    <path d="M95,0 L1,0 L0,0 L0,1 L0,55 L0,56 L96,56 L96,55 L96,1 L96,0 L95,0 Z M95,55 L1,55 L1,1 L95,1 L95,55 Z" id="Shape_260_"></path>
                </g>
                <g id="Blank_41_" fill="#93A0B0">
                    <path d="M186,49 L176,49 L176,50 L186,50 L186,49 Z M186,59 L176,59 L176,60 L186,60 L186,59 Z M186,54 L186,55 L192,55 L192,54 L186,54 Z M0,128 L31,128 L31,130 L0,130 L0,128 Z M159,128 L192,128 L192,130 L159,130 L159,128 Z M159,0 L33,0 C31.9,0 31,0.9 31,2 L31,11 L33,11 L33,4 C33,2.9 33.9,2 35,2 L157,2 C158.1,2 159,2.9 159,4 L159,128 L161,128 L161,2 C161,0.9 160.1,0 159,0 Z M33,127.9 L33,16 L31,16 L31,130 L114,130 L114,128 L33,127.9 C33,128 33,128 33,127.9 Z M120,130 L159,130 L159,128 L120,128 L120,130 Z" id="Shape_261_"></path>
                </g>
                <g id="Rectangle_3_copy_4_" transform="translate(73.000000, 32.000000)" fill="#93A0B0">
                    <path d="M32,24 L0,24 L0,25 L32,25 L32,24 Z M32,0 L0,0 L0,1 L32,1 L32,0 Z M36,5 L36,6 L46,6 L46,14 L1,14 L1,6 L30,6 L30,5 L0,5 L0,15 L47,15 L47,5 L36,5 Z M0,39 L47,39 L47,29 L0,29 L0,39 Z M1,30 L46,30 L46,38 L1,38 L1,30 Z" id="Shape_262_"></path>
                </g>
                <g id="Rectangle_3_10_" transform="translate(74.000000, 62.000000)" fill="#E1E9EC">
                    <rect id="Rectangle-path_147_" x="0" y="0" width="45" height="8"></rect>
                </g>
            </g>
            <g id="Group-3" transform="translate(223.000000, 700.000000)">
                <g id="Rectangle_1_copy_3_4_" transform="translate(52.000000, 89.000000)" fill="#93A0B0" fill-rule="nonzero">
                    <rect id="Rectangle-path_136_" x="0" y="0" width="88" height="1"></rect>
                </g>
                <g id="Rectangle_2_26_" transform="translate(47.000000, 100.000000)" fill="#93A0B0" fill-rule="nonzero">
                    <path d="M0,0 L0,10 L10,10 L10,0 L0,0 Z M9,9 L1,9 L1,1 L9,1 L9,9 Z" id="Shape_245_"></path>
                </g>
                <g id="Rectangle_1_copy_2_4_" transform="translate(96.000000, 79.000000)" fill="#93A0B0" fill-rule="nonzero">
                    <rect id="Rectangle-path_137_" x="0" y="0" width="1" height="21"></rect>
                </g>
                <g id="Rectangle_1_copy_6_2_" transform="translate(52.000000, 90.000000)" fill="#93A0B0" fill-rule="nonzero">
                    <rect id="Rectangle-path_138_" x="0" y="0" width="1" height="10"></rect>
                </g>
                <g id="Rectangle_2_copy_24_" transform="translate(134.000000, 100.000000)" fill="#93A0B0" fill-rule="nonzero">
                    <path d="M0,0 L0,10 L10,10 L10,0 L0,0 Z M9,9 L1,9 L1,1 L9,1 L9,9 Z" id="Shape_246_"></path>
                </g>
                <g id="Ellipse_1_10_" transform="translate(92.000000, 100.000000)" fill="#93A0B0" fill-rule="nonzero">
                    <path d="M5,0 C2.2,0 0,2.2 0,5 C0,7.8 2.2,10 5,10 C7.8,10 10,7.8 10,5 C10,2.2 7.8,0 5,0 Z M5,9 C2.8,9 1,7.2 1,5 C1,2.8 2.8,1 5,1 C7.2,1 9,2.8 9,5 C9,7.2 7.2,9 5,9 Z" id="Shape_247_"></path>
                </g>
                <g id="Rectangle_1_copy_5_4_" transform="translate(48.000000, 23.000000)" fill="#93A0B0" fill-rule="nonzero">
                    <path d="M95,0 L1,0 L0,0 L0,1 L0,55 L0,56 L96,56 L96,55 L96,1 L96,0 L95,0 Z M95,55 L1,55 L1,1 L95,1 L95,55 Z" id="Shape_248_"></path>
                </g>
                <g id="17" transform="translate(91.000000, 48.000000)" fill="#93A0B0" fill-rule="nonzero" font-family="ProximaNova-Semibold, Proxima Nova" font-size="14" font-weight="500">
                    <g id="Group">
                        <text id="17">
                            <tspan x="0" y="14">17</tspan>
                        </text>
                    </g>
                </g>
                <path d="M186,49 L176,49 L176,50 L186,50 L186,49 Z M186,59 L176,59 L176,60 L186,60 L186,59 Z M186,54 L186,55 L192,55 L192,54 L186,54 Z M0,128 L31,128 L31,130 L0,130 L0,128 Z M159,128 L192,128 L192,130 L159,130 L159,128 Z M159,0 L33,0 C31.9,0 31,0.9 31,2 L31,11 L33,11 L33,4 C33,2.9 33.9,2 35,2 L157,2 C158.1,2 159,2.9 159,4 L159,128 L161,128 L161,2 C161,0.9 160.1,0 159,0 Z M33,127.9 L33,16 L31,16 L31,130 L114,130 L114,128 L33,127.9 C33,128 33,128 33,127.9 Z M120,130 L159,130 L159,128 L120,128 L120,130 Z" id="Shape_250_" fill="#93A0B0" fill-rule="nonzero"></path>
                <polyline id="Shape" stroke="#93A0B0" stroke-linecap="square" points="107.6 35.7 115 35.7 115 69 78 69 78 35.7 85.4 35.7"></polyline>
                <polyline id="Shape" stroke="#93A0B0" fill="#E1E9EC" fill-rule="nonzero" stroke-linecap="square" points="107.6 35.7 115 35.7 115 44.7 78 44.7 78 35.7 85.4 35.7"></polyline>
                <line x1="90.3333333" y1="35.7" x2="102.666667" y2="35.7" id="Shape" stroke="#93A0B0" stroke-linecap="square"></line>
                <rect id="Rectangle-path" stroke="#93A0B0" stroke-linecap="square" x="85.4" y="32" width="4.93333333" height="7.4"></rect>
                <rect id="Rectangle-path" stroke="#93A0B0" stroke-linecap="square" x="102.666667" y="32" width="4.93333333" height="7.4"></rect>
            </g>
            <g id="zc-wf-approval" transform="translate(446.000000, 700.000000)" fill="#93A0B0" fill-rule="nonzero">
                <g id="Rectangle_1_copy_3_2_" transform="translate(52.000000, 89.000000)">
                    <rect id="Rectangle-path_130_" x="0" y="0" width="88" height="1"></rect>
                </g>
                <g id="Rectangle_2_24_" transform="translate(47.000000, 100.000000)">
                    <path d="M0,0 L0,10 L10,10 L10,0 L0,0 Z M9,9 L1,9 L1,1 L9,1 L9,9 Z" id="Shape_231_"></path>
                </g>
                <g id="Rectangle_1_copy_2_2_" transform="translate(96.000000, 79.000000)">
                    <rect id="Rectangle-path_131_" x="0" y="0" width="1" height="21"></rect>
                </g>
                <g id="Rectangle_1_copy_6" transform="translate(52.000000, 90.000000)">
                    <rect id="Rectangle-path_132_" x="0" y="0" width="1" height="10"></rect>
                </g>
                <g id="Rectangle_2_copy_22_" transform="translate(134.000000, 100.000000)">
                    <path d="M0,0 L0,10 L10,10 L10,0 L0,0 Z M9,9 L1,9 L1,1 L9,1 L9,9 Z" id="Shape_232_"></path>
                </g>
                <g id="Ellipse_1_8_" transform="translate(92.000000, 100.000000)">
                    <path d="M5,0 C2.2,0 0,2.2 0,5 C0,7.8 2.2,10 5,10 C7.8,10 10,7.8 10,5 C10,2.2 7.8,0 5,0 Z M5,9 C2.8,9 1,7.2 1,5 C1,2.8 2.8,1 5,1 C7.2,1 9,2.8 9,5 C9,7.2 7.2,9 5,9 Z" id="Shape_233_"></path>
                </g>
                <g id="Rectangle_1_copy_5_2_" transform="translate(48.300000, 23.800000)">
                    <path d="M95,-6.66133815e-16 L1,-6.66133815e-16 L2.83106871e-15,-6.66133815e-16 L2.83106871e-15,1 L2.83106871e-15,55 L2.83106871e-15,56 L96,56 L96,55 L96,1 L96,-6.66133815e-16 L95,-6.66133815e-16 Z M95,55 L1,55 L1,1 L95,1 L95,55 Z" id="Shape_234_"></path>
                </g>
                <g id="Blank_33_">
                    <path d="M186,49 L176,49 L176,50 L186,50 L186,49 Z M186,59 L176,59 L176,60 L186,60 L186,59 Z M186,54 L186,55 L192,55 L192,54 L186,54 Z M0,128 L31,128 L31,130 L0,130 L0,128 Z M159,128 L192,128 L192,130 L159,130 L159,128 Z M159,0 L33,0 C31.9,0 31,0.9 31,2 L31,11 L33,11 L33,4 C33,2.9 33.9,2 35,2 L157,2 C158.1,2 159,2.9 159,4 L159,128 L161,128 L161,2 C161,0.9 160.1,0 159,0 Z M33,127.9 L33,16 L31,16 L31,130 L114,130 L114,128 L33,127.9 C33,128 33,128 33,127.9 Z M120,130 L159,130 L159,128 L120,128 L120,130 Z" id="Shape_235_"></path>
                </g>
                <g id="Group_8_" transform="translate(84.625000, 40.213793)">
                    <path d="M6.775,10.8862075 C6.475,10.5862075 5.975,10.5862075 5.575,10.8862075 C5.175,11.1862075 5.275,11.6862075 5.575,12.0862075 L9.375,15.8862075 C9.575,16.0862075 9.775,16.0862075 9.975,16.0862075 C10.175,16.0862075 10.375,15.9862075 10.575,15.7862075 L20.075,4.48620748 C20.375,4.18620748 20.275,3.58620748 19.975,3.28620748 C19.675,2.98620748 19.075,3.08620748 18.775,3.38620748 L9.875,14.0862075 L6.775,10.8862075 Z" id="Shape_236_"></path>
                    <path d="M17.675,1.78620748 C13.075,-1.11379252 7.175,-0.413792528 3.375,3.38620748 C-1.125,7.88620748 -1.125,15.2862075 3.375,19.7862075 C5.675,22.0862075 8.575,23.1862075 11.575,23.1862075 C14.575,23.1862075 17.475,22.0862075 19.775,19.7862075 C23.675,15.8862075 24.275,9.98620748 21.375,5.38620748 C21.175,4.98620748 20.675,4.88620748 20.275,5.08620748 C19.875,5.28620748 19.775,5.78620748 19.975,6.18620748 C22.475,10.1862075 21.875,15.1862075 18.575,18.5862075 C14.675,22.4862075 8.375,22.4862075 4.475,18.5862075 C0.575,14.6862075 0.575,8.38620748 4.475,4.48620748 C7.775,1.18620748 12.875,0.586207472 16.775,3.08620748 C17.175,3.28620748 17.675,3.18620748 17.875,2.78620748 C18.175,2.48620748 18.075,1.98620748 17.675,1.78620748 Z" id="Shape_237_"></path>
                </g>
            </g>
            <g id="zc-date-form-field" transform="translate(0.000000, 860.000000)" fill-rule="nonzero">
                <g id="Layer_1-2">
                    <path d="M42,2 L42,24 L40,24 L40,4 L2,4 L2,38 L19,38 L19,40 L0,40 L0,2 C0,0.9 0.9,0 2,0 L40,0 C41.1,0 42,0.9 42,2 Z" id="Shape_166_" fill="#ADADAD"></path>
                    <rect id="Rectangle-path_70_" fill="#CDCDCD" x="6" y="10" width="11" height="2"></rect>
                    <rect id="Rectangle-path_71_" fill="#CDCDCD" x="20" y="10" width="6" height="2"></rect>
                    <rect id="Rectangle-path_72_" fill="#999999" x="6" y="15" width="30" height="5"></rect>
                    <rect id="Rectangle-path_73_" fill="#D6D6D6" x="6" y="25" width="10" height="2"></rect>
                    <rect id="Rectangle-path_74_" fill="#999999" x="6" y="30" width="13" height="4"></rect>
                    <path d="M40,28 L40,41 L23,41 L23,28 L40,28 Z M42,26 L21,26 L21,43 L42,43 L42,26 Z" id="Shape_167_" fill="#ADADAD"></path>
                    <rect id="Rectangle-path_75_" fill="#E1E1E1" x="23" y="28" width="17" height="2"></rect>
                    <polygon id="Shape_168_" fill="#ADADAD" points="28 24 26 24 26 29 28 29"></polygon>
                    <polygon id="Shape_169_" fill="#ADADAD" points="37 24 35 24 35 29 37 29"></polygon>
                    <rect id="Rectangle-path_76_" fill="#999999" x="24" y="32" width="3" height="3"></rect>
                    <rect id="Rectangle-path_77_" fill="#D6D6D6" x="30" y="32" width="3" height="3"></rect>
                    <rect id="Rectangle-path_78_" fill="#999999" x="36" y="32" width="3" height="3"></rect>
                    <rect id="Rectangle-path_79_" fill="#CDCDCD" x="24" y="37" width="3" height="3"></rect>
                    <rect id="Rectangle-path_80_" fill="#999999" x="30" y="37" width="3" height="3"></rect>
                    <rect id="Rectangle-path_81_" fill="#F0F0F0" x="36" y="37" width="3" height="3"></rect>
                </g>
            </g>
            <g id="zc-specific-date" transform="translate(72.000000, 860.000000)" fill-rule="nonzero">
                <g id="Layer_1-2_2_">
                    <path d="M40,0 L2,0 C0.9,0 0,0.9 0,2 L0,40 L23.8,40 C23.4,39.4 23.1,38.7 22.8,38 L2,38 L2,4 L40,4 L40,25.5 C40.8,26.1 41.4,26.9 42,27.7 L42,2 C42,0.9 41.1,0 40,0 Z" id="Shape_199_" fill="#ADADAD"></path>
                    <rect id="Rectangle-path_104_" fill="#D6D6D6" x="7" y="16" width="6" height="6"></rect>
                    <rect id="Rectangle-path_105_" fill="#999999" x="18" y="16" width="6" height="6"></rect>
                    <rect id="Rectangle-path_106_" fill="#999999" x="7" y="28" width="6" height="6"></rect>
                    <path d="M23.8,28 C22.6,29.8 22,31.9 22,34 L18,34 L18,28 L23.8,28 Z" id="Shape_200_" fill="#D6D6D6"></path>
                    <rect id="Rectangle-path_107_" fill="#D2D2D2" x="29" y="16" width="6" height="6"></rect>
                    <rect id="Rectangle-path_108_" fill="#E1E1E1" x="2" y="4" width="38" height="5"></rect>
                    <path d="M39.4,27.6 C36.4,24.6 31.6,24.1 28,26.5 C24.4,28.9 23,33.5 24.7,37.4 C26.3,41.4 30.6,43.6 34.8,42.8 C39,42 42,38.3 42,34 C42,31.6 41,29.3 39.4,27.6 Z M33,41 C30.2,41 27.6,39.3 26.5,36.7 C25.4,34.1 26,31.1 28,29.1 C30,27.1 33,26.5 35.6,27.6 C38.2,28.7 39.9,31.2 39.9,34.1 C40,37.9 36.9,41 33,41 Z" id="Shape_201_" fill="#ADADAD"></path>
                    <polygon id="Shape_202_" fill="#999999" points="34 34.5 34 29.5 32 29.5 32 34.5 32 36.5 34 36.5 37 36.5 37 34.5"></polygon>
                </g>
            </g>
            <g id="Shape_1_2_" transform="translate(447.000000, 540.000000)" fill="#93A0B0" fill-rule="nonzero">
                <path d="M186,49 L176,49 L176,50 L186,50 L186,49 Z M33,127.8 C33,122.9 33,46.2 33,16 L31,16 L31,128 L0,128 L0,130 L31,130 L114,130 L114,128 L33,127.8 Z M186,59 L176,59 L176,60 L186,60 L186,59 Z M161,2 C161,0.9 160.1,0 159,0 L33,0 C31.9,0 31,0.9 31,2 L31,11 L33,11 C33,6.6 33,4 33,4 C33,2.9 33.9,2 35,2 L157,2 C158.1,2 159,2.9 159,4 L159,128 L120,128 L120,130 L159,130 L192,130 L192,128 L161,128 L161,2 Z M186,54 L186,55 L192,55 L192,54 L186,54 Z" id="Shape"></path>
            </g>
            <g id="Shape_1_2_" transform="translate(670.000000, 540.000000)" fill="#93A0B0" fill-rule="nonzero">
                <path d="M186,49 L176,49 L176,50 L186,50 L186,49 Z M33,127.8 C33,122.9 33,46.2 33,16 L31,16 L31,128 L0,128 L0,130 L31,130 L114,130 L114,128 L33,127.8 Z M186,59 L176,59 L176,60 L186,60 L186,59 Z M161,2 C161,0.9 160.1,0 159,0 L33,0 C31.9,0 31,0.9 31,2 L31,11 L33,11 C33,6.6 33,4 33,4 C33,2.9 33.9,2 35,2 L157,2 C158.1,2 159,2.9 159,4 L159,128 L120,128 L120,130 L159,130 L192,130 L192,128 L161,128 L161,2 Z M186,54 L186,55 L192,55 L192,54 L186,54 Z" id="Shape"></path>
            </g>
            <g id="Rectangle_1_copy_8" transform="translate(498.000000, 568.000000)" fill="#93A0B0" fill-rule="nonzero">
                <path d="M35,0 L1,0 L0,0 L0,1 L0,18 L0,19 L36,19 L36,18 L36,1 L36,0 L35,0 Z M35,18 L1,18 L1,1 L35,1 L35,18 Z M12,4 L4,4 L4,5 L12,5 L12,4 Z M21,7 L11,7 L11,8 L21,8 L21,7 Z M25,4 L13,4 L13,5 L25,5 L25,4 Z M13,14 L4,14 L4,15 L13,15 L13,14 Z M32,4 L26,4 L26,5 L32,5 L32,4 Z M10,7 L4,7 L4,8 L10,8 L10,7 Z M14,15 L18,15 L18,14 L14,14 L14,15 Z M19,15 L23,15 L23,14 L19,14 L19,15 Z M24,15 L28,15 L28,14 L24,14 L24,15 Z" id="Shape"></path>
            </g>
            <g id="Rectangle_1_copy_13" transform="translate(493.000000, 563.000000)" fill="#93A0B0" fill-rule="nonzero">
                <path d="M45,0 L1,0 L0,0 L0,1 L0,84 L0,85 L46,85 L46,84 L46,1 L46,0 L45,0 Z M45,84 L1,84 L1,1 L45,1 L45,84 Z" id="Shape"></path>
            </g>
            <g id="Rectangle_1_copy_14" transform="translate(548.000000, 563.000000)" fill="#93A0B0" fill-rule="nonzero">
                <path d="M45,0 L1,0 L0,0 L0,1 L0,56 L0,57 L46,57 L46,56 L46,1 L46,0 L45,0 Z M45,56 L1,56 L1,1 L45,1 L45,56 Z" id="Shape"></path>
            </g>
            <g id="Rectangle_1_1_" transform="translate(546.000000, 640.000000)" fill="#93A0B1" fill-rule="nonzero">
                <rect id="Rectangle-path" x="0" y="0" width="24" height="1"></rect>
            </g>
            <g id="Shape_2_2_" transform="translate(567.000000, 624.000000)" fill="#93A0B1" fill-rule="nonzero">
                <polygon id="Shape" points="3.5 0 0 7 7 7"></polygon>
            </g>
            <g id="Rectangle_1_copy_1_" transform="translate(570.000000, 630.000000)" fill="#93A0B1" fill-rule="nonzero">
                <rect id="Rectangle-path" x="0" y="0" width="1" height="11"></rect>
            </g>
            <g id="Rectangle_1_copy_11" transform="translate(553.000000, 568.000000)" fill="#93A0B0" fill-rule="nonzero">
                <path d="M35,0 L1,0 L0,0 L0,1 L0,18 L0,19 L36,19 L36,18 L36,1 L36,0 L35,0 Z M35,18 L1,18 L1,1 L35,1 L35,18 Z M12,4 L4,4 L4,5 L12,5 L12,4 Z M25,4 L13,4 L13,5 L25,5 L25,4 Z M13,14 L4,14 L4,15 L13,15 L13,14 Z M32,4 L26,4 L26,5 L32,5 L32,4 Z M20,7 L4,7 L4,8 L20,8 L20,7 Z M14,15 L18,15 L18,14 L14,14 L14,15 Z M19,15 L23,15 L23,14 L19,14 L19,15 Z" id="Shape"></path>
            </g>
            <g id="Rectangle_1_copy_9" transform="translate(498.000000, 596.000000)" fill="#93A0B0" fill-rule="nonzero">
                <path d="M35,0 L1,0 L0,0 L0,1 L0,18 L0,19 L36,19 L36,18 L36,1 L36,0 L35,0 Z M35,18 L1,18 L1,1 L35,1 L35,18 Z M12,4 L4,4 L4,5 L12,5 L12,4 Z M14,7 L4,7 L4,8 L14,8 L14,7 Z M25,4 L13,4 L13,5 L25,5 L25,4 Z M13,14 L4,14 L4,15 L13,15 L13,14 Z M32,4 L26,4 L26,5 L32,5 L32,4 Z M21,7 L15,7 L15,8 L21,8 L21,7 Z M14,15 L18,15 L18,14 L14,14 L14,15 Z M19,15 L23,15 L23,14 L19,14 L19,15 Z" id="Shape"></path>
            </g>
            <g id="Rectangle_1_copy_10" transform="translate(498.000000, 624.000000)" fill="#93A0B0" fill-rule="nonzero">
                <path d="M35,0 L1,0 L0,0 L0,1 L0,18 L0,19 L36,19 L36,18 L36,1 L36,0 L35,0 Z M35,18 L1,18 L1,1 L35,1 L35,18 Z M12,4 L4,4 L4,5 L12,5 L12,4 Z M11,8 L21,8 L21,7 L11,7 L11,8 Z M15,4 L13,4 L13,5 L15,5 L15,4 Z M13,14 L4,14 L4,15 L13,15 L13,14 Z M32,4 L16,4 L16,5 L32,5 L32,4 Z M10,7 L4,7 L4,8 L10,8 L10,7 Z" id="Shape"></path>
            </g>
            <g id="Rectangle_1_copy_7_2_" transform="translate(553.000000, 596.000000)" fill="#93A0B0" fill-rule="nonzero">
                <path d="M3,19 L5,19 L5,18 L3,18 L3,19 Z M7,19 L9,19 L9,18 L7,18 L7,19 Z M11,19 L13,19 L13,18 L11,18 L11,19 Z M15,19 L17,19 L17,18 L15,18 L15,19 Z M19,19 L21,19 L21,18 L19,18 L19,19 Z M23,19 L25,19 L25,18 L23,18 L23,19 Z M27,19 L29,19 L29,18 L27,18 L27,19 Z M31,19 L33,19 L33,18 L31,18 L31,19 Z M3,1 L5,1 L5,0 L3,0 L3,1 Z M7,1 L9,1 L9,0 L7,0 L7,1 Z M11,1 L13,1 L13,0 L11,0 L11,1 Z M15,1 L17,1 L17,0 L15,0 L15,1 Z M19,1 L21,1 L21,0 L19,0 L19,1 Z M23,1 L25,1 L25,0 L23,0 L23,1 Z M27,1 L29,1 L29,0 L27,0 L27,1 Z M31,1 L33,1 L33,0 L31,0 L31,1 Z M1,3 L0,3 L0,5 L1,5 L1,3 Z M1,7 L0,7 L0,9 L1,9 L1,7 Z M1,11 L0,11 L0,13 L1,13 L1,11 Z M1,14 L0,14 L0,16 L1,16 L1,14 Z M35,16 L36,16 L36,14 L35,14 L35,16 Z M35,12 L36,12 L36,10 L35,10 L35,12 Z M35,8 L36,8 L36,6 L35,6 L35,8 Z M35,5 L36,5 L36,3 L35,3 L35,5 Z M1,17 L0,17 L0,18 L0,19 L1,19 L2,19 L2,18 L1,18 L1,17 Z M0,0 L0,1 L0,2 L1,2 L1,1 L2,1 L2,0 L1,0 L0,0 Z M35,18 L34,18 L34,19 L35,19 L36,19 L36,18 L36,17 L35,17 L35,18 Z M35,0 L34,0 L34,1 L35,1 L35,2 L36,2 L36,1 L36,0 L35,0 Z" id="Shape"></path>
            </g>
            <g id="Rectangle_2_3_" transform="translate(554.000000, 597.000000)" fill="#E2E9ED" fill-rule="nonzero">
                <rect id="Rectangle-path" x="0" y="0" width="34" height="17"></rect>
            </g>
            <rect id="Rectangle-path" fill="#93A1B0" fill-rule="nonzero" x="49" y="14.5" width="43" height="1"></rect>
            <rect id="Rectangle-path" fill="#E2E9ED" fill-rule="nonzero" x="49" y="63" width="98" height="15"></rect>
            <rect id="Rectangle-path" fill="#93A1B0" fill-rule="nonzero" x="49" y="54.5" width="20" height="1"></rect>
            <rect id="Rectangle-path" fill="#93A1B0" fill-rule="nonzero" x="74" y="54.5" width="20" height="1"></rect>
            <rect id="Rectangle-path" fill="#E1E9EC" fill-rule="nonzero" x="527.1" y="59.8" width="25" height="51.4"></rect>
            <rect id="Rectangle-path" fill="#FFFFFF" fill-rule="nonzero" x="547.1" y="35" width="24.9" height="23.8"></rect>
            <rect id="Rectangle-path" fill="#FFFFFF" fill-rule="nonzero" x="554" y="58" width="18" height="29.5"></rect>
            <rect id="Rectangle-path" fill="#B4C5D7" fill-rule="nonzero" x="567.1" y="17" width="25" height="17"></rect>
            <rect id="Rectangle-path" fill="#B4C5D7" fill-rule="nonzero" x="573" y="34" width="19.1" height="77.5"></rect>
            <polygon id="Shape" fill="#93A1B0" fill-rule="nonzero" points="646 101.4 647.8 94.6 641 96.1"></polygon>
            <polygon id="Shape" fill="#93A1B0" fill-rule="nonzero" points="871.6 100.2 873.4 107 878.6 102.3"></polygon>
            <path d="M802.4,96.1 C802.1,96.6 801.7,97.1 801.3,97.6 C800,98.9 798.2,99.6 796.3,99.7 C792.5,99.7 789.3,96.6 789.3,92.7 C789.3,88.9 792.4,85.7 796.3,85.7 C797.7,85.6 799,86 800.1,86.8 L799.5,87.6 C798.6,87 797.4,86.6 796.2,86.7 C792.9,86.7 790.2,89.4 790.2,92.7 C790.2,96 792.9,98.7 796.2,98.7 C797.8,98.7 799.3,98.1 800.4,96.9 C801.5,95.8 802.2,94.3 802.2,92.7 C802.2,91.8 802,90.9 801.6,90.1 L802.5,89.7 C802.9,90.6 803.1,91.6 803.1,92.6 C803.3,93.9 803,95.1 802.4,96.1 Z" id="Shape" fill="#93A1B0" fill-rule="nonzero"></path>
            <circle id="Oval" fill="#E2E9ED" fill-rule="nonzero" cx="796.4" cy="92.7" r="6.1"></circle>
            <circle id="Oval" fill="#B4C5D6" fill-rule="nonzero" cx="841.4" cy="43.6" r="6.1"></circle>
            <polygon id="Shape" fill="#93A1B0" fill-rule="nonzero" points="764 99.3 750 99.3 750 93.7 751 93.7 751 98.3 763 98.3 763 86.9 751 86.9 751 94.3 750 94.3 750 85.9 751 85.9 751 85.9 764 85.9"></polygon>
            <rect id="Rectangle-path" fill="#B4C5D6" fill-rule="nonzero" x="751" y="86.9" width="12" height="11.4"></rect>
            <rect id="Rectangle-path" fill="#E2E9ED" fill-rule="nonzero" x="772" y="23.3" width="46.1" height="26.8"></rect>
            <path d="M794.5,39.3 C794.2,39.3 793.9,39.3 793.7,39.2 L793.9,38.2 C794.2,38.3 794.8,38.3 795.3,38.1 C796,37.9 796.5,37.4 796.8,36.7 C797.1,36.1 797.1,35.5 796.8,34.9 C796.5,34.2 796.1,33.7 795.4,33.4 C794.8,33.1 794.2,33.1 793.6,33.4 C792.9,33.7 792.4,34.1 792.1,34.8 C791.8,35.4 791.8,36 792.1,36.6 C792.3,36.9 792.4,37.3 792.7,37.5 L792,38.2 C791.6,37.8 791.4,37.4 791.2,37 C790.8,36.1 790.9,35.2 791.2,34.4 C791.6,33.5 792.3,32.8 793.2,32.5 C794,32.2 794.9,32.2 795.7,32.6 C796.6,33 797.2,33.7 797.6,34.6 C797.9,35.4 797.9,36.3 797.5,37.1 C797.1,38 796.4,38.7 795.5,39 C795.2,39.2 794.8,39.3 794.5,39.3 Z" id="Shape" fill="#B5C3D2" fill-rule="nonzero"></path>
            <rect id="Rectangle-path" fill="#B4C5D6" fill-rule="nonzero" x="49" y="97" width="87" height="18"></rect>
            <g id="Group" transform="translate(735.000000, 582.000000)" fill="#93A0B0" fill-rule="nonzero">
                <rect id="Rectangle-path" x="21.1" y="13.5" width="9.3" height="1.5"></rect>
                <polygon id="Shape" points="63.2 43.2 0 43.2 0 38.6 9.1 21.1 10.4 21.8 1.5 39 1.5 41.7 61.6 41.7 61.6 38.9 55.7 23.4 57.1 22.9 63.2 38.8"></polygon>
                <rect id="Rectangle-path" x="0.7" y="38" width="23.7" height="1.5"></rect>
                <path d="M44.9,10.6 C42.6,10.6 40.7,12.5 40.7,14.8 C40.7,17.1 42.6,19 44.9,19 C47.2,19 49.1,17.1 49.1,14.8 C49.1,12.5 47.2,10.6 44.9,10.6 Z M44.9,17.8 C43.2,17.8 41.9,16.5 41.9,14.8 C41.9,13.1 43.2,11.8 44.9,11.8 C46.6,11.8 47.9,13.1 47.9,14.8 C47.9,16.5 46.5,17.8 44.9,17.8 Z" id="Shape"></path>
                <path d="M44.9,19.1 C42.5,19.1 40.6,17.2 40.6,14.8 C40.6,12.4 42.5,10.5 44.9,10.5 C47.3,10.5 49.2,12.4 49.2,14.8 C49.2,17.2 47.3,19.1 44.9,19.1 Z M44.9,10.7 C42.7,10.7 40.8,12.5 40.8,14.8 C40.8,17.1 42.6,18.9 44.9,18.9 C47.2,18.9 49,17.1 49,14.8 C49,12.5 47.1,10.7 44.9,10.7 Z M44.9,17.9 C43.2,17.9 41.8,16.5 41.8,14.8 C41.8,13.1 43.2,11.7 44.9,11.7 C46.6,11.7 48,13.1 48,14.8 C48,16.5 46.6,17.9 44.9,17.9 Z M44.9,11.9 C43.3,11.9 42,13.2 42,14.8 C42,16.4 43.3,17.7 44.9,17.7 C46.5,17.7 47.8,16.4 47.8,14.8 C47.8,13.2 46.5,11.9 44.9,11.9 Z" id="Shape"></path>
                <path d="M52.9,6.8 C50.7,4.6 47.8,3.4 44.8,3.4 C41.7,3.4 38.8,4.6 36.7,6.8 C32.7,10.8 32.2,18.4 35.6,23 L44.8,36.3 L54,23 C57.4,18.4 56.9,10.8 52.9,6.8 Z M53,22.3 L44.8,34.2 L36.6,22.3 C33.5,18.1 33.9,11.3 37.6,7.7 C39.5,5.8 42.1,4.7 44.9,4.7 C47.7,4.7 50.2,5.8 52.2,7.7 C55.7,11.3 56.1,18.1 53,22.3 Z" id="Shape"></path>
                <path d="M44.8,36.5 L44.7,36.4 L35.5,23.1 C32,18.5 32.5,10.8 36.6,6.8 C38.8,4.6 41.7,3.4 44.8,3.4 C47.9,3.4 50.8,4.6 53,6.8 C57.1,10.9 57.6,18.5 54.1,23.2 L44.8,36.5 Z M44.8,3.5 C41.8,3.5 38.9,4.7 36.8,6.8 C32.8,10.8 32.3,18.3 35.7,22.8 L44.8,36 L53.9,22.9 C57.3,18.3 56.8,10.9 52.8,6.9 C50.7,4.7 47.8,3.5 44.8,3.5 Z M44.8,34.4 L44.7,34.3 L36.4,22.3 C33.2,18.1 33.7,11.2 37.4,7.5 C39.4,5.5 42,4.4 44.8,4.4 C47.6,4.4 50.2,5.5 52.2,7.5 C55.9,11.2 56.3,18.1 53.2,22.3 L44.8,34.4 Z M44.8,4.7 C42.1,4.7 39.5,5.8 37.6,7.7 C34,11.3 33.6,18 36.7,22.2 L44.8,34 L52.9,22.3 C56,18.2 55.6,11.4 52,7.8 C50.1,5.8 47.5,4.7 44.8,4.7 Z" id="Shape"></path>
                <path d="M17.8,8.3 C16.7,7.2 15.3,6.6 13.7,6.6 C12.2,6.6 10.7,7.2 9.6,8.3 C7.6,10.3 7.3,14.1 9.1,16.4 L13.7,23.1 L18.3,16.5 C20.1,14.1 19.9,10.3 17.8,8.3 Z M17.9,16.1 L13.8,22 L9.7,16 C8.1,13.9 8.4,10.5 10.2,8.7 C11.2,7.7 12.5,7.2 13.8,7.2 C15.1,7.2 16.4,7.8 17.4,8.7 C19.2,10.6 19.5,14 17.9,16.1 Z" id="Shape"></path>
                <path d="M13.8,23.8 L8.9,16.7 C7.1,14.3 7.3,10.2 9.5,8.1 C10.7,6.9 12.2,6.3 13.9,6.3 C15.5,6.3 17.1,6.9 18.3,8.1 C20.4,10.2 20.7,14.3 18.9,16.7 L13.8,23.8 Z M13.8,7.6 C12.5,7.6 11.3,8.1 10.4,9 C8.7,10.7 8.5,13.9 10,15.8 L13.8,21.3 L17.6,15.8 C19.1,13.9 18.8,10.7 17.2,9 C16.2,8.1 15,7.6 13.8,7.6 Z" id="Shape"></path>
                <rect id="Rectangle-path" x="28.7" y="38" width="33.7" height="1.5"></rect>
                <rect id="Rectangle-path" x="50.7" y="49" width="8.7" height="1.5"></rect>
                <rect id="Rectangle-path" x="14.7" y="0" width="8.7" height="1.5"></rect>
            </g>
            <g id="Group" transform="translate(223.000000, 933.000000)">
                <rect id="Rectangle-path_144_-Copy" fill="#93A0B0" fill-rule="nonzero" x="52" y="89" width="88" height="1"></rect>
                <path d="M47,100 L47,110 L57,110 L57,100 L47,100 Z M56,109 L48,109 L48,101 L56,101 L56,109 Z" id="Shape_257_-Copy" fill="#93A0B0" fill-rule="nonzero"></path>
                <rect id="Rectangle-path_145_-Copy" fill="#93A0B0" fill-rule="nonzero" x="96" y="79" width="1" height="21"></rect>
                <rect id="Rectangle-path_146_-Copy" fill="#93A0B0" fill-rule="nonzero" x="52" y="90" width="1" height="10"></rect>
                <path d="M134,100 L134,110 L144,110 L144,100 L134,100 Z M143,109 L135,109 L135,101 L143,101 L143,109 Z" id="Shape_258_-Copy" fill="#93A0B0" fill-rule="nonzero"></path>
                <path d="M97,100 C94.2,100 92,102.2 92,105 C92,107.8 94.2,110 97,110 C99.8,110 102,107.8 102,105 C102,102.2 99.8,100 97,100 Z M97,109 C94.8,109 93,107.2 93,105 C93,102.8 94.8,101 97,101 C99.2,101 101,102.8 101,105 C101,107.2 99.2,109 97,109 Z" id="Shape_259_-Copy" fill="#93A0B0" fill-rule="nonzero"></path>
                <path d="M143,23 L49,23 L48,23 L48,24 L48,78 L48,79 L144,79 L144,78 L144,24 L144,23 L143,23 Z M143,78 L49,78 L49,24 L143,24 L143,78 Z" id="Shape_260_-Copy" fill="#93A0B0" fill-rule="nonzero"></path>
                <path d="M186,49 L176,49 L176,50 L186,50 L186,49 Z M186,59 L176,59 L176,60 L186,60 L186,59 Z M186,54 L186,55 L192,55 L192,54 L186,54 Z M0,128 L31,128 L31,130 L0,130 L0,128 Z M159,128 L192,128 L192,130 L159,130 L159,128 Z M159,0 L33,0 C31.9,0 31,0.9 31,2 L31,11 L33,11 L33,4 C33,2.9 33.9,2 35,2 L157,2 C158.1,2 159,2.9 159,4 L159,128 L161,128 L161,2 C161,0.9 160.1,0 159,0 Z M33,127.9 L33,16 L31,16 L31,130 L114,130 L114,128 L33,127.9 C33,128 33,128 33,127.9 Z M120,130 L159,130 L159,128 L120,128 L120,130 Z" id="Shape_261_-Copy" fill="#93A0B0" fill-rule="nonzero"></path>
                <g id="Group-6" transform="translate(66.000000, 39.000000)">
                    <path d="M1,26 L22.2349464,26 M24.4881644,26 L26.7449314,26 M29.0336394,26 L33,26" id="Line" stroke="#93A0B0" stroke-linecap="round" stroke-linejoin="bevel"></path>
                    <g id="Group" stroke="#93A0B0">
                        <path d="M17.4658203,0 L59,0 C60.1045695,0 61,0.8954305 61,2 L61,18 C61,19.1045695 60.1045695,20 59,20 L2,20 C0.8954305,20 0,19.1045695 0,18 L0,2 C0,0.8954305 0.8954305,0 2,0 L12.4892578,0" id="Rectangle-path_147_" fill="#E1E9EC" fill-rule="nonzero" stroke-linecap="square" transform="translate(30.500000, 10.000000) scale(-1, 1) translate(-30.500000, -10.000000) "></path>
                        <path d="M10,9 L37.2349464,9 M36.4273682,9 L41.7449314,9 M44.0336394,9 L48,9" id="Line" stroke-linecap="round" stroke-linejoin="bevel"></path>
                    </g>
                    <path d="M54.1447123,19.0095724 L48.0243048,18.1363754 L47.6285889,13.9012457 C47.6285889,13.3125356 47.1159732,12.7669263 46.3754883,12.6723633 C45.4318939,12.5519421 44.6164365,13.1202009 44.6164365,13.8380245 L45.0121524,21.6818252 L44.2591143,21.6818252 L44.2591143,20.4282227 L43.6536865,20.6782227 C42.8637969,21.7923803 41.534668,20.0254994 41.534668,20.6782227 L42,22.8017855 C42,23.6068568 42.3491687,24.3879785 42.9901096,25.0166458 L45.0121524,27 L54.8016477,27 L55.9734427,21.0232579 C55.994496,20.9158624 55.3754261,21.1282494 55.3718262,21.0232579 C55.3436129,20.2004127 55.2124865,19.1619168 54.1447123,19.0095724 Z" id="Shape" fill="#FFFFFF" fill-rule="nonzero"></path>
                    <path d="M42.9414062,20 C42.3891215,20 41.5,19.9477153 41.5,20.5 L41.5,22.5 C41.5,26.5 44.5,27.5 44.5,27.5 L53.5,27.5 L54.985,20.816 C55.112734,20.2405234 54.9800899,19.6380058 54.6224956,19.1693742 C54.2649013,18.7007425 53.7187816,18.4137318 53.13,18.385 L47.5,18.111 L47.5,14 C47.5,13.1715729 46.8284271,12.5 46,12.5 C45.1715729,12.5 44.5,13.1715729 44.5,14 L44.5,22" id="Shape" stroke="#93A0B0" stroke-linecap="round" stroke-linejoin="round"></path>
                </g>
            </g>
            <g id="Group-10" transform="translate(0.000000, 933.000000)">
                <rect id="Rectangle-path_144_" fill="#93A0B0" fill-rule="nonzero" x="52" y="89" width="88" height="1"></rect>
                <path d="M47,100 L47,110 L57,110 L57,100 L47,100 Z M56,109 L48,109 L48,101 L56,101 L56,109 Z" id="Shape_257_" fill="#93A0B0" fill-rule="nonzero"></path>
                <rect id="Rectangle-path_145_" fill="#93A0B0" fill-rule="nonzero" x="96" y="79" width="1" height="21"></rect>
                <rect id="Rectangle-path_146_" fill="#93A0B0" fill-rule="nonzero" x="52" y="90" width="1" height="10"></rect>
                <path d="M134,100 L134,110 L144,110 L144,100 L134,100 Z M143,109 L135,109 L135,101 L143,101 L143,109 Z" id="Shape_258_" fill="#93A0B0" fill-rule="nonzero"></path>
                <path d="M97,100 C94.2,100 92,102.2 92,105 C92,107.8 94.2,110 97,110 C99.8,110 102,107.8 102,105 C102,102.2 99.8,100 97,100 Z M97,109 C94.8,109 93,107.2 93,105 C93,102.8 94.8,101 97,101 C99.2,101 101,102.8 101,105 C101,107.2 99.2,109 97,109 Z" id="Shape_259_" fill="#93A0B0" fill-rule="nonzero"></path>
                <path d="M143,23 L49,23 L48,23 L48,24 L48,78 L48,79 L144,79 L144,78 L144,24 L144,23 L143,23 Z M143,78 L49,78 L49,24 L143,24 L143,78 Z" id="Shape_260_" fill="#93A0B0" fill-rule="nonzero"></path>
                <path d="M186,49 L176,49 L176,50 L186,50 L186,49 Z M186,59 L176,59 L176,60 L186,60 L186,59 Z M186,54 L186,55 L192,55 L192,54 L186,54 Z M0,128 L31,128 L31,130 L0,130 L0,128 Z M159,128 L192,128 L192,130 L159,130 L159,128 Z M159,0 L33,0 C31.9,0 31,0.9 31,2 L31,11 L33,11 L33,4 C33,2.9 33.9,2 35,2 L157,2 C158.1,2 159,2.9 159,4 L159,128 L161,128 L161,2 C161,0.9 160.1,0 159,0 Z M33,127.9 L33,16 L31,16 L31,130 L114,130 L114,128 L33,127.9 C33,128 33,128 33,127.9 Z M120,130 L159,130 L159,128 L120,128 L120,130 Z" id="Shape_261_" fill="#93A0B0" fill-rule="nonzero"></path>
                <rect id="Rectangle-path" stroke="#93A0B0" stroke-linecap="square" x="72.5" y="41.5" width="43" height="22"></rect>
                <rect id="Rectangle-4" fill="#E1E9EC" fill-rule="nonzero" x="73" y="42" width="42" height="21"></rect>
                <path d="M93.9754454,46 L104.418294,46 C104.428266,48.3628217 105.600309,49.5728651 107.934423,49.63013 C107.934423,49.63013 107.948097,51.3800354 107.975445,54.8798461 C105.78744,55.5794154 104.601723,56.9228 104.418294,58.9099998 L104.886481,58.9099998 L93.5091394,58.766505 L83.0889648,58.9099998 L83.5571512,58.9099998 C83.373722,56.9228 82.188005,55.5794154 80,54.8798461 C80.0273482,51.3800354 80.0410223,49.63013 80.0410223,49.63013 C82.375136,49.5728651 83.547179,48.3628217 83.5571512,46 L93.9754454,46 Z" id="Combined-Shape" fill="#FFFFFF" fill-rule="nonzero"></path>
                <circle id="Oval" stroke="#93A0B0" stroke-linecap="square" cx="94.5" cy="52.5" r="3"></circle>
                <path d="M104.5,45.5 L83.5,45.5 C83.5,47.759 81.759,49.5 79.5,49.5 L79.5,55.5 C81.759,55.5 83.5,57.241 83.5,59.5 L104.5,59.5 C104.5,57.241 106.241,55.5 108.5,55.5 L108.5,49.5 C106.241,49.5 104.5,47.759 104.5,45.5 Z" id="Shape" stroke="#93A0B0" stroke-linecap="square"></path>
                <polyline id="Shape" stroke="#93A0B0" stroke-linecap="square" points="80.5 38.5 80.5 36.5 109.5 36.5 109.5 38.5"></polyline>
                <g id="Group-5" transform="translate(107.500000, 58.500000)">
                    <path d="M0,3 L0,7 C0,8.657 2.686,10 6,10 C9.314,10 12,8.657 12,7 L12,3" id="Shape" stroke="#93A0B0"></path>
                    <path d="M0,7 L0,11 C0,12.657 2.686,14 6,14 C9.314,14 12,12.657 12,11 L12,7" id="Shape" stroke="#93A0B0"></path>
                    <ellipse id="Oval" stroke="#93A0B0" stroke-linecap="square" cx="6" cy="3" rx="6" ry="3"></ellipse>
                    <ellipse id="Oval-4" fill="#FFFFFF" fill-rule="nonzero" cx="6" cy="3" rx="5.5" ry="2.5"></ellipse>
                </g>
            </g>
            <g id="Group-10" transform="translate(446.000000, 933.000000)" fill="#93A0B0" fill-rule="nonzero">
                <rect id="Rectangle-path_144_" x="52" y="89" width="88" height="1"></rect>
                <path d="M47,100 L47,110 L57,110 L57,100 L47,100 Z M56,109 L48,109 L48,101 L56,101 L56,109 Z" id="Shape_257_"></path>
                <rect id="Rectangle-path_145_" x="96" y="79" width="1" height="21"></rect>
                <rect id="Rectangle-path_146_" x="52" y="90" width="1" height="10"></rect>
                <path d="M134,100 L134,110 L144,110 L144,100 L134,100 Z M143,109 L135,109 L135,101 L143,101 L143,109 Z" id="Shape_258_"></path>
                <path d="M97,100 C94.2,100 92,102.2 92,105 C92,107.8 94.2,110 97,110 C99.8,110 102,107.8 102,105 C102,102.2 99.8,100 97,100 Z M97,109 C94.8,109 93,107.2 93,105 C93,102.8 94.8,101 97,101 C99.2,101 101,102.8 101,105 C101,107.2 99.2,109 97,109 Z" id="Shape_259_"></path>
                <path d="M143,23 L49,23 L48,23 L48,24 L48,78 L48,79 L144,79 L144,78 L144,24 L144,23 L143,23 Z M143,78 L49,78 L49,24 L143,24 L143,78 Z" id="Shape_260_"></path>
                <g id="code" transform="translate(80.999750, 38.717341)">
                    <path d="M7.00025,19.6966592 L0.29325,12.9896592 C-0.09775,12.5986592 -0.09775,11.9666592 0.29325,11.5756592 L7.00025,4.86865923 L8.41425,6.28265923 L2.41425,12.2826592 L8.41425,18.2826592 L7.00025,19.6966592 Z" id="Shape"></path>
                    <path d="M23.00025,19.6966592 L21.58625,18.2826592 L27.58625,12.2826592 L21.58625,6.28265923 L23.00025,4.86865923 L29.70725,11.5756592 C30.09825,11.9666592 30.09825,12.5986592 29.70725,12.9896592 L23.00025,19.6966592 Z" id="Shape"></path>
                    <rect id="Rectangle-path" transform="translate(14.999821, 12.281389) rotate(-70.019341) translate(-14.999821, -12.281389) " x="2.29542957" y="11.2813976" width="25.4087831" height="1.99998293"></rect>
                </g>
                <path d="M186,49 L176,49 L176,50 L186,50 L186,49 Z M186,59 L176,59 L176,60 L186,60 L186,59 Z M186,54 L186,55 L192,55 L192,54 L186,54 Z M0,128 L31,128 L31,130 L0,130 L0,128 Z M159,128 L192,128 L192,130 L159,130 L159,128 Z M159,0 L33,0 C31.9,0 31,0.9 31,2 L31,11 L33,11 L33,4 C33,2.9 33.9,2 35,2 L157,2 C158.1,2 159,2.9 159,4 L159,128 L161,128 L161,2 C161,0.9 160.1,0 159,0 Z M33,127.9 L33,16 L31,16 L31,130 L114,130 L114,128 L33,127.9 C33,128 33,128 33,127.9 Z M120,130 L159,130 L159,128 L120,128 L120,130 Z" id="Shape_261_"></path>
            </g>
            <g id="Group-10-Copy" transform="translate(666.000000, 933.000000)" fill="#93A0B0" fill-rule="nonzero">
                <rect id="Rectangle-path_144_" x="52" y="89" width="88" height="1"></rect>
                <path d="M47,100 L47,110 L57,110 L57,100 L47,100 Z M56,109 L48,109 L48,101 L56,101 L56,109 Z" id="Shape_257_"></path>
                <polygon id="Rectangle-path_145_" points="96 79 97 79 97 100.630811 96 100.630811"></polygon>
                <rect id="Rectangle-path_146_" x="52" y="90" width="1" height="10"></rect>
                <path d="M134,100 L134,110 L144,110 L144,100 L134,100 Z M143,109 L135,109 L135,101 L143,101 L143,109 Z" id="Shape_258_"></path>
                <path d="M97,100 C94.2,100 92,102.2 92,105 C92,107.8 94.2,110 97,110 C99.8,110 102,107.8 102,105 C102,102.2 99.8,100 97,100 Z M97,109 C94.8,109 93,107.2 93,105 C93,102.8 94.8,101 97,101 C99.2,101 101,102.8 101,105 C101,107.2 99.2,109 97,109 Z" id="Shape_259_"></path>
                <path d="M143,23 L49,23 L48,23 L48,24 L48,78 L48,79 L144,79 L144,78 L144,24 L144,23 L143,23 Z M143,78 L49,78 L49,24 L143,24 L143,78 Z" id="Shape_260_"></path>
                <path d="M186,49 L176,49 L176,50 L186,50 L186,49 Z M186,59 L176,59 L176,60 L186,60 L186,59 Z M186,54 L186,55 L192,55 L192,54 L186,54 Z M0,128 L31,128 L31,130 L0,130 L0,128 Z M159,128 L192,128 L192,130 L159,130 L159,128 Z M159,0 L33,0 C31.9,0 31,0.9 31,2 L31,11 L33,11 L33,4 C33,2.9 33.9,2 35,2 L157,2 C158.1,2 159,2.9 159,4 L159,128 L161,128 L161,2 C161,0.9 160.1,0 159,0 Z M33,127.9 L33,16 L31,16 L31,130 L114,130 L114,128 L33,127.9 C33,128 33,128 33,127.9 Z M120,130 L159,130 L159,128 L120,128 L120,130 Z" id="Shape_261_"></path>
            </g>
            <g id="blueprint" transform="translate(0.000000, 1093.000000)">
                <g id="Rectangle_1_copy_3_2_" transform="translate(52.000000, 88.999999)" fill="#93A0B0" fill-rule="nonzero">
                    <rect id="Rectangle-path_130_" x="0" y="0" width="87.9999998" height="1"></rect>
                </g>
                <g id="Rectangle_2_24_" transform="translate(47.000000, 100.000000)" fill="#93A0B0" fill-rule="nonzero">
                    <path d="M0,0 L0,10 L10,10 L10,0 L0,0 Z M9,9 L0.999999997,9 L0.999999997,1 L9,1 L9,9 Z" id="Shape_231_"></path>
                </g>
                <g id="Rectangle_1_copy_2_2_" transform="translate(95.999999, 79.000000)" fill="#93A0B0" fill-rule="nonzero">
                    <rect id="Rectangle-path_131_" x="0" y="0" width="1" height="21"></rect>
                </g>
                <g id="Rectangle_1_copy_6" transform="translate(52.000000, 90.000000)" fill="#93A0B0" fill-rule="nonzero">
                    <rect id="Rectangle-path_132_" x="0" y="0" width="1" height="10"></rect>
                </g>
                <g id="Rectangle_2_copy_22_" transform="translate(134.000000, 100.000000)" fill="#93A0B0" fill-rule="nonzero">
                    <path d="M0,0 L0,10 L10,10 L10,0 L0,0 Z M9,9 L0.999999997,9 L0.999999997,1 L9,1 L9,9 Z" id="Shape_232_"></path>
                </g>
                <g id="Ellipse_1_8_" transform="translate(91.999999, 100.000000)" fill="#93A0B0" fill-rule="nonzero">
                    <path d="M5,0 C2.19999999,0 0,2.20000001 0,5 C0,7.8 2.19999999,10 5,10 C7.79999997,10 10,7.8 10,5 C10,2.20000001 7.79999997,0 5,0 Z M5,9 C2.79999999,9 0.999999997,7.20000001 0.999999997,5 C0.999999997,2.80000001 2.79999999,1 5,1 C7.19999998,1 9,2.80000001 9,5 C9,7.20000001 7.19999998,9 5,9 Z" id="Shape_233_"></path>
                </g>
                <g id="Rectangle_1_copy_5_2_" transform="translate(48.000000, 24.000000)" fill="#93A0B0" fill-rule="nonzero">
                    <path d="M95,0 L1,0 L0,0 L0,1 L0,55 L0,56 L96,56 L96,55 L96,1 L96,0 L95,0 Z M95,55 L0.999999997,55 L0.999999997,1 L95,1 L95,55 Z" id="Shape_234_"></path>
                </g>
                <g id="Blank_34_" fill="#93A0B0" fill-rule="nonzero">
                    <g id="Blank_33_">
                        <path d="M186,49 L176,49 L176,50 L186,50 L186,49 Z M186,59 L176,59 L176,60 L186,60 L186,59 Z M186,54 L186,55 L192,55 L192,54 L186,54 Z M0,128 L31,128 L31,130 L0,130 L0,128 Z M159,128 L192,128 L192,130 L159,130 L159,128 Z M159,0 L32.9999999,0 C31.8999999,0 30.9999999,0.9 30.9999999,2 L30.9999999,11 L32.9999999,11 L32.9999999,4 C32.9999999,2.9 33.8999999,2 34.9999999,2 L157,2 C158.099999,2 159,2.9 159,4 L159,128 L161,128 L161,2 C161,0.9 160.099999,0 159,0 Z M32.9999999,127.9 L32.9999999,15.9999999 L30.9999999,15.9999999 L30.9999999,130 L114,130 L114,128 L32.9999999,127.9 C32.9999999,128 32.9999999,128 32.9999999,127.9 Z M120,130 L159,130 L159,128 L120,128 L120,130 Z" id="Shape_235_"></path>
                    </g>
                </g>
                <g id="Group-4" transform="translate(77.803090, 33.583333)" stroke="#93A0B0" stroke-width="0.743999961">
                    <line x1="18.0988486" y1="5.41666668" x2="18.0988486" y2="30.4166666" id="Path-16"></line>
                    <polygon id="Rectangle" fill="#FFFFFF" fill-rule="nonzero" transform="translate(18.202029, 18.916666) rotate(45.000000) translate(-18.202029, -18.916666) " points="21.1651497 15.9535453 21.1186954 21.8333329 15.2389078 21.8797872 15.2853621 15.9999996"></polygon>
                    <rect id="Rectangle" fill="#FFFFFF" fill-rule="nonzero" x="5.07963593" y="-1.74094121e-16" width="25.2288585" height="6.83333334"></rect>
                    <rect id="Rectangle-Copy" fill="#E1E9EC" fill-rule="nonzero" x="-1.76866951e-16" y="30.0000001" width="35.3881303" height="6.83333334"></rect>
                </g>
            </g>
            <g id="Group-3" transform="translate(746.538720, 968.430976)">
                <g id="Oval-3">
                    <g id="path-14-link" transform="translate(0.430977, 0.430977)" fill="#E1E9EC" fill-rule="nonzero">
                        <circle id="path-14" cx="15.0841751" cy="15.0841751" r="15.0841751"></circle>
                    </g>
                    <circle id="Oval" stroke="#93A0B0" cx="15.5151515" cy="15.5151515" r="15.5151515"></circle>
                </g>
                <path d="M7.10836386,28.0413298 C9.5105157,29.6566881 12.4027512,30.5993266 15.5151517,30.5993266 C23.8459114,30.5993266 30.5993267,23.8459114 30.5993267,15.5151515 C30.5993267,8.92162132 26.3688414,3.31617395 20.474128,1.26506756 C24.5016602,3.97343395 27.1515153,8.5728864 27.1515153,13.7912458 C27.1515153,22.1220057 20.3981,28.8754209 12.0673402,28.8754209 C10.3301106,28.8754209 8.66147268,28.5817449 7.10836386,28.0413298 Z" id="Combined-Shape" fill="#FFFFFF" fill-rule="nonzero"></path>
                <g id="Group-4" transform="translate(9.050506, 7.326600)" fill="#93A0B0" fill-rule="nonzero">
                    <path d="M2.48699027,15.5151515 C3.73838398,15.5151515 4.40271338,14.3829289 4.5980791,13.7140466 C4.60119549,13.7034864 4.60409697,13.6927085 4.60678352,13.681713 C5.06199208,11.7716316 5.78714491,8.74424242 6.3243469,6.54217831 L8.24641027,6.54217831 C8.6078046,6.54217831 8.90085314,6.24540534 8.90085314,5.87917487 C8.90085314,5.5129444 8.6078046,5.21617143 8.24641027,5.21617143 L6.64963404,5.21617143 C6.82157307,4.52235847 6.94741094,4.02820861 6.99695087,3.85957275 L7.05197136,3.6707964 C7.2548594,2.96936271 7.72994842,1.32633349 8.46466536,1.32633349 C9.14597374,1.32633349 9.24752524,2.38931635 9.25214608,2.44070184 C9.28116079,2.80464609 9.5945197,3.07953668 9.95462447,3.04807396 C10.3150516,3.02020386 10.584781,2.70111304 10.5569483,2.33618898 C10.4958025,1.52806508 9.97923323,0 8.46445044,0 C6.74925122,0 6.10533957,2.22721255 5.79595679,3.29781614 L5.74330046,3.47842743 C5.68043526,3.6902837 5.51548126,4.34305359 5.30034255,5.21617143 L3.01054461,5.21617143 C2.64904281,5.21617143 2.35610169,5.5129444 2.35610169,5.87917487 C2.35610169,6.24540534 2.64904281,6.54217831 3.01054461,6.54217831 L4.97613003,6.54217831 C4.30417083,9.30327738 3.4357713,12.9452239 3.34023768,13.3461831 C3.30456033,13.4512403 3.03622799,14.1890357 2.48731266,14.1890357 C1.64910992,14.1890357 1.28621112,12.9971537 1.28330965,12.9882265 C1.18272532,12.6366932 0.820686209,12.4332197 0.472617148,12.535773 C0.125515243,12.6377819 -0.0745787957,13.0054277 0.0260055332,13.3571787 C0.255006821,14.1585529 1.03077421,15.5151515 2.48699027,15.5151515 Z" id="Shape"></path>
                    <path d="M11.4262554,13.9636364 C11.7746055,13.9636364 12.0673401,13.660004 12.0673401,13.1766221 C12.0673401,12.9520843 11.9941565,12.749464 11.8383743,12.5245688 L10.610947,10.7933043 L11.8019766,9.08443393 C11.9118491,8.91576242 11.9941565,8.73589389 11.9941565,8.49980155 C11.9941565,8.07216705 11.7100603,7.75757576 11.3435598,7.75757576 C11.0963466,7.75757576 10.9041668,7.94864143 10.7389699,8.19640737 L9.81388602,9.67990605 L8.90704963,8.19616914 C8.7236052,7.91540743 8.53152247,7.75757576 8.25674413,7.75757576 C7.90829688,7.75757576 7.6154653,8.0614464 7.6154653,8.54482824 C7.6154653,8.76936611 7.68884304,8.97198632 7.84423694,9.19652418 L8.98945396,10.8155794 L7.73426737,12.6367782 C7.61517411,12.8054497 7.54208754,12.9853182 7.54208754,13.2214106 C7.54208754,13.648926 7.82608662,13.9633981 8.19229595,13.9633981 C8.43970321,13.9633981 8.63198013,13.7723325 8.79688594,13.5248048 L9.78593263,11.9286202 L10.7752705,13.5248048 C10.9591031,13.8062812 11.1514771,13.9636364 11.4262554,13.9636364 Z" id="Shape"></path>
                </g>
            </g>
        </g>
    </g>
</svg>