<?xml version="1.0" encoding="UTF-8"?>
<svg width="893px" height="1223px" viewBox="0 0 893 1223" version="1.1" xmlns="http://www.w3.org/2000/svg" xmlns:xlink="http://www.w3.org/1999/xlink">
    <title>create-sprite-active</title>
    <g id="Page-1" stroke="none" stroke-width="1" fill="none" fill-rule="evenodd">
        <g id="create-sprite-active">
            <g id="Shape_1_copy_6_" transform="translate(816.000000, 282.000000)" fill="#F1F4F6" fill-rule="nonzero">
                <polygon id="Shape_211_" points="25 0 25 25 0 25 0 30 30 30 30 0"></polygon>
            </g>
            <path d="M811,277 L811,307 L842,307 L842,277 L811,277 Z M840,305 L813,305 L813,279 L840,279 L840,305 Z" id="Shape_212_" fill="#3987D9" fill-rule="nonzero"></path>
            <path d="M856,239 L846,239 L846,240 L856,240 L856,239 Z M856,249 L846,249 L846,250 L856,250 L856,249 Z M856,244 L856,245 L862,245 L862,244 L856,244 Z M670,318 L701,318 L701,320 L670,320 L670,318 Z M829,318 L862,318 L862,320 L829,320 L829,318 Z M829,190 L703,190 C701.9,190 701,190.9 701,192 L701,201 L703,201 L703,194 C703,192.9 703.9,192 705,192 L827,192 C828.1,192 829,192.9 829,194 L829,277 L831,277 L831,192 C831,190.9 830.1,190 829,190 Z M703,317.9 L703,206 L701,206 L701,320 L784,320 L784,318 L703,317.9 C703,318 703,318 703,317.9 Z M790,320 L829,320 L829,318 L790,318 L790,320 Z" id="Shape_213_" fill="#3987D9" fill-rule="nonzero"></path>
            <rect id="Rectangle-path_122_" fill="#3987D9" fill-rule="nonzero" x="829" y="312" width="2" height="6"></rect>
            <path d="M782.43381,219.874792 L792.872865,219.874792 C796.186574,219.874792 798.872865,222.561084 798.872865,225.874792 L798.872865,278.884095 C798.872865,282.197803 796.186574,284.884095 792.872865,284.884095 L739.872865,284.884095 C736.559157,284.884095 733.872865,282.197803 733.872865,278.884095 C733.872865,277.909594 733.872865,277.178719 733.872865,276.691468 C733.872865,275.882352 733.872865,275.044248 733.872865,274.177158 C733.872865,273.539615 733.872865,272.839678 733.872865,272.077348 C733.872865,266.615084 733.872865,251.214232 733.872865,225.874792 C733.872865,222.561084 736.559157,219.874792 739.872865,219.874792 L779.806124,219.874792" id="Rectangle-12-Copy" stroke="#3987D9" stroke-linecap="round" stroke-linejoin="round" transform="translate(766.372865, 252.379443) rotate(45.000000) translate(-766.372865, -252.379443) "></path>
            <g id="Combined-Shape" transform="translate(760.896077, 234.521708) rotate(45.000000) translate(-760.896077, -234.521708) translate(744.396077, 210.271708)">
                <g id="path-1-link" fill="#DCE9F6" fill-rule="nonzero">
                    <path d="M33,22.005256 L33,33 L21.714285,33 L20.039676,36.907423 C21.538751,38.098156 22.5,39.936822 22.5,42 C22.5,45.589851 19.589851,48.5 16,48.5 C12.410149,48.5 9.5,45.589851 9.5,42 C9.5,39.936822 10.461248,38.098156 11.960324,36.907423 L10.285714,33 L1.77635684e-15,33 L1.77635684e-15,7 C1.77635684e-15,3.134007 3.134007,-2.77555756e-16 7,-2.77555756e-16 L33,-2.77555756e-16 L33,11.009926 L28.538415,13.240718 C27.469213,11.591268 25.612046,10.5 23.5,10.5 C20.186291,10.5 17.5,13.186292 17.5,16.5 C17.5,19.813709 20.186291,22.5 23.5,22.5 C25.58653,22.5 27.424302,21.434941 28.499319,19.818819 L28.516504,19.830246 L33,22.005256 Z" id="path-1"></path>
                </g>
                <path d="M32.5,22.318112 L28.66137,20.451655 C27.444619,22.039998 25.553511,23 23.5,23 C19.910149,23 17,20.089851 17,16.5 C17,12.910149 19.910149,10 23.5,10 C25.576864,10 27.486754,10.982086 28.700915,12.600451 L32.5,10.700909 L32.5,0.5 L7,0.5 C3.410149,0.5 0.5,3.410149 0.5,7 L0.5,32.5 L10.615412,32.5 L12.570315,37.06144 L12.271312,37.298942 C10.846321,38.430829 10,40.145261 10,42 C10,45.313709 12.686291,48 16,48 C19.313708,48 22,45.313709 22,42 C22,40.145261 21.153679,38.430829 19.728688,37.298942 L19.429685,37.06144 L21.384587,32.5 L32.5,32.5 L32.5,22.318112 Z" id="Shape" stroke="#3987D9"></path>
            </g>
            <path d="M755.174615,282.71332 L759.658111,280.538311 L759.675296,280.526884 C760.750313,282.143006 762.588085,283.208065 764.674615,283.208065 C767.988324,283.208065 770.674615,280.521774 770.674615,277.208065 C770.674615,273.894357 767.988324,271.208065 764.674615,271.208065 C762.562569,271.208065 760.705402,272.299333 759.6362,273.948783 L755.174615,271.71799 L755.174615,260.708065 L767.396838,260.708065 L768.366439,256.34486 C767.028137,255.24444 766.174615,253.575928 766.174615,251.708065 C766.174615,248.394357 768.860907,245.708065 772.174615,245.708065 C775.488324,245.708065 778.174615,248.394357 778.174615,251.708065 C778.174615,253.575928 777.321094,255.24444 775.982792,256.34486 L776.952393,260.708065 L788.198273,260.708065 L788.198273,287.711955 C788.198273,291.025663 785.511981,293.711955 782.198273,293.711955 L755.174615,293.711955 L755.174615,282.71332 Z" id="Combined-Shape" stroke="#3987D9" fill="#DCE9F6" fill-rule="nonzero" transform="translate(771.686444, 269.710010) rotate(45.000000) translate(-771.686444, -269.710010) "></path>
            <path d="M833.741379,295.12069 L825.982759,295.12069 C824.275862,295.12069 822.87931,293.724138 822.87931,292.017241 L822.87931,284.258621" id="Shape" stroke="#3987D9" stroke-width="2"></path>
            <polyline id="Shape" stroke="#3987D9" stroke-width="2" stroke-linecap="square" points="830.12069 291.5 833.741379 295.12069 830.12069 298.741379"></polyline>
            <polyline id="Shape" stroke="#3987D9" stroke-width="2" stroke-linecap="square" points="819.258621 287.87931 822.87931 284.258621 826.5 287.87931"></polyline>
            <rect id="Rectangle-path" fill="#DCE9F6" fill-rule="nonzero" x="49" y="23" width="98" height="15"></rect>
            <rect id="Rectangle-path" fill="#3987D9" fill-rule="nonzero" x="1" y="128" width="35.2" height="2"></rect>
            <rect id="Rectangle-path" fill="#3987D9" fill-rule="nonzero" x="164" y="128" width="37" height="2"></rect>
            <g id="Rounded_Rectangle_1_12_" transform="translate(36.000000, 0.000000)" fill="#3987D9" fill-rule="nonzero">
                <path d="M128,0 L2,0 C0.9,0 0,0.9 0,2 L0,11 L2,11 C2,6.6 2,4 2,4 C2,2.9 2.9,2 4,2 L126,2 C127.1,2 128,2.9 128,4 L128,98 L130,98 L130,2 C130,0.9 129.1,0 128,0 Z M2,127.9 C2,122.9 2,46.2 2,16 L0,16 L0,130 L83,130 L83,128 L2,127.9 C2,128 2,128 2,127.9 Z M89,130 L128,130 L128,128 L89,128 L89,130 Z" id="Shape"></path>
            </g>
            <g id="Shape_3_8_" transform="translate(141.991004, 91.280785)" fill="#DCE9F6" fill-rule="nonzero">
                <path d="M22.0089963,5.71921535 L22.0089963,0.0192153499 C22.0089963,0.0192153499 2.50899625,-1.38078465 0.00899625156,19.7192153 C0.00899625156,19.7192153 -0.591003748,32.1192153 8.00899625,36.7192153 L17.6089963,36.7192153 C17.6089963,36.7192153 7.40899625,34.5192153 7.30899625,18.9192153 C7.20899625,18.9192153 9.80899625,6.71921535 22.0089963,5.71921535 Z" id="Shape"></path>
            </g>
            <g id="Ellipse_1_14_" transform="translate(149.000000, 97.000000)" fill="#3987D9" fill-rule="nonzero">
                <path d="M30.8,10 L28.7,10 C29.6,11.8 30.1,13.9 30.1,16 C30.1,23.8 23.8,30.1 16,30.1 C8.2,30.1 1.9,23.8 1.9,16 C1.9,8.2 8.2,1.9 16,1.9 C19,1.9 21.7,2.8 24,4.4 L24,2.2 C21.6,0.8 18.9,0 16,0 C7.2,0 -5.68434189e-14,7.2 -5.68434189e-14,16 C-5.68434189e-14,24.8 7.2,32 16,32 C24.8,32 32,24.8 32,16 C32,13.9 31.6,11.9 30.8,10 Z" id="Shape"></path>
            </g>
            <polygon id="Shape" fill="#3987D9" fill-rule="nonzero" points="160.8 118.8 156.2 112.3 157.8 111.1 161.2 115.8 180.5 99.2 181.9 100.8"></polygon>
            <rect id="Rectangle-path" fill="#3987D9" fill-rule="nonzero" x="232" y="128" width="35.2" height="2"></rect>
            <rect id="Rectangle-path" fill="#3987D9" fill-rule="nonzero" x="395" y="128" width="37" height="2"></rect>
            <g id="Rounded_Rectangle_1_1_" transform="translate(267.000000, 0.000000)" fill="#3987D9" fill-rule="nonzero">
                <path d="M128,0 L2,0 C0.9,0 0,0.9 0,2 L0,11 L2,11 C2,6.6 2,4 2,4 C2,2.9 2.9,2 4,2 L126,2 C127.1,2 128,2.9 128,4 L128,98 L130,98 L130,2 C130,0.9 129.1,0 128,0 Z M2,127.9 C2,122.9 2,46.2 2,16 L0,16 L0,130 L83,130 L83,128 L2,127.9 C2,128 2,128 2,127.9 Z M89,130 L128,130 L128,128 L89,128 L89,130 Z" id="Shape"></path>
            </g>
            <g id="Shape_3_1_" transform="translate(372.991004, 91.280785)" fill="#DCE9F6" fill-rule="nonzero">
                <path d="M22.0089963,5.71921535 L22.0089963,0.0192153499 C22.0089963,0.0192153499 2.50899625,-1.38078465 0.00899625156,19.7192153 C0.00899625156,19.7192153 -0.591003748,32.1192153 8.00899625,36.7192153 L17.6089963,36.7192153 C17.6089963,36.7192153 7.40899625,34.5192153 7.30899625,18.9192153 C7.20899625,18.9192153 9.80899625,6.71921535 22.0089963,5.71921535 Z" id="Shape"></path>
            </g>
            <g id="Ellipse_1_1_" transform="translate(380.000000, 97.000000)" fill="#3987D9" fill-rule="nonzero">
                <path d="M30.8,10 L28.7,10 C29.6,11.8 30.1,13.9 30.1,16 C30.1,23.8 23.8,30.1 16,30.1 C8.2,30.1 1.9,23.8 1.9,16 C1.9,8.2 8.2,1.9 16,1.9 C19,1.9 21.7,2.8 24,4.4 L24,2.2 C21.6,0.8 18.9,0 16,0 C7.2,0 -1.13686838e-13,7.2 -1.13686838e-13,16 C-1.13686838e-13,24.8 7.2,32 16,32 C24.8,32 32,24.8 32,16 C32,13.9 31.6,11.9 30.8,10 Z" id="Shape"></path>
            </g>
            <g id="Shape" transform="translate(292.000000, 107.200000)">
                <path d="M26,4.8 L0,4.8 L26,4.8 Z" id="Path"></path>
                <g id="Group" transform="translate(93.900000, 0.000000)" fill="#3987D9" fill-rule="nonzero">
                    <path d="M-3.33066907e-16,5.4 L5.6,2.5 L5.6,3.7 C5.6,3.8 5.6,3.9 5.5,4 C5.5,4.1 5.4,4.1 5.3,4.2 L2.8,5.5 C2.7,5.6 2.6,5.6 2.5,5.6 C2.4,5.6 2.3,5.7 2.1,5.7 C2.4,5.8 2.6,5.8 2.8,6 L5.3,7.3 C5.4,7.4 5.5,7.4 5.5,7.5 C5.5,7.6 5.6,7.7 5.6,7.8 L5.6,9 L-3.33066907e-16,6.1 L-3.33066907e-16,5.4 Z" id="Shape"></path>
                    <path d="M9.1,10.5 C9,10.7 8.9,10.9 8.7,11 C8.5,11.1 8.3,11.2 8.2,11.2 L7.5,11.2 L11.6,0.7 C11.7,0.5 11.8,0.4 11.9,0.2 C12.1,0.1 12.2,-1.66533454e-16 12.4,-1.66533454e-16 L13.1,-1.66533454e-16 L9.1,10.5 Z" id="Shape"></path>
                    <path d="M20.6,6.1 L15,9 L15,7.8 C15,7.7 15,7.6 15.1,7.5 C15.1,7.4 15.2,7.4 15.3,7.3 L17.8,6 C18,5.9 18.2,5.8 18.5,5.7 C18.4,5.7 18.2,5.6 18.1,5.6 C18,5.6 17.9,5.5 17.8,5.5 L15.3,4.2 C15.2,4.1 15.1,4.1 15.1,4 C15.1,3.9 15,3.8 15,3.7 L15,2.5 L20.6,5.4 L20.6,6.1 Z" id="Shape"></path>
                </g>
            </g>
            <g id="Group" transform="translate(281.000000, 14.000000)" fill-rule="nonzero">
                <g id="Rounded_Rectangle_2">
                    <path d="M2,31.5 C1.2,31.5 0.5,30.8 0.5,30 L0.5,2 C0.5,1.2 1.2,0.5 2,0.5 L47,0.5 C47.8,0.5 48.5,1.2 48.5,2 L48.5,30 C48.5,30.8 47.8,31.5 47,31.5 L2,31.5 Z" id="Shape" fill="#DCE9F6"></path>
                    <path d="M47,1 C47.6,1 48,1.4 48,2 L48,30 C48,30.6 47.6,31 47,31 L2,31 C1.4,31 1,30.6 1,30 L1,2 C1,1.4 1.4,1 2,1 L47,1 Z M47,0 L2,0 C0.9,0 0,0.9 0,2 L0,30 C0,31.1 0.9,32 2,32 L47,32 C48.1,32 49,31.1 49,30 L49,2 C49,0.9 48.1,0 47,0 Z" id="Shape" fill="#3987D9"></path>
                </g>
                <g id="Rounded_Rectangle_2_copy" transform="translate(41.000000, 69.000000)">
                    <path d="M2,28.5 C1.2,28.5 0.5,27.8 0.5,27 L0.5,2 C0.5,1.2 1.2,0.5 2,0.5 L42,0.5 C42.8,0.5 43.5,1.2 43.5,2 L43.5,27 C43.5,27.8 42.8,28.5 42,28.5 L2,28.5 Z" id="Shape" fill="#DCE9F6"></path>
                    <path d="M42,1 C42.6,1 43,1.4 43,2 L43,27 C43,27.6 42.6,28 42,28 L2,28 C1.4,28 1,27.6 1,27 L1,2 C1,1.4 1.4,1 2,1 L42,1 Z M42,0 L2,0 C0.9,0 0,0.9 0,2 L0,27 C0,28.1 0.9,29 2,29 L42,29 C43.1,29 44,28.1 44,27 L44,2 C44,0.9 43.1,0 42,0 Z" id="Shape" fill="#3987D9"></path>
                </g>
                <g id="Shape_8" transform="translate(0.000000, 12.000000)">
                    <path d="M2,19.5 C1.2,19.5 0.5,18.8 0.5,18 L0.5,10.2 L11,0.7 L21,10.7 L28,2.7 L38.9,13.6 L48.5,8.8 L48.5,18 C48.5,18.8 47.8,19.5 47,19.5 L2,19.5 Z" id="Shape" fill="#57A9FF"></path>
                    <path d="M11,1.4 L20.3,10.7 L21.1,11.5 L21.8,10.7 L28.1,3.5 L38.3,13.7 L38.8,14.2 L39.4,13.9 L48,9.6 L48,16 L48,17 L48,18 C48,18.6 47.6,19 47,19 L2,19 C1.4,19 1,18.6 1,18 L1,17 L1,16 L1,11 L1,10.4 L11,1.4 Z M11,0 L0,10 L0,11 L0,16 L0,17 L0,18 C0,19.1 0.9,20 2,20 L47,20 C48.1,20 49,19.1 49,18 L49,17 L49,16 L49,8 L39,13 L28,2 L21,10 L11,0 Z" id="Shape" fill="#3987D9"></path>
                </g>
                <g id="Rectangle_1_copy_2" transform="translate(58.000000, 3.000000)" fill="#DCE9F6">
                    <path d="M0,0 L0,4 L43,4 L43,0 L0,0 Z M0,12 L36,12 L36,8 L0,8 L0,12 Z M0,20 L28,20 L28,16 L0,16 L0,20 Z" id="Shape"></path>
                </g>
                <g id="Rectangle_1_copy_3" transform="translate(0.000000, 71.000000)" fill="#DCE9F6">
                    <path d="M0,0 L0,4 L33,4 L33,0 L0,0 Z M0,12 L26,12 L26,8 L0,8 L0,12 Z M0,20 L18,20 L18,16 L0,16 L0,20 Z" id="Shape"></path>
                </g>
                <g id="Rectangle_1" transform="translate(0.000000, 42.000000)">
                    <rect id="Rectangle-path" fill="#DCE9F6" x="0.5" y="0.5" width="29" height="14"></rect>
                    <path d="M29,1 L29,14 L1,14 L1,1 L29,1 Z M30,0 L0,0 L0,15 L30,15 L30,0 Z" id="Shape" fill="#3987D9"></path>
                </g>
                <g id="Rectangle_1_copy" transform="translate(37.000000, 42.000000)">
                    <rect id="Rectangle-path" fill="#DCE9F6" x="0.5" y="0.5" width="65" height="14"></rect>
                    <path d="M65,1 L65,14 L1,14 L1,1 L65,1 Z M66,0 L0,0 L0,15 L66,15 L66,0 Z" id="Shape" fill="#3987D9"></path>
                </g>
                <g id="Ellipse_2" transform="translate(37.200000, 6.200000)">
                    <circle id="Oval" fill="#FFFFFF" cx="3.3" cy="3.3" r="2.8"></circle>
                    <path d="M3.3,1 C4.6,1 5.6,2 5.6,3.3 C5.6,4.6 4.6,5.6 3.3,5.6 C2,5.6 1,4.6 1,3.3 C1,2 2,1 3.3,1 Z M3.3,-1.66533454e-16 C1.5,-1.66533454e-16 -1.66533454e-16,1.5 -1.66533454e-16,3.3 C-1.66533454e-16,5.1 1.5,6.6 3.3,6.6 C5.1,6.6 6.6,5.1 6.6,3.3 C6.6,1.5 5.1,-1.66533454e-16 3.3,-1.66533454e-16 Z" id="Shape" fill="#93A1B0"></path>
                </g>
                <g id="Ellipse_2_copy" transform="translate(54.500000, 75.500000)">
                    <path d="M8,15.5 C3.9,15.5 0.5,12.1 0.5,8 C0.5,3.9 3.9,0.5 8,0.5 C12.1,0.5 15.5,3.9 15.5,8 C15.5,12.1 12.1,15.5 8,15.5 Z" id="Shape" fill="#FFFFFF"></path>
                    <path d="M8,1 C11.9,1 15,4.1 15,8 C15,11.9 11.9,15 8,15 C4.1,15 1,11.9 1,8 C1,4.1 4.1,1 8,1 Z M8,0 C3.6,0 0,3.6 0,8 C0,12.4 3.6,16 8,16 C12.4,16 16,12.4 16,8 C16,3.6 12.4,0 8,0 Z" id="Shape" fill="#3987D9"></path>
                </g>
                <g id="Shape_9" transform="translate(60.700000, 80.000000)">
                    <polygon id="Shape" fill="#FFFFFF" points="0.5 0.9 5.6 4 0.5 7.1"></polygon>
                    <path d="M1,1.8 L4.7,4 L1,6.2 L1,1.8 Z M-2.22044605e-16,0 L-2.22044605e-16,7.9 L6.6,3.9 L-2.22044605e-16,0 Z" id="Shape" fill="#3987D9"></path>
                </g>
                <g id="Rectangle_3" transform="translate(62.400000, 79.300000)" fill="#FFFFFF">
                    <rect id="Rectangle-path" x="-1.11022302e-16" y="1.66533454e-16" width="1.4" height="4"></rect>
                </g>
                <g id="Rectangle_2" transform="translate(12.000000, 0.000000)" fill="#FFFFFF">
                    <rect id="Rectangle-path" x="0" y="0" width="3" height="1"></rect>
                </g>
                <g id="Rectangle_2_copy" transform="translate(75.000000, 97.000000)" fill="#FFFFFF">
                    <rect id="Rectangle-path" x="0" y="0" width="3" height="1"></rect>
                </g>
            </g>
            <g id="Rectangle_2_copy_2_" transform="translate(383.000000, 64.000000)" fill="#FFFFFF" fill-rule="nonzero">
                <rect id="Rectangle-path" x="0" y="0" width="2" height="3"></rect>
            </g>
            <rect id="Rectangle-path" fill="#3987D9" fill-rule="nonzero" x="462" y="128" width="35.2" height="2"></rect>
            <rect id="Rectangle-path" fill="#3987D9" fill-rule="nonzero" x="625" y="128" width="37" height="2"></rect>
            <g id="Rounded_Rectangle_1_4_" transform="translate(497.000000, 0.000000)" fill="#3987D9" fill-rule="nonzero">
                <path d="M128,0 L2,0 C0.9,0 0,0.9 0,2 L0,11 L2,11 C2,6.6 2,4 2,4 C2,2.9 2.9,2 4,2 L126,2 C127.1,2 128,2.9 128,4 L128,98 L130,98 L130,2 C130,0.9 129.1,0 128,0 Z M2,127.9 C2,122.9 2,46.2 2,16 L0,16 L0,130 L83,130 L83,128 L2,127.9 C2,128 2,128 2,127.9 Z M89,130 L128,130 L128,128 L89,128 L89,130 Z" id="Shape"></path>
            </g>
            <g id="Shape_3_3_" transform="translate(602.991004, 91.280785)" fill="#DCE9F6" fill-rule="nonzero">
                <path d="M22.0089963,5.71921535 L22.0089963,0.0192153499 C22.0089963,0.0192153499 2.50899625,-1.38078465 0.00899625156,19.7192153 C0.00899625156,19.7192153 -0.591003748,32.1192153 8.00899625,36.7192153 L17.6089963,36.7192153 C17.6089963,36.7192153 7.40899625,34.5192153 7.30899625,18.9192153 C7.20899625,18.9192153 9.80899625,6.71921535 22.0089963,5.71921535 Z" id="Shape"></path>
            </g>
            <g id="Ellipse_1_3_" transform="translate(610.000000, 97.000000)" fill="#3987D9" fill-rule="nonzero">
                <path d="M30.8,10 L28.7,10 C29.6,11.8 30.1,13.9 30.1,16 C30.1,23.8 23.8,30.1 16,30.1 C8.2,30.1 1.9,23.8 1.9,16 C1.9,8.2 8.2,1.9 16,1.9 C19,1.9 21.7,2.8 24,4.4 L24,2.2 C21.6,0.8 18.9,0 16,0 C7.2,0 -1.13686838e-13,7.2 -1.13686838e-13,16 C-1.13686838e-13,24.8 7.2,32 16,32 C24.8,32 32,24.8 32,16 C32,13.9 31.6,11.9 30.8,10 Z" id="Shape"></path>
            </g>
            <polygon id="Shape" fill="#3987D9" fill-rule="nonzero" points="593.1 111.5 592.1 111.5 592.1 17 567.1 17 567.1 84.8 566.1 84.8 566.1 16 593.1 16"></polygon>
            <path d="M573,101.4 L572,101.4 L572,35 L547.1,35 L547.1,43.5 L546.1,43.5 L546.1,34 L573,34 L573,101.4 Z M547.1,98.7 L546.1,98.7 L546.1,46.6 L547.1,46.6 L547.1,98.7 Z" id="Shape" fill="#3987D9" fill-rule="nonzero"></path>
            <polygon id="Shape" fill="#3987D9" fill-rule="nonzero" points="527.1 111.2 526.1 111.2 526.1 58.8 553.1 58.8 553.1 103.3 552.1 103.3 552.1 59.8 527.1 59.8"></polygon>
            <rect id="Rectangle-path" fill="#3987D9" fill-rule="nonzero" x="508.6" y="16.5" width="50.8" height="1"></rect>
            <rect id="Rectangle-path" fill="#3987D9" fill-rule="nonzero" x="508.6" y="27.5" width="50.8" height="1"></rect>
            <rect id="Rectangle-path" fill="#3987D9" fill-rule="nonzero" x="508.6" y="36.5" width="26.5" height="1"></rect>
            <rect id="Rectangle-path" fill="#3987D9" fill-rule="nonzero" x="508.6" y="46.5" width="26.5" height="1"></rect>
            <rect id="Rectangle-path" fill="#3987D9" fill-rule="nonzero" x="508.5" y="56.5" width="10" height="1"></rect>
            <rect id="Rectangle-path" fill="#3987D9" fill-rule="nonzero" x="508.5" y="66.5" width="10" height="1"></rect>
            <rect id="Rectangle-path" fill="#3987D9" fill-rule="nonzero" x="508.5" y="76.5" width="10" height="1"></rect>
            <rect id="Rectangle-path" fill="#3987D9" fill-rule="nonzero" x="508.5" y="86.5" width="10" height="1"></rect>
            <rect id="Rectangle-path" fill="#3987D9" fill-rule="nonzero" x="508.5" y="96.5" width="10" height="1"></rect>
            <rect id="Rectangle-path" fill="#3987D9" fill-rule="nonzero" x="600.7" y="17.5" width="14.2" height="1"></rect>
            <rect id="Rectangle-path" fill="#3987D9" fill-rule="nonzero" x="600.7" y="27.5" width="14.2" height="1"></rect>
            <rect id="Rectangle-path" fill="#3987D9" fill-rule="nonzero" x="600.7" y="37.5" width="14.2" height="1"></rect>
            <rect id="Rectangle-path" fill="#3987D9" fill-rule="nonzero" x="600.7" y="47.5" width="14.2" height="1"></rect>
            <rect id="Rectangle-path" fill="#3987D9" fill-rule="nonzero" x="600.7" y="57.5" width="14.2" height="1"></rect>
            <rect id="Rectangle-path" fill="#3987D9" fill-rule="nonzero" x="600.7" y="67.5" width="14.2" height="1"></rect>
            <rect id="Rectangle-path" fill="#3987D9" fill-rule="nonzero" x="600.7" y="77.5" width="14.2" height="1"></rect>
            <polygon id="Shape" fill="#3987D9" fill-rule="nonzero" points="612.4 116.4 611.2 114.8 621.1 106.6 629.2 110.8 643 97.7 644.4 99.1 629.6 113.2 621.3 109"></polygon>
            <rect id="Rectangle-path" fill="#3987D9" fill-rule="nonzero" x="693" y="128" width="35.2" height="2"></rect>
            <rect id="Rectangle-path" fill="#3987D9" fill-rule="nonzero" x="856" y="128" width="37" height="2"></rect>
            <g id="Rounded_Rectangle_1_6_" transform="translate(728.000000, 0.000000)" fill="#3987D9" fill-rule="nonzero">
                <path d="M128,0 L2,0 C0.9,0 0,0.9 0,2 L0,11 L2,11 C2,6.6 2,4 2,4 C2,2.9 2.9,2 4,2 L126,2 C127.1,2 128,2.9 128,4 L128,98 L130,98 L130,2 C130,0.9 129.1,0 128,0 Z M2,127.9 C2,122.9 2,46.2 2,16 L0,16 L0,130 L83,130 L83,128 L2,127.9 C2,128 2,128 2,127.9 Z M89,130 L128,130 L128,128 L89,128 L89,130 Z" id="Shape"></path>
            </g>
            <g id="Shape_3_5_" transform="translate(833.991004, 91.280785)" fill="#DCE9F6" fill-rule="nonzero">
                <path d="M22.0089963,5.71921535 L22.0089963,0.0192153499 C22.0089963,0.0192153499 2.50899625,-1.38078465 0.00899625156,19.7192153 C0.00899625156,19.7192153 -0.591003748,32.1192153 8.00899625,36.7192153 L17.6089963,36.7192153 C17.6089963,36.7192153 7.40899625,34.5192153 7.30899625,18.9192153 C7.20899625,18.9192153 9.80899625,6.71921535 22.0089963,5.71921535 Z" id="Shape"></path>
            </g>
            <g id="Ellipse_1_5_" transform="translate(841.000000, 97.000000)" fill="#3987D9" fill-rule="nonzero">
                <path d="M30.8,10 L28.7,10 C29.6,11.8 30.1,13.9 30.1,16 C30.1,23.8 23.8,30.1 16,30.1 C8.2,30.1 1.9,23.8 1.9,16 C1.9,8.2 8.2,1.9 16,1.9 C19,1.9 21.7,2.8 24,4.4 L24,2.2 C21.6,0.8 18.9,0 16,0 C7.2,0 2.27373675e-13,7.2 2.27373675e-13,16 C2.27373675e-13,24.8 7.2,32 16,32 C24.8,32 32,24.8 32,16 C32,13.9 31.6,11.9 30.8,10 Z" id="Shape"></path>
            </g>
            <path d="M795.9,86.2 L794.9,86.2 L794.9,57.7 L818.1,57.7 L818.1,23.3 L772,23.3 L772,50.1 L784.5,50.1 L784.5,51.1 L771,51.1 L771,22.3 L819.1,22.3 L819.1,58.7 L795.9,58.7 L795.9,86.2 Z M809.4,51.1 L792.4,51.1 L792.4,50.1 L809.4,50.1 L809.4,51.1 Z" id="Shape" fill="#3987D9" fill-rule="nonzero"></path>
            <rect id="Rectangle-path" fill="#3987D9" fill-rule="nonzero" x="758.5" y="71.8" width="73.7" height="1"></rect>
            <rect id="Rectangle-path" fill="#3987D9" fill-rule="nonzero" x="743.5" y="36.8" width="10" height="1"></rect>
            <polygon id="Shape" fill="#3987D9" fill-rule="nonzero" points="834 99.3 820 99.3 820 93.7 821 93.7 821 98.3 833 98.3 833 86.9 821 86.9 821 90.3 820 90.3 820 85.9 821 85.9 821 85.9 834 85.9"></polygon>
            <rect id="Rectangle-path" fill="#3987D9" fill-rule="nonzero" x="753.5" y="31.8" width="10" height="1"></rect>
            <rect id="Rectangle-path" fill="#3987D9" fill-rule="nonzero" x="743.5" y="25.8" width="10" height="1"></rect>
            <path d="M841.4,50.7 C840.8,50.7 840.2,50.6 839.5,50.5 C837.7,50 836.2,48.8 835.2,47.2 C833.3,43.9 834.4,39.6 837.8,37.6 C841.1,35.7 845.4,36.8 847.4,40.2 C848.1,41.3 848.5,42.7 848.4,44.1 L847.4,44 C847.5,42.9 847.2,41.7 846.6,40.7 C844.9,37.8 841.2,36.8 838.4,38.5 C835.5,40.2 834.5,43.9 836.2,46.7 C837,48.1 838.3,49.1 839.9,49.5 C841.5,49.9 843.1,49.7 844.5,48.9 C845.3,48.4 845.9,47.8 846.5,47.1 L847.3,47.7 C846.7,48.5 846,49.2 845.1,49.7 C843.8,50.4 842.6,50.7 841.4,50.7 Z" id="Shape" fill="#3987D9" fill-rule="nonzero"></path>
            <path d="M833.5,22.3 C833.2,22.3 832.9,22.3 832.6,22.2 C831.7,22 830.9,21.4 830.5,20.6 C830.2,19.9 830,19.4 830,18.7 L831,18.7 C831,19.3 831.1,19.7 831.3,20.2 C831.6,20.7 832.2,21.1 832.8,21.3 C833.5,21.5 834.1,21.4 834.7,21.1 C835.3,20.8 835.7,20.2 835.8,19.6 C836,18.9 835.9,18.3 835.6,17.7 C835.3,17.1 834.7,16.7 834.1,16.6 C833.4,16.4 832.8,16.5 832.2,16.8 C831.9,17 831.6,17.2 831.4,17.6 L830.6,17 C831,16.5 831.3,16.2 831.8,16 C832.6,15.6 833.5,15.4 834.4,15.7 C835.3,15.9 836.1,16.5 836.5,17.3 C836.9,18.1 837.1,19 836.8,20 C836.6,20.9 836,21.7 835.2,22.1 C834.7,22.1 834.1,22.3 833.5,22.3 Z" id="Shape" fill="#3987D9" fill-rule="nonzero"></path>
            <path d="M859.2,119.2 L851,119.2 L851,117.2 L857.2,117.2 L857.3,112.9 L859.3,112.9 L859.2,119.2 Z M859.2,109.2 L857.2,109.2 L857.3,104 L873.1,102.6 L873.3,104.6 L859.3,105.8 L859.2,109.2 Z" id="Shape" fill="#3987D9" fill-rule="nonzero"></path>
            <g id="zc-blank" transform="translate(1.000000, 190.000000)" fill-rule="nonzero">
                <g id="Shape_1_copy" transform="translate(146.000000, 92.000000)" fill="#DCE9F6">
                    <polygon id="Shape_126_" points="25 0 25 25 0 25 0 30 30 30 30 0"></polygon>
                </g>
                <g id="Blank_4_" transform="translate(141.000000, 87.000000)" fill="#3987D9">
                    <path d="M0,0 L0,30 L31,30 L31,0 L0,0 Z M29,28 L2,28 L2,2 L29,2 L29,28 Z" id="Shape_127_"></path>
                </g>
                <g id="Blank" fill="#3987D9">
                    <path d="M155,110 L157,110 L157,103 L164,103 L164,101 L157,101 L157,94 L155,94 L155,101 L148,101 L148,103 L155,103 L155,110 Z M186,49 L176,49 L176,50 L186,50 L186,49 Z M186,59 L176,59 L176,60 L186,60 L186,59 Z M186,54 L186,55 L192,55 L192,54 L186,54 Z M0,128 L31,128 L31,130 L0,130 L0,128 Z M159,128 L192,128 L192,130 L159,130 L159,128 Z M159,0 L33,0 C31.9,0 31,0.9 31,2 L31,11 L33,11 L33,4 C33,2.9 33.9,2 35,2 L157,2 C158.1,2 159,2.9 159,4 L159,87 L161,87 L161,2 C161,0.9 160.1,0 159,0 Z M33,127.9 L33,16 L31,16 L31,130 L114,130 L114,128 L33,127.9 C33,128 33,128 33,127.9 Z M120,130 L159,130 L159,128 L120,128 L120,130 Z" id="Shape_128_"></path>
                </g>
                <g id="Blank-line" transform="translate(54.300000, 25.600000)" fill="#3987D9">
                    <path d="M4.5,0 L0.1,0 L0.1,1.4 L0.1,7.1 L1.2,7.1 L1.2,1.4 L4.5,1.4 L4.5,0 Z M13.3,0 L8.9,0 L8.9,1.4 L13.3,1.4 L13.3,0 Z M22,0 L17.6,0 L17.6,1.4 L22,1.4 L22,0 Z M30.9,0 L26.5,0 L26.5,1.4 L30.9,1.4 L30.9,0 Z M39.6,0 L35.2,0 L35.2,1.4 L39.6,1.4 L39.6,0 Z M48.5,0 L44.1,0 L44.1,1.4 L48.5,1.4 L48.5,0 Z M57.3,0 L52.9,0 L52.9,1.4 L57.3,1.4 L57.3,0 Z M66,0 L61.6,0 L61.6,1.4 L66,1.4 L66,0 Z M74.9,0 L70.5,0 L70.5,1.4 L74.9,1.4 L74.9,0 Z M79.3,0 L79.3,4.3 L80.4,4.3 L80.4,0 L79.3,0 Z M79.3,15.7 L80.4,15.7 L80.4,10 L79.3,10 L79.3,15.7 Z M79.3,27.2 L80.4,27.2 L80.4,21.5 L79.3,21.5 L79.3,27.2 Z M79.3,38.6 L80.4,38.6 L80.4,32.9 L79.3,32.9 L79.3,38.6 Z M79.3,50.1 L80.4,50.1 L80.4,44.4 L79.3,44.4 L79.3,50.1 Z M79.3,61.5 L80.4,61.5 L80.4,55.8 L79.3,55.8 L79.3,61.5 Z M79.3,72.9 L80.4,72.9 L80.4,67.2 L79.3,67.2 L79.3,72.9 Z M74.9,75.8 L79.3,75.8 L79.3,74.4 L74.9,74.4 L74.9,75.8 Z M66,75.8 L70.4,75.8 L70.4,74.4 L66,74.4 L66,75.8 Z M57.3,75.8 L61.7,75.8 L61.7,74.4 L57.3,74.4 L57.3,75.8 Z M48.5,75.8 L52.9,75.8 L52.9,74.4 L48.5,74.4 L48.5,75.8 Z M39.6,75.8 L44,75.8 L44,74.4 L39.6,74.4 L39.6,75.8 Z M30.9,75.8 L35.3,75.8 L35.3,74.4 L30.9,74.4 L30.9,75.8 Z M22,75.8 L26.4,75.8 L26.4,74.4 L22,74.4 L22,75.8 Z M13.3,75.8 L17.7,75.8 L17.7,74.4 L13.3,74.4 L13.3,75.8 Z M4.5,75.8 L8.9,75.8 L8.9,74.4 L4.5,74.4 L4.5,75.8 Z M0,74.4 L1.1,74.4 L1.1,68.7 L0,68.7 L0,74.4 Z M0,62.9 L1.1,62.9 L1.1,57.2 L0,57.2 L0,62.9 Z M0,51.5 L1.1,51.5 L1.1,45.8 L0,45.8 L0,51.5 Z M0,40 L1.1,40 L1.1,34.3 L0,34.3 L0,40 Z M0,17.2 L1.1,17.2 L1.1,11.4 L0,11.4 L0,17.2 Z M0,28.6 L1.1,28.6 L1.1,22.9 L0,22.9 L0,28.6 Z" id="Shape_129_"></path>
                </g>
                <rect id="Rectangle-path_58_" fill="#3987D9" x="159" y="122" width="2" height="6"></rect>
            </g>
            <g id="zc-import" transform="translate(223.000000, 190.000000)" fill-rule="nonzero">
                <g id="Shape_1_copy_4_" transform="translate(146.000000, 92.000000)" fill="#DCE9F6">
                    <polygon id="Shape_172_" points="25 0 25 25 0 25 0 30 30 30 30 0"></polygon>
                </g>
                <g id="Blank_14_" transform="translate(141.000000, 87.000000)" fill="#3987D9">
                    <path d="M0,0 L0,30 L31,30 L31,0 L0,0 Z M29,28 L2,28 L2,2 L29,2 L29,28 Z" id="Shape_173_"></path>
                </g>
                <g id="Blank_16_">
                    <g id="Blank_15_" fill="#3987D9">
                        <path d="M186,49 L176,49 L176,50 L186,50 L186,49 Z M186,59 L176,59 L176,60 L186,60 L186,59 Z M186,54 L186,55 L192,55 L192,54 L186,54 Z M0,128 L31,128 L31,130 L0,130 L0,128 Z M159,128 L192,128 L192,130 L159,130 L159,128 Z M159,0 L33,0 C31.9,0 31,0.9 31,2 L31,11 L33,11 L33,4 C33,2.9 33.9,2 35,2 L157,2 C158.1,2 159,2.9 159,4 L159,87 L161,87 L161,2 C161,0.9 160.1,0 159,0 Z M33,127.9 L33,16 L31,16 L31,130 L114,130 L114,128 L33,127.9 C33,128 33,128 33,127.9 Z M120,130 L159,130 L159,128 L120,128 L120,130 Z" id="Shape_174_"></path>
                    </g>
                    <g id="Rectangle_1_copy_2_" transform="translate(149.000000, 93.000000)" fill="#3987D9">
                        <path d="M14.4,7 L9,14 L9,4 L7,4 L7,14.1 L1.6,7 L0,8.2 L7.5,18.1 L7.9,18.7 L15.9,8.2 L14.4,7 Z M9,0 L7,0 L7,2 L9,2 L9,0 Z" id="Shape_175_"></path>
                    </g>
                    <g id="Rectangle_1_copy_4" transform="translate(48.000000, 29.000000)" fill="#DCE9F6">
                        <path d="M73,0 L54,0 L54,3 L73,3 L73,0 Z M0,15 L0,18 L98,18 L98,15 L0,15 Z M0,33 L98,33 L98,30 L0,30 L0,33 Z M0,47 L73,47 L73,44 L0,44 L0,47 Z" id="Shape_176_"></path>
                    </g>
                    <g id="Rectangle_1_copy_5" transform="translate(48.000000, 29.000000)" fill="#3987D9">
                        <path d="M0,0 L0,3 L47,3 L47,0 L0,0 Z M0,72 L47,72 L47,67 L0,67 L0,72 Z" id="Shape_177_"></path>
                    </g>
                </g>
                <rect id="Rectangle-path_96_" fill="#3987D9" x="159" y="122" width="2" height="6"></rect>
            </g>
            <g id="zc-templates" transform="translate(445.000000, 190.000000)" fill-rule="nonzero">
                <g id="Shape_1_copy_6_" transform="translate(146.000000, 92.000000)" fill="#DCE9F6">
                    <polygon id="Shape_211_" points="25 0 25 25 0 25 0 30 30 30 30 0"></polygon>
                </g>
                <g id="Blank_27_" transform="translate(141.000000, 87.000000)" fill="#3987D9">
                    <path d="M0,0 L0,30 L31,30 L31,0 L0,0 Z M29,28 L2,28 L2,2 L29,2 L29,28 Z" id="Shape_212_"></path>
                </g>
                <g id="Blank_28_" fill="#3987D9">
                    <path d="M186,49 L176,49 L176,50 L186,50 L186,49 Z M186,59 L176,59 L176,60 L186,60 L186,59 Z M186,54 L186,55 L192,55 L192,54 L186,54 Z M0,128 L31,128 L31,130 L0,130 L0,128 Z M159,128 L192,128 L192,130 L159,130 L159,128 Z M159,0 L33,0 C31.9,0 31,0.9 31,2 L31,11 L33,11 L33,4 C33,2.9 33.9,2 35,2 L157,2 C158.1,2 159,2.9 159,4 L159,87 L161,87 L161,2 C161,0.9 160.1,0 159,0 Z M33,127.9 L33,16 L31,16 L31,130 L114,130 L114,128 L33,127.9 C33,128 33,128 33,127.9 Z M120,130 L159,130 L159,128 L120,128 L120,130 Z" id="Shape_213_"></path>
                </g>
                <rect id="Rectangle-path_122_" fill="#3987D9" x="159" y="122" width="2" height="6"></rect>
                <g id="Shape_1_copy_8_" transform="translate(146.200000, 95.200000)" fill="#3987D9">
                    <polygon id="Shape" points="4.9 12.5 7.21644966e-16 5.6 1.6 4.4 5.3 9.7 18.3 -1.66533454e-16 19.5 1.6"></polygon>
                </g>
                <g id="Rectangle_2_20_" transform="translate(51.000000, 32.000000)" fill="#3987D9">
                    <path d="M0,0 L0,20 L36,20 L36,0 L0,0 Z M35,19 L1,19 L1,1 L35,1 L35,19 Z" id="Shape_215_"></path>
                </g>
                <g id="Rectangle_3_6_" transform="translate(52.000000, 33.000000)" fill="#57A9FF">
                    <rect id="Rectangle-path_123_" x="0" y="0" width="34" height="18"></rect>
                </g>
                <g id="Rectangle_2_copy_18_" transform="translate(101.000000, 32.000000)" fill="#3987D9">
                    <polygon id="Shape_216_" points="0 0 0 6 1 6 1 1 35 1 35 19 1 19 1 11 0 11 0 20 36 20 36 0"></polygon>
                </g>
                <g id="Rectangle_4_4_" transform="translate(101.000000, 33.000000)" fill="#DCE9F6">
                    <polygon id="Shape_217_" points="1 0 1 5 0 5 0 10 1 10 1 18 35 18 35 0"></polygon>
                </g>
                <g id="Rectangle_2_copy_2_10_" transform="translate(101.000000, 67.000000)" fill="#3987D9">
                    <polygon id="Shape_218_" points="25 0 25 1 35 1 35 19 1 19 1 1 20 1 20 0 0 0 0 20 36 20 36 0"></polygon>
                </g>
                <g id="Rectangle_5" transform="translate(121.000000, 67.000000)" fill="#E2E9ED">
                    <rect id="Rectangle-path_124_" x="0" y="0" width="5" height="1"></rect>
                </g>
                <g id="Rectangle_3_copy_2_4_" transform="translate(102.000000, 68.000000)" fill="#DCE9F6">
                    <rect id="Rectangle-path_125_" x="0" y="0" width="34" height="18"></rect>
                </g>
                <g id="Rectangle_2_copy_3_12_" transform="translate(51.000000, 67.000000)" fill="#3987D9">
                    <polygon id="Shape_219_" points="0 0 0 20 7 20 7 19 1 19 1 1 35 1 35 19 12 19 12 20 36 20 36 0"></polygon>
                </g>
                <g id="Rectangle_3_copy_3_4_" transform="translate(52.000000, 68.000000)" fill="#DCE9F6">
                    <polygon id="Shape_220_" points="0 0 0 18 6 18 6 19 11 19 11 18 34 18 34 0"></polygon>
                </g>
            </g>
            <g id="zc-data-view" transform="translate(0.000000, 380.000000)" fill-rule="nonzero">
                <g id="Rectangle_2_6_" transform="translate(48.000000, 31.000000)" fill="#3987D9">
                    <path d="M0,0 L0,8 L8,8 L8,0 L0,0 Z M7,7 L1,7 L1,1 L7,1 L7,7 Z" id="Shape_138_"></path>
                </g>
                <g id="Rectangle_3_copy" transform="translate(63.000000, 31.000000)" fill="#DCE9F6">
                    <path d="M0,8 L36,8 L36,6 L0,6 L0,8 Z M61,0 L0,0 L0,2 L61,2 L61,0 Z M46,6 L46,8 L81,8 L81,6 L46,6 Z" id="Shape_139_"></path>
                </g>
                <g id="Rectangle_2_copy_4_" transform="translate(48.000000, 50.000000)" fill="#3987D9">
                    <path d="M0,0 L0,8 L8,8 L8,0 L0,0 Z M7,7 L1,7 L1,1 L7,1 L7,7 Z" id="Shape_140_"></path>
                </g>
                <g id="Rectangle_3_copy_2" transform="translate(63.000000, 50.000000)" fill="#DCE9F6">
                    <path d="M61,0 L0,0 L0,2 L61,2 L61,0 Z M0,6 L0,8 L81,8 L81,6 L0,6 Z" id="Shape_141_"></path>
                </g>
                <g id="Rounded_Rectangle_2_2_" transform="translate(48.000000, 75.000000)" fill="#EDF4F9">
                    <path d="M0,19 C0,20.1 0.9,21 2,21 L21,21 C22.1,21 23,20.1 23,19 L23,0 L0,19 Z" id="Shape_142_"></path>
                </g>
                <g id="Rounded_Rectangle_2_copy_2_" transform="translate(84.000000, 75.000000)" fill="#EDF4F9">
                    <path d="M0,19 C0,20.1 0.9,21 2,21 L21,21 C22.1,21 23,20.1 23,19 L23,0 L0,19 Z" id="Shape_143_"></path>
                </g>
                <g id="Rounded_Rectangle_2_copy_2" transform="translate(120.000000, 75.000000)" fill="#EDF4F9">
                    <path d="M0,19 C0,20.1 0.9,21 2,21 L21,21 C22.1,21 23,20.1 23,19 L23,0 L0,19 Z" id="Shape_144_"></path>
                </g>
                <g id="Rounded_Rectangle_1" transform="translate(48.000000, 73.000000)" fill="#3987D9">
                    <path d="M22,0 L2,0 C0.9,0 0,0.9 0,2 L0,9 L1,9 L1,3 C1,1.9 1.9,1 3,1 L21,1 C22.1,1 23,1.9 23,3 L23,21 C23,22.1 22.1,23 21,23 L3,23 C1.9,23 1,22.1 1,21 L1,15 L0,15 L0,22 C0,23.1 0.9,24 2,24 L22,24 C23.1,24 24,23.1 24,22 L24,2 C24,0.9 23.1,0 22,0 Z" id="Shape_145_"></path>
                </g>
                <g id="Ellipse_2_2_" transform="translate(55.000000, 77.000000)" fill="#3987D9">
                    <path d="M5,0 C2.2,0 0,2.2 0,5 C0,7.8 2.2,10 5,10 C7.8,10 10,7.8 10,5 C10,2.2 7.8,0 5,0 Z M5,9 C2.8,9 1,7.2 1,5 C1,2.8 2.8,1 5,1 C7.2,1 9,2.8 9,5 C9,7.2 7.2,9 5,9 Z" id="Shape_146_"></path>
                </g>
                <g id="Ellipse_3" transform="translate(56.000000, 78.000000)" fill="#DCE9F6">
                    <circle id="Oval_2_" cx="4" cy="4" r="4"></circle>
                </g>
                <g id="Rectangle_3_2_" transform="translate(55.000000, 90.000000)" fill="#3987D9">
                    <rect id="Rectangle-path_63_" x="0" y="0" width="10" height="1"></rect>
                </g>
                <g id="Rounded_Rectangle_1_copy" transform="translate(84.000000, 73.000000)" fill="#3987D9">
                    <path d="M22,0 L2,0 C0.9,0 0,0.9 0,2 L0,22 C0,23.1 0.9,24 2,24 L9,24 L9,23 L3,23 C1.9,23 1,22.1 1,21 L1,3 C1,1.9 1.9,1 3,1 L21,1 C22.1,1 23,1.9 23,3 L23,21 C23,22.1 22.1,23 21,23 L15,23 L15,24 L22,24 C23.1,24 24,23.1 24,22 L24,2 C24,0.9 23.1,0 22,0 Z" id="Shape_147_"></path>
                </g>
                <g id="Ellipse_2_copy_2_" transform="translate(91.000000, 77.000000)" fill="#3987D9">
                    <path d="M5,0 C2.2,0 0,2.2 0,5 C0,7.8 2.2,10 5,10 C7.8,10 10,7.8 10,5 C10,2.2 7.8,0 5,0 Z M5,9 C2.8,9 1,7.2 1,5 C1,2.8 2.8,1 5,1 C7.2,1 9,2.8 9,5 C9,7.2 7.2,9 5,9 Z" id="Shape_148_"></path>
                </g>
                <g id="Ellipse_3_copy" transform="translate(92.000000, 78.000000)" fill="#DCE9F6">
                    <circle id="Oval_3_" cx="4" cy="4" r="4"></circle>
                </g>
                <g id="Rectangle_3_copy_3" transform="translate(91.000000, 90.000000)" fill="#3987D9">
                    <rect id="Rectangle-path_64_" x="0" y="0" width="10" height="1"></rect>
                </g>
                <g id="Rounded_Rectangle_1_copy_2" transform="translate(120.000000, 73.000000)" fill="#3987D9">
                    <path d="M24,9 L24,2 C24,0.9 23.1,0 22,0 L2,0 C0.9,0 0,0.9 0,2 L0,22 C0,23.1 0.9,24 2,24 L22,24 C23.1,24 24,23.1 24,22 L24,15 L23,15 L23,21 C23,22.1 22.1,23 21,23 L3,23 C1.9,23 1,22.1 1,21 L1,3 C1,1.9 1.9,1 3,1 L21,1 C22.1,1 23,1.9 23,3 L23,9 L24,9 Z" id="Shape_149_"></path>
                </g>
                <g id="Ellipse_2_copy_2" transform="translate(127.000000, 77.000000)" fill="#3987D9">
                    <path d="M5,0 C2.2,0 0,2.2 0,5 C0,7.8 2.2,10 5,10 C7.8,10 10,7.8 10,5 C10,2.2 7.8,0 5,0 Z M5,9 C2.8,9 1,7.2 1,5 C1,2.8 2.8,1 5,1 C7.2,1 9,2.8 9,5 C9,7.2 7.2,9 5,9 Z" id="Shape_150_"></path>
                </g>
                <g id="Ellipse_3_copy_2" transform="translate(128.000000, 78.000000)" fill="#DCE9F6">
                    <circle id="Oval_4_" cx="4" cy="4" r="4"></circle>
                </g>
                <g id="Rectangle_3_copy_4" transform="translate(127.000000, 90.000000)" fill="#3987D9">
                    <rect id="Rectangle-path_65_" x="0" y="0" width="10" height="1"></rect>
                </g>
                <g id="Blank_10_" fill="#3987D9">
                    <path d="M186,49 L176,49 L176,50 L186,50 L186,49 Z M186,59 L176,59 L176,60 L186,60 L186,59 Z M186,54 L186,55 L192,55 L192,54 L186,54 Z M0,128 L31,128 L31,130 L0,130 L0,128 Z M159,128 L192,128 L192,130 L159,130 L159,128 Z M159,0 L33,0 C31.9,0 31,0.9 31,2 L31,11 L33,11 L33,4 C33,2.9 33.9,2 35,2 L157,2 C158.1,2 159,2.9 159,4 L159,128 L161,128 L161,2 C161,0.9 160.1,0 159,0 Z M33,127.9 L33,16 L31,16 L31,130 L114,130 L114,128 L33,127.9 C33,128 33,128 33,127.9 Z M120,130 L159,130 L159,128 L120,128 L120,130 Z" id="Shape_151_"></path>
                </g>
            </g>
            <g id="zc-calendar" transform="translate(224.000000, 380.000000)" fill-rule="nonzero">
                <g id="Rectangle_2_copy_4_2_" transform="translate(48.000000, 34.000000)" fill="#3987D9">
                    <path d="M5,30 L0,30 L0,31 L5,31 L5,30 Z M77,16 L83,16 L83,15 L77,15 L77,0 L76,0 L76,15 L58,15 L58,0 L57,0 L57,15 L39,15 L39,0 L38,0 L38,15 L20,15 L20,0 L19,0 L19,15 L0,15 L0,16 L19,16 L19,30 L11,30 L11,31 L19,31 L19,45 L0,45 L0,46 L19,46 L19,61 L20,61 L20,46 L38,46 L38,61 L39,61 L39,46 L57,46 L57,61 L58,61 L58,46 L65,46 L65,45 L58,45 L58,31 L76,31 L76,45 L68,45 L68,46 L76,46 L76,61 L77,61 L77,46 L95,46 L95,45 L77,45 L77,31 L95,31 L95,30 L77,30 L77,16 Z M38,45 L20,45 L20,31 L38,31 L38,45 Z M38,30 L20,30 L20,16 L38,16 L38,30 Z M57,45 L39,45 L39,31 L57,31 L57,45 Z M57,30 L39,30 L39,16 L57,16 L57,30 Z M76,30 L58,30 L58,16 L76,16 L76,30 Z M89,15 L89,16 L95,16 L95,15 L89,15 Z" id="Shape_136_"></path>
                </g>
                <g id="Rectangle_2_4_" transform="translate(87.000000, 50.000000)" fill="#DCE9F6">
                    <rect id="Rectangle-path_61_" x="0" y="0" width="18" height="14"></rect>
                </g>
                <g id="Blank_8_" fill="#3987D9">
                    <path d="M186,49 L176,49 L176,50 L186,50 L186,49 Z M186,59 L176,59 L176,60 L186,60 L186,59 Z M186,54 L186,55 L192,55 L192,54 L186,54 Z M0,128 L31,128 L31,130 L0,130 L0,128 Z M159,128 L192,128 L192,130 L159,130 L159,128 Z M159,0 L33,0 C31.9,0 31,0.9 31,2 L31,11 L33,11 L33,4 C33,2.9 33.9,2 35,2 L157,2 C158.1,2 159,2.9 159,4 L159,128 L161,128 L161,2 C161,0.9 160.1,0 159,0 Z M33,127.9 L33,16 L31,16 L31,130 L114,130 L114,128 L33,127.9 C33,128 33,128 33,127.9 Z M120,130 L159,130 L159,128 L120,128 L120,130 Z" id="Shape_137_"></path>
                </g>
            </g>
            <g id="zc-blank_1_" transform="translate(447.000000, 380.000000)" fill-rule="nonzero">
                <g id="Blank_6_" fill="#3987D9">
                    <path d="M186,49 L176,49 L176,50 L186,50 L186,49 Z M186,59 L176,59 L176,60 L186,60 L186,59 Z M186,54 L186,55 L192,55 L192,54 L186,54 Z M0,128 L31,128 L31,130 L0,130 L0,128 Z M159,128 L192,128 L192,130 L159,130 L159,128 Z M159,0 L33,0 C31.9,0 31,0.9 31,2 L31,11 L33,11 L33,4 C33,2.9 33.9,2 35,2 L157,2 C158.1,2 159,2.9 159,4 L159,123 L161,123 L161,2 C161,0.9 160.1,0 159,0 Z M33,127.9 L33,16 L31,16 L31,130 L114,130 L114,128 L33,127.9 C33,128 33,128 33,127.9 Z M120,130 L159,130 L159,128 L120,128 L120,130 Z" id="Shape_1_"></path>
                </g>
                <rect id="Rectangle-path_1_" fill="#93A0B0" x="159" y="122" width="2" height="6"></rect>
            </g>
            <g id="Shape" transform="translate(515.000000, 416.000000)" fill="#3987D9" fill-rule="nonzero">
                <path d="M30,0 C29.4,0 29,0.4 29,1 L29,14.3 C29,14.9 29.4,15.3 30,15.3 C30.6,15.3 31,14.9 31,14.3 L31,2 C46,2.5 58,14.9 58,30 C58,45.4 45.4,58 30,58 C14.6,58 2,45.4 2,30 C2,22.5 4.9,15.5 10.2,10.2 C10.6,9.8 10.6,9.2 10.2,8.8 C9.8,8.4 9.2,8.4 8.8,8.8 C3.2,14.5 1.13686838e-13,22 1.13686838e-13,30 C1.13686838e-13,46.5 13.5,60 30,60 C46.5,60 60,46.5 60,30 C60,13.5 46.5,0 30,0 Z" id="Path"></path>
                <path d="M28.6,33.5 C29.2,34.3 30.2,34.9 31.2,35 C31.3,35 31.4,35 31.5,35 C32.4,35 33.3,34.6 34,34 C34.7,33.3 35.1,32.2 35,31.2 C34.9,30.2 34.4,29.2 33.5,28.6 L20.6,19.2 C20.2,18.9 19.7,19 19.3,19.3 C19,19.6 18.9,20.2 19.2,20.6 L28.6,33.5 Z M32.4,30.2 C32.8,30.5 33,30.9 33,31.3 C33,31.8 32.9,32.2 32.5,32.5 C32.2,32.8 31.7,33 31.3,33 C30.8,33 30.4,32.7 30.2,32.4 L24.5,24.5 L32.4,30.2 Z"></path>
            </g>
            <g id="zc-spreadsheet" transform="translate(670.000000, 380.000000)" fill-rule="nonzero">
                <g id="Rectangle_2_copy_8" transform="translate(48.000000, 35.000000)" fill="#3987D9">
                    <path d="M94,0 L77,0 L77,1 L94,1 L94,15 L58,15 L58,1 L71,1 L71,0 L58,0 L57,0 L39,0 L38,0 L20,0 L19,0 L1,0 L0,0 L0,1 L0,15 L0,16 L0,30 L0,31 L0,35 L1,35 L1,31 L19,31 L19,45 L1,45 L1,41 L0,41 L0,45 L0,46 L0,59 L0,60 L95,60 L95,59 L95,46 L95,45 L95,31 L95,30 L95,16 L95,15 L95,1 L95,0 L94,0 Z M19,59 L1,59 L1,46 L19,46 L19,59 Z M19,30 L1,30 L1,16 L19,16 L19,30 Z M19,15 L1,15 L1,1 L19,1 L19,15 Z M38,59 L20,59 L20,46 L38,46 L38,59 Z M38,45 L20,45 L20,31 L38,31 L38,45 Z M38,30 L20,30 L20,16 L38,16 L38,30 Z M38,15 L20,15 L20,1 L38,1 L38,15 Z M57,59 L39,59 L39,46 L57,46 L57,59 Z M57,45 L39,45 L39,31 L57,31 L57,45 Z M57,30 L39,30 L39,16 L57,16 L57,30 Z M57,15 L39,15 L39,1 L57,1 L57,15 Z M94,59 L58,59 L58,46 L94,46 L94,59 Z M94,45 L58,45 L58,31 L94,31 L94,45 Z M94,30 L58,30 L58,16 L94,16 L94,30 Z" id="Shape_207_"></path>
                </g>
                <g id="Rectangle_2_16_" transform="translate(49.000000, 36.000000)" fill="#DCE9F6">
                    <rect id="Rectangle-path_114_" x="0" y="0" width="18" height="14"></rect>
                </g>
                <g id="Rectangle_2_copy_14_" transform="translate(87.000000, 66.000000)" fill="#DCE9F6">
                    <rect id="Rectangle-path_115_" x="0" y="0" width="18" height="14"></rect>
                </g>
                <g id="Rectangle_2_copy_3_8_" transform="translate(68.000000, 66.000000)" fill="#DCE9F6">
                    <rect id="Rectangle-path_116_" x="0" y="0" width="18" height="14"></rect>
                </g>
                <g id="Rectangle_2_copy_2_6_" transform="translate(106.000000, 66.000000)" fill="#DCE9F6">
                    <rect id="Rectangle-path_117_" x="0" y="0" width="36" height="14"></rect>
                </g>
                <g id="Blank_23_" fill="#3987D9">
                    <path d="M186,49 L176,49 L176,50 L186,50 L186,49 Z M186,59 L176,59 L176,60 L186,60 L186,59 Z M186,54 L186,55 L192,55 L192,54 L186,54 Z M0,128 L31,128 L31,130 L0,130 L0,128 Z M159,128 L192,128 L192,130 L159,130 L159,128 Z M159,0 L33,0 C31.9,0 31,0.9 31,2 L31,11 L33,11 L33,4 C33,2.9 33.9,2 35,2 L157,2 C158.1,2 159,2.9 159,4 L159,128 L161,128 L161,2 C161,0.9 160.1,0 159,0 Z M33,127.9 L33,16 L31,16 L31,130 L114,130 L114,128 L33,127.9 C33,128 33,128 33,127.9 Z M120,130 L159,130 L159,128 L120,128 L120,130 Z" id="Shape_208_"></path>
                </g>
            </g>
            <g id="zc-pivot-table" transform="translate(0.000000, 540.000000)" fill-rule="nonzero">
                <g id="Rectangle_2_12_" transform="translate(48.000000, 32.000000)" fill="#DCE9F6">
                    <rect id="Rectangle-path_98_" x="0" y="0" width="12" height="12"></rect>
                </g>
                <g id="Rectangle_2_copy_10_" transform="translate(66.000000, 32.000000)" fill="#3987D9">
                    <polygon id="Shape_187_" points="66 0 66 1 77 1 77 11 1 11 1 1 60 1 60 0 0 0 0 12 78 12 78 0"></polygon>
                </g>
                <g id="Rectangle_2_copy_3_4_" transform="translate(66.000000, 54.000000)" fill="#3987D9">
                    <polygon id="Shape_188_" points="0 0 0 4 1 4 1 1 57 1 57 11 1 11 1 7 0 7 0 12 58 12 58 0"></polygon>
                </g>
                <g id="Rectangle_2_copy_2_2_" transform="translate(48.000000, 50.000000)" fill="#3987D9">
                    <polygon id="Shape_189_" points="0 0 0 31 1 31 1 1 11 1 11 44 1 44 1 37 0 37 0 45 12 45 12 0"></polygon>
                </g>
                <g id="Shape_1" transform="translate(139.000000, 63.000000)" fill="#3987D9">
                    <rect id="Rectangle-path_99_" x="0" y="0" width="1" height="25"></rect>
                </g>
                <g id="Shape_2" transform="translate(135.000000, 55.000000)" fill="#3987D9">
                    <polygon id="Shape_190_" points="4.5 0 0 8 9 8"></polygon>
                </g>
                <g id="Shape_1_copy_2" transform="translate(78.000000, 87.000000)" fill="#3987D9">
                    <rect id="Rectangle-path_100_" x="0" y="0" width="62" height="1"></rect>
                </g>
                <g id="Shape_2_copy" transform="translate(70.000000, 83.000000)" fill="#3987D9">
                    <polygon id="Shape_191_" points="0 4.5 8 9 8 0"></polygon>
                </g>
                <g id="Blank_19_" fill="#3987D9">
                    <path d="M186,49 L176,49 L176,50 L186,50 L186,49 Z M186,59 L176,59 L176,60 L186,60 L186,59 Z M186,54 L186,55 L192,55 L192,54 L186,54 Z M0,128 L31,128 L31,130 L0,130 L0,128 Z M159,128 L192,128 L192,130 L159,130 L159,128 Z M159,0 L33,0 C31.9,0 31,0.9 31,2 L31,11 L33,11 L33,4 C33,2.9 33.9,2 35,2 L157,2 C158.1,2 159,2.9 159,4 L159,128 L161,128 L161,2 C161,0.9 160.1,0 159,0 Z M33,127.9 L33,16 L31,16 L31,130 L114,130 L114,128 L33,127.9 C33,128 33,128 33,127.9 Z M120,130 L159,130 L159,128 L120,128 L120,130 Z" id="Shape_192_"></path>
                </g>
            </g>
            <g id="Rectangle_1_copy_7_1_" transform="translate(272.000000, 574.000000)" fill="#E2E9ED" fill-rule="nonzero">
                <g id="Rectangle_1_copy_7">
                    <path d="M0,41 L13,41 L13,40 L0,40 L0,41 Z M0,31 L28,31 L28,30 L0,30 L0,31 Z M9,21 L28,21 L28,20 L9,20 L9,21 Z M0,11 L43,11 L43,10 L0,10 L0,11 Z M0,51 L13,51 L13,50 L0,50 L0,51 Z M15,0 L0,0 L0,1 L15,1 L15,0 Z M3,20 L0,20 L0,21 L3,21 L3,20 Z M87,21 L96,21 L96,20 L87,20 L87,21 Z M87,11 L96,11 L96,10 L87,10 L87,11 Z M87,0 L87,1 L96,1 L96,0 L87,0 Z M22,1 L61,1 L61,0 L22,0 L22,1 Z M87,31 L96,31 L96,30 L87,30 L87,31 Z M87,51 L96,51 L96,50 L87,50 L87,51 Z M87,41 L96,41 L96,40 L87,40 L87,41 Z" id="Shape"></path>
                </g>
            </g>
            <g id="Rectangle_2_copy_4_1_" transform="translate(335.000000, 574.000000)" fill="#3987D9" fill-rule="nonzero">
                <g id="Rectangle_2_copy_4">
                    <path d="M0,0 L0,61 L21,61 L21,0 L0,0 Z M20,60 L1,60 L1,1 L20,1 L20,60 Z" id="Shape"></path>
                </g>
            </g>
            <g id="Rectangle_2_copy_5_1_" transform="translate(319.000000, 585.000000)" fill="#FFFFFF" fill-rule="nonzero">
                <g id="Rectangle_2_copy_5">
                    <polygon id="Shape" points="20 0 1 0 1 45 0 45 0 50 5 50 5 49 20 49"></polygon>
                </g>
            </g>
            <g id="Rectangle_2_copy_6_1_" transform="translate(319.000000, 584.000000)" fill="#FFFFFF" fill-rule="nonzero">
                <g id="Rectangle_2_copy_6">
                    <polygon id="Shape" points="20 0 1 0 1 45 0 45 0 50 5 50 5 49 20 49"></polygon>
                </g>
            </g>
            <g id="Rectangle_2_copy_1_" transform="translate(319.000000, 584.000000)" fill="#3987D9" fill-rule="nonzero">
                <g id="Rectangle_2_copy_3_">
                    <polygon id="Shape" points="21 6 21 0 0 0 0 51 21 51 21 13 20 13 20 50 1 50 1 1 20 1 20 6"></polygon>
                </g>
            </g>
            <g id="Rectangle_2_copy_2_1_" transform="translate(302.000000, 594.000000)" fill="#3987D9" fill-rule="nonzero">
                <g id="Rectangle_2_copy_2">
                    <polygon id="Shape" points="0 0 0 14 1 14 1 1 20 1 20 40 1 40 1 17 0 17 0 41 21 41 21 0"></polygon>
                </g>
            </g>
            <g id="Rectangle_2_1_" transform="translate(303.000000, 595.000000)" fill="#DCE9F6" fill-rule="nonzero">
                <g id="Rectangle_2_2_">
                    <rect id="Rectangle-path" x="0" y="0" width="19" height="39"></rect>
                </g>
            </g>
            <g id="Rectangle_2_copy_3_3_" transform="translate(286.000000, 611.000000)" fill="#3987D9" fill-rule="nonzero">
                <g id="Rectangle_2_copy_3">
                    <path d="M0,0 L0,24 L21,24 L21,0 L0,0 Z M20,23 L1,23 L1,1 L20,1 L20,23 Z" id="Shape"></path>
                </g>
            </g>
            <g id="Rectangle_2_copy_3_2_" transform="translate(286.000000, 612.000000)" fill="#FFFFFF" fill-rule="nonzero">
                <g id="Rectangle_2_copy_3_1_">
                    <polygon id="Shape" points="20 0 1 0 1 18 0 18 0 23 5 23 5 22 20 22"></polygon>
                </g>
            </g>
            <g id="Blank_2_" transform="translate(224.000000, 540.000000)" fill="#3987D9" fill-rule="nonzero">
                <g id="Blank_3_">
                    <path d="M186,49 L176,49 L176,50 L186,50 L186,49 Z M186,59 L176,59 L176,60 L186,60 L186,59 Z M186,54 L186,55 L192,55 L192,54 L186,54 Z M0,128 L31,128 L31,130 L0,130 L0,128 Z M159,128 L192,128 L192,130 L159,130 L159,128 Z M159,0 L33,0 C31.9,0 31,0.9 31,2 L31,11 L33,11 C33,6.6 33,4 33,4 C33,2.9 33.9,2 35,2 L157,2 C158.1,2 159,2.9 159,4 L159,128 L161,128 L161,2 C161,0.9 160.1,0 159,0 Z M33,127.9 C33,122.9 33,46.2 33,16 L31,16 L31,130 L114,130 L114,128 L33,127.9 C33,128 33,128 33,127.9 Z M120,130 L159,130 L159,128 L120,128 L120,130 Z" id="Shape"></path>
                </g>
            </g>
            <g id="zc-wf-form" transform="translate(0.000000, 700.000000)" fill-rule="nonzero">
                <g id="Rectangle_1_copy_3_6_" transform="translate(52.000000, 89.000000)" fill="#3987D9">
                    <rect id="Rectangle-path_144_" x="0" y="0" width="88" height="1"></rect>
                </g>
                <g id="Rectangle_2_32_" transform="translate(47.000000, 100.000000)" fill="#3987D9">
                    <path d="M0,0 L0,10 L10,10 L10,0 L0,0 Z M9,9 L1,9 L1,1 L9,1 L9,9 Z" id="Shape_257_"></path>
                </g>
                <g id="Rectangle_1_copy_2_6_" transform="translate(96.000000, 79.000000)" fill="#3987D9">
                    <rect id="Rectangle-path_145_" x="0" y="0" width="1" height="21"></rect>
                </g>
                <g id="Rectangle_1_copy_6_4_" transform="translate(52.000000, 90.000000)" fill="#3987D9">
                    <rect id="Rectangle-path_146_" x="0" y="0" width="1" height="10"></rect>
                </g>
                <g id="Rectangle_2_copy_26_" transform="translate(134.000000, 100.000000)" fill="#3987D9">
                    <path d="M0,0 L0,10 L10,10 L10,0 L0,0 Z M9,9 L1,9 L1,1 L9,1 L9,9 Z" id="Shape_258_"></path>
                </g>
                <g id="Ellipse_1_12_" transform="translate(92.000000, 100.000000)" fill="#3987D9">
                    <path d="M5,0 C2.2,0 0,2.2 0,5 C0,7.8 2.2,10 5,10 C7.8,10 10,7.8 10,5 C10,2.2 7.8,0 5,0 Z M5,9 C2.8,9 1,7.2 1,5 C1,2.8 2.8,1 5,1 C7.2,1 9,2.8 9,5 C9,7.2 7.2,9 5,9 Z" id="Shape_259_"></path>
                </g>
                <g id="Rectangle_1_copy_5_6_" transform="translate(48.000000, 23.000000)" fill="#3987D9">
                    <path d="M95,0 L1,0 L0,0 L0,1 L0,55 L0,56 L96,56 L96,55 L96,1 L96,0 L95,0 Z M95,55 L1,55 L1,1 L95,1 L95,55 Z" id="Shape_260_"></path>
                </g>
                <g id="Blank_41_" fill="#3987D9">
                    <path d="M186,49 L176,49 L176,50 L186,50 L186,49 Z M186,59 L176,59 L176,60 L186,60 L186,59 Z M186,54 L186,55 L192,55 L192,54 L186,54 Z M0,128 L31,128 L31,130 L0,130 L0,128 Z M159,128 L192,128 L192,130 L159,130 L159,128 Z M159,0 L33,0 C31.9,0 31,0.9 31,2 L31,11 L33,11 L33,4 C33,2.9 33.9,2 35,2 L157,2 C158.1,2 159,2.9 159,4 L159,128 L161,128 L161,2 C161,0.9 160.1,0 159,0 Z M33,127.9 L33,16 L31,16 L31,130 L114,130 L114,128 L33,127.9 C33,128 33,128 33,127.9 Z M120,130 L159,130 L159,128 L120,128 L120,130 Z" id="Shape_261_"></path>
                </g>
                <g id="Rectangle_3_copy_4_" transform="translate(73.000000, 32.000000)" fill="#3987D9">
                    <path d="M32,24 L0,24 L0,25 L32,25 L32,24 Z M32,0 L0,0 L0,1 L32,1 L32,0 Z M36,5 L36,6 L46,6 L46,14 L1,14 L1,6 L30,6 L30,5 L0,5 L0,15 L47,15 L47,5 L36,5 Z M0,39 L47,39 L47,29 L0,29 L0,39 Z M1,30 L46,30 L46,38 L1,38 L1,30 Z" id="Shape_262_"></path>
                </g>
                <g id="Rectangle_3_10_" transform="translate(74.000000, 62.000000)" fill="#DCE9F6">
                    <rect id="Rectangle-path_147_" x="0" y="0" width="45" height="8"></rect>
                </g>
            </g>
            <rect id="Rectangle-path_136_" fill="#3987D9" fill-rule="nonzero" x="275" y="789" width="88" height="1"></rect>
            <path d="M270,800 L270,810 L280,810 L280,800 L270,800 Z M279,809 L271,809 L271,801 L279,801 L279,809 Z" id="Shape_245_" fill="#3987D9" fill-rule="nonzero"></path>
            <rect id="Rectangle-path_137_" fill="#3987D9" fill-rule="nonzero" x="319" y="779" width="1" height="21"></rect>
            <rect id="Rectangle-path_138_" fill="#3987D9" fill-rule="nonzero" x="275" y="790" width="1" height="10"></rect>
            <path d="M357,800 L357,810 L367,810 L367,800 L357,800 Z M366,809 L358,809 L358,801 L366,801 L366,809 Z" id="Shape_246_" fill="#3987D9" fill-rule="nonzero"></path>
            <path d="M320,800 C317.2,800 315,802.2 315,805 C315,807.8 317.2,810 320,810 C322.8,810 325,807.8 325,805 C325,802.2 322.8,800 320,800 Z M320,809 C317.8,809 316,807.2 316,805 C316,802.8 317.8,801 320,801 C322.2,801 324,802.8 324,805 C324,807.2 322.2,809 320,809 Z" id="Shape_247_" fill="#3987D9" fill-rule="nonzero"></path>
            <path d="M366,723 L272,723 L271,723 L271,724 L271,778 L271,779 L367,779 L367,778 L367,724 L367,723 L366,723 Z M366,778 L272,778 L272,724 L366,724 L366,778 Z" id="Shape_248_" fill="#3987D9" fill-rule="nonzero"></path>
            <text id="17" fill="#3987D9" fill-rule="nonzero" font-family="ProximaNova-Semibold, Proxima Nova" font-size="14" font-weight="500">
                <tspan x="314" y="762">17</tspan>
            </text>
            <path d="M409,749 L399,749 L399,750 L409,750 L409,749 Z M409,759 L399,759 L399,760 L409,760 L409,759 Z M409,754 L409,755 L415,755 L415,754 L409,754 Z M223,828 L254,828 L254,830 L223,830 L223,828 Z M382,828 L415,828 L415,830 L382,830 L382,828 Z M382,700 L256,700 C254.9,700 254,700.9 254,702 L254,711 L256,711 L256,704 C256,702.9 256.9,702 258,702 L380,702 C381.1,702 382,702.9 382,704 L382,828 L384,828 L384,702 C384,700.9 383.1,700 382,700 Z M256,827.9 L256,716 L254,716 L254,830 L337,830 L337,828 L256,827.9 C256,828 256,828 256,827.9 Z M343,830 L382,830 L382,828 L343,828 L343,830 Z" id="Shape_250_" fill="#3987D9" fill-rule="nonzero"></path>
            <polyline id="Shape" stroke="#3987D9" stroke-linecap="square" points="330.6 735.7 338 735.7 338 769 301 769 301 735.7 308.4 735.7"></polyline>
            <polyline id="Shape" stroke="#3987D9" fill="#DCE9F6" fill-rule="nonzero" stroke-linecap="square" points="330.6 735.7 338 735.7 338 744.7 301 744.7 301 735.7 308.4 735.7"></polyline>
            <line x1="313.333333" y1="735.7" x2="325.666667" y2="735.7" id="Shape" stroke="#93A0B0" stroke-linecap="square"></line>
            <rect id="Rectangle-path" stroke="#3987D9" stroke-linecap="square" x="308.4" y="732" width="4.93333333" height="7.4"></rect>
            <rect id="Rectangle-path" stroke="#3987D9" stroke-linecap="square" x="325.666667" y="732" width="4.93333333" height="7.4"></rect>
            <g id="zc-wf-approval" transform="translate(446.000000, 700.000000)" fill="#3987D9" fill-rule="nonzero">
                <g id="Rectangle_1_copy_3_2_" transform="translate(52.000000, 89.000000)">
                    <rect id="Rectangle-path_130_" x="0" y="0" width="88" height="1"></rect>
                </g>
                <g id="Rectangle_2_24_" transform="translate(47.000000, 100.000000)">
                    <path d="M0,0 L0,10 L10,10 L10,0 L0,0 Z M9,9 L1,9 L1,1 L9,1 L9,9 Z" id="Shape_231_"></path>
                </g>
                <g id="Rectangle_1_copy_2_2_" transform="translate(96.000000, 79.000000)">
                    <rect id="Rectangle-path_131_" x="0" y="0" width="1" height="21"></rect>
                </g>
                <g id="Rectangle_1_copy_6" transform="translate(52.000000, 90.000000)">
                    <rect id="Rectangle-path_132_" x="0" y="0" width="1" height="10"></rect>
                </g>
                <g id="Rectangle_2_copy_22_" transform="translate(134.000000, 100.000000)">
                    <path d="M0,0 L0,10 L10,10 L10,0 L0,0 Z M9,9 L1,9 L1,1 L9,1 L9,9 Z" id="Shape_232_"></path>
                </g>
                <g id="Ellipse_1_8_" transform="translate(92.000000, 100.000000)">
                    <path d="M5,0 C2.2,0 0,2.2 0,5 C0,7.8 2.2,10 5,10 C7.8,10 10,7.8 10,5 C10,2.2 7.8,0 5,0 Z M5,9 C2.8,9 1,7.2 1,5 C1,2.8 2.8,1 5,1 C7.2,1 9,2.8 9,5 C9,7.2 7.2,9 5,9 Z" id="Shape_233_"></path>
                </g>
                <g id="Rectangle_1_copy_5_2_" transform="translate(48.300000, 23.800000)">
                    <path d="M95,-6.66133815e-16 L1,-6.66133815e-16 L2.83106871e-15,-6.66133815e-16 L2.83106871e-15,1 L2.83106871e-15,55 L2.83106871e-15,56 L96,56 L96,55 L96,1 L96,-6.66133815e-16 L95,-6.66133815e-16 Z M95,55 L1,55 L1,1 L95,1 L95,55 Z" id="Shape_234_"></path>
                </g>
                <g id="Blank_33_">
                    <path d="M186,49 L176,49 L176,50 L186,50 L186,49 Z M186,59 L176,59 L176,60 L186,60 L186,59 Z M186,54 L186,55 L192,55 L192,54 L186,54 Z M0,128 L31,128 L31,130 L0,130 L0,128 Z M159,128 L192,128 L192,130 L159,130 L159,128 Z M159,0 L33,0 C31.9,0 31,0.9 31,2 L31,11 L33,11 L33,4 C33,2.9 33.9,2 35,2 L157,2 C158.1,2 159,2.9 159,4 L159,128 L161,128 L161,2 C161,0.9 160.1,0 159,0 Z M33,127.9 L33,16 L31,16 L31,130 L114,130 L114,128 L33,127.9 C33,128 33,128 33,127.9 Z M120,130 L159,130 L159,128 L120,128 L120,130 Z" id="Shape_235_"></path>
                </g>
                <g id="Group_8_" transform="translate(84.625000, 40.213793)">
                    <path d="M6.775,10.8862075 C6.475,10.5862075 5.975,10.5862075 5.575,10.8862075 C5.175,11.1862075 5.275,11.6862075 5.575,12.0862075 L9.375,15.8862075 C9.575,16.0862075 9.775,16.0862075 9.975,16.0862075 C10.175,16.0862075 10.375,15.9862075 10.575,15.7862075 L20.075,4.48620748 C20.375,4.18620748 20.275,3.58620748 19.975,3.28620748 C19.675,2.98620748 19.075,3.08620748 18.775,3.38620748 L9.875,14.0862075 L6.775,10.8862075 Z" id="Shape_236_"></path>
                    <path d="M17.675,1.78620748 C13.075,-1.11379252 7.175,-0.413792525 3.375,3.38620748 C-1.125,7.88620748 -1.125,15.2862075 3.375,19.7862075 C5.675,22.0862075 8.575,23.1862075 11.575,23.1862075 C14.575,23.1862075 17.475,22.0862075 19.775,19.7862075 C23.675,15.8862075 24.275,9.98620748 21.375,5.38620748 C21.175,4.98620748 20.675,4.88620748 20.275,5.08620748 C19.875,5.28620748 19.775,5.78620748 19.975,6.18620748 C22.475,10.1862075 21.875,15.1862075 18.575,18.5862075 C14.675,22.4862075 8.375,22.4862075 4.475,18.5862075 C0.575,14.6862075 0.575,8.38620748 4.475,4.48620748 C7.775,1.18620748 12.875,0.586207475 16.775,3.08620748 C17.175,3.28620748 17.675,3.18620748 17.875,2.78620748 C18.175,2.48620748 18.075,1.98620748 17.675,1.78620748 Z" id="Shape_237_"></path>
                </g>
            </g>
            <g id="zc-date-form-field" transform="translate(0.000000, 860.000000)" fill-rule="nonzero">
                <g id="Layer_1-2">
                    <path d="M42,2 L42,24 L40,24 L40,4 L2,4 L2,38 L19,38 L19,40 L0,40 L0,2 C0,0.9 0.9,0 2,0 L40,0 C41.1,0 42,0.9 42,2 Z" id="Shape_166_" fill="#3987D9"></path>
                    <rect id="Rectangle-path_70_" fill="#A0BCDA" x="6" y="10" width="11" height="2"></rect>
                    <rect id="Rectangle-path_71_" fill="#D2DDE9" x="20" y="10" width="6" height="2"></rect>
                    <rect id="Rectangle-path_72_" fill="#3987D9" x="6" y="15" width="30" height="5"></rect>
                    <rect id="Rectangle-path_73_" fill="#A0BCDA" x="6" y="25" width="10" height="2"></rect>
                    <rect id="Rectangle-path_74_" fill="#3987D9" x="6" y="30" width="13" height="4"></rect>
                    <path d="M40,28 L40,41 L23,41 L23,28 L40,28 Z M42,26 L21,26 L21,43 L42,43 L42,26 Z" id="Shape_167_" fill="#3987D9"></path>
                    <rect id="Rectangle-path_75_" fill="#E1E1E1" x="23" y="28" width="17" height="2"></rect>
                    <polygon id="Shape_168_" fill="#3987D9" points="28 24 26 24 26 29 28 29"></polygon>
                    <polygon id="Shape_169_" fill="#3987D9" points="37 24 35 24 35 29 37 29"></polygon>
                    <rect id="Rectangle-path_76_" fill="#3987D9" x="24" y="32" width="3" height="3"></rect>
                    <rect id="Rectangle-path_77_" fill="#D6D6D6" x="30" y="32" width="3" height="3"></rect>
                    <rect id="Rectangle-path_78_" fill="#3987D9" x="36" y="32" width="3" height="3"></rect>
                    <rect id="Rectangle-path_79_" fill="#CDCDCD" x="24" y="37" width="3" height="3"></rect>
                    <rect id="Rectangle-path_80_" fill="#3987D9" x="30" y="37" width="3" height="3"></rect>
                    <rect id="Rectangle-path_81_" fill="#F0F0F0" x="36" y="37" width="3" height="3"></rect>
                </g>
            </g>
            <g id="zc-specific-date" transform="translate(72.000000, 860.000000)" fill-rule="nonzero">
                <g id="Layer_1-2_2_">
                    <path d="M40,0 L2,0 C0.9,0 0,0.9 0,2 L0,40 L23.8,40 C23.4,39.4 23.1,38.7 22.8,38 L2,38 L2,4 L40,4 L40,25.5 C40.8,26.1 41.4,26.9 42,27.7 L42,2 C42,0.9 41.1,0 40,0 Z" id="Shape_199_" fill="#3987D9"></path>
                    <rect id="Rectangle-path_104_" fill="#A0BCD9" x="7" y="16" width="6" height="6"></rect>
                    <rect id="Rectangle-path_105_" fill="#3987D9" x="18" y="16" width="6" height="6"></rect>
                    <rect id="Rectangle-path_106_" fill="#3987D9" x="7" y="28" width="6" height="6"></rect>
                    <path d="M23.8,28 C22.6,29.8 22,31.9 22,34 L18,34 L18,28 L23.8,28 Z" id="Shape_200_" fill="#D2DDE9"></path>
                    <rect id="Rectangle-path_107_" fill="#72A1D2" x="29" y="16" width="6" height="6"></rect>
                    <rect id="Rectangle-path_108_" fill="#A0BCD9" x="2" y="4" width="38" height="5"></rect>
                    <path d="M39.4,27.6 C36.4,24.6 31.6,24.1 28,26.5 C24.4,28.9 23,33.5 24.7,37.4 C26.3,41.4 30.6,43.6 34.8,42.8 C39,42 42,38.3 42,34 C42,31.6 41,29.3 39.4,27.6 Z M33,41 C30.2,41 27.6,39.3 26.5,36.7 C25.4,34.1 26,31.1 28,29.1 C30,27.1 33,26.5 35.6,27.6 C38.2,28.7 39.9,31.2 39.9,34.1 C40,37.9 36.9,41 33,41 Z" id="Shape_201_" fill="#3987D9"></path>
                    <polygon id="Shape_202_" fill="#3987D9" points="34 34.5 34 29.5 32 29.5 32 34.5 32 36.5 34 36.5 37 36.5 37 34.5"></polygon>
                </g>
            </g>
            <g id="Shape_1_2_" transform="translate(447.000000, 540.000000)" fill="#3987D9" fill-rule="nonzero">
                <path d="M186,49 L176,49 L176,50 L186,50 L186,49 Z M33,127.8 C33,122.9 33,46.2 33,16 L31,16 L31,128 L0,128 L0,130 L31,130 L114,130 L114,128 L33,127.8 Z M186,59 L176,59 L176,60 L186,60 L186,59 Z M161,2 C161,0.9 160.1,0 159,0 L33,0 C31.9,0 31,0.9 31,2 L31,11 L33,11 C33,6.6 33,4 33,4 C33,2.9 33.9,2 35,2 L157,2 C158.1,2 159,2.9 159,4 L159,128 L120,128 L120,130 L159,130 L192,130 L192,128 L161,128 L161,2 Z M186,54 L186,55 L192,55 L192,54 L186,54 Z" id="Shape"></path>
            </g>
            <g id="Rectangle_1_copy_8" transform="translate(498.000000, 568.000000)" fill="#3987D9" fill-rule="nonzero">
                <path d="M35,0 L1,0 L0,0 L0,1 L0,18 L0,19 L36,19 L36,18 L36,1 L36,0 L35,0 Z M35,18 L1,18 L1,1 L35,1 L35,18 Z M12,4 L4,4 L4,5 L12,5 L12,4 Z M21,7 L11,7 L11,8 L21,8 L21,7 Z M25,4 L13,4 L13,5 L25,5 L25,4 Z M13,14 L4,14 L4,15 L13,15 L13,14 Z M32,4 L26,4 L26,5 L32,5 L32,4 Z M10,7 L4,7 L4,8 L10,8 L10,7 Z M14,15 L18,15 L18,14 L14,14 L14,15 Z M19,15 L23,15 L23,14 L19,14 L19,15 Z M24,15 L28,15 L28,14 L24,14 L24,15 Z" id="Shape"></path>
            </g>
            <g id="Rectangle_1_copy_13" transform="translate(493.000000, 563.000000)" fill="#3987D9" fill-rule="nonzero">
                <path d="M45,0 L1,0 L0,0 L0,1 L0,84 L0,85 L46,85 L46,84 L46,1 L46,0 L45,0 Z M45,84 L1,84 L1,1 L45,1 L45,84 Z" id="Shape"></path>
            </g>
            <g id="Rectangle_1_copy_14" transform="translate(548.000000, 563.000000)" fill="#3987D9" fill-rule="nonzero">
                <path d="M45,0 L1,0 L0,0 L0,1 L0,56 L0,57 L46,57 L46,56 L46,1 L46,0 L45,0 Z M45,56 L1,56 L1,1 L45,1 L45,56 Z" id="Shape"></path>
            </g>
            <g id="Rectangle_1_1_" transform="translate(546.000000, 640.000000)" fill="#3987D9" fill-rule="nonzero">
                <rect id="Rectangle-path" x="0" y="0" width="24" height="1"></rect>
            </g>
            <g id="Shape_2_2_" transform="translate(567.000000, 624.000000)" fill="#3987D9" fill-rule="nonzero">
                <polygon id="Shape" points="3.5 0 0 7 7 7"></polygon>
            </g>
            <g id="Rectangle_1_copy_1_" transform="translate(570.000000, 630.000000)" fill="#3987D9" fill-rule="nonzero">
                <rect id="Rectangle-path" x="0" y="0" width="1" height="11"></rect>
            </g>
            <g id="Rectangle_1_copy_11" transform="translate(553.000000, 568.000000)" fill="#3987D9" fill-rule="nonzero">
                <path d="M35,0 L1,0 L0,0 L0,1 L0,18 L0,19 L36,19 L36,18 L36,1 L36,0 L35,0 Z M35,18 L1,18 L1,1 L35,1 L35,18 Z M12,4 L4,4 L4,5 L12,5 L12,4 Z M25,4 L13,4 L13,5 L25,5 L25,4 Z M13,14 L4,14 L4,15 L13,15 L13,14 Z M32,4 L26,4 L26,5 L32,5 L32,4 Z M20,7 L4,7 L4,8 L20,8 L20,7 Z M14,15 L18,15 L18,14 L14,14 L14,15 Z M19,15 L23,15 L23,14 L19,14 L19,15 Z" id="Shape"></path>
            </g>
            <g id="Rectangle_1_copy_9" transform="translate(498.000000, 596.000000)" fill="#3987D9" fill-rule="nonzero">
                <path d="M35,0 L1,0 L0,0 L0,1 L0,18 L0,19 L36,19 L36,18 L36,1 L36,0 L35,0 Z M35,18 L1,18 L1,1 L35,1 L35,18 Z M12,4 L4,4 L4,5 L12,5 L12,4 Z M14,7 L4,7 L4,8 L14,8 L14,7 Z M25,4 L13,4 L13,5 L25,5 L25,4 Z M13,14 L4,14 L4,15 L13,15 L13,14 Z M32,4 L26,4 L26,5 L32,5 L32,4 Z M21,7 L15,7 L15,8 L21,8 L21,7 Z M14,15 L18,15 L18,14 L14,14 L14,15 Z M19,15 L23,15 L23,14 L19,14 L19,15 Z" id="Shape"></path>
            </g>
            <g id="Rectangle_1_copy_10" transform="translate(498.000000, 624.000000)" fill="#3987D9" fill-rule="nonzero">
                <path d="M35,0 L1,0 L0,0 L0,1 L0,18 L0,19 L36,19 L36,18 L36,1 L36,0 L35,0 Z M35,18 L1,18 L1,1 L35,1 L35,18 Z M12,4 L4,4 L4,5 L12,5 L12,4 Z M11,8 L21,8 L21,7 L11,7 L11,8 Z M15,4 L13,4 L13,5 L15,5 L15,4 Z M13,14 L4,14 L4,15 L13,15 L13,14 Z M32,4 L16,4 L16,5 L32,5 L32,4 Z M10,7 L4,7 L4,8 L10,8 L10,7 Z" id="Shape"></path>
            </g>
            <g id="Rectangle_1_copy_7_2_" transform="translate(553.000000, 596.000000)" fill="#3987D9" fill-rule="nonzero">
                <path d="M3,19 L5,19 L5,18 L3,18 L3,19 Z M7,19 L9,19 L9,18 L7,18 L7,19 Z M11,19 L13,19 L13,18 L11,18 L11,19 Z M15,19 L17,19 L17,18 L15,18 L15,19 Z M19,19 L21,19 L21,18 L19,18 L19,19 Z M23,19 L25,19 L25,18 L23,18 L23,19 Z M27,19 L29,19 L29,18 L27,18 L27,19 Z M31,19 L33,19 L33,18 L31,18 L31,19 Z M3,1 L5,1 L5,0 L3,0 L3,1 Z M7,1 L9,1 L9,0 L7,0 L7,1 Z M11,1 L13,1 L13,0 L11,0 L11,1 Z M15,1 L17,1 L17,0 L15,0 L15,1 Z M19,1 L21,1 L21,0 L19,0 L19,1 Z M23,1 L25,1 L25,0 L23,0 L23,1 Z M27,1 L29,1 L29,0 L27,0 L27,1 Z M31,1 L33,1 L33,0 L31,0 L31,1 Z M1,3 L0,3 L0,5 L1,5 L1,3 Z M1,7 L0,7 L0,9 L1,9 L1,7 Z M1,11 L0,11 L0,13 L1,13 L1,11 Z M1,14 L0,14 L0,16 L1,16 L1,14 Z M35,16 L36,16 L36,14 L35,14 L35,16 Z M35,12 L36,12 L36,10 L35,10 L35,12 Z M35,8 L36,8 L36,6 L35,6 L35,8 Z M35,5 L36,5 L36,3 L35,3 L35,5 Z M1,17 L0,17 L0,18 L0,19 L1,19 L2,19 L2,18 L1,18 L1,17 Z M0,0 L0,1 L0,2 L1,2 L1,1 L2,1 L2,0 L1,0 L0,0 Z M35,18 L34,18 L34,19 L35,19 L36,19 L36,18 L36,17 L35,17 L35,18 Z M35,0 L34,0 L34,1 L35,1 L35,2 L36,2 L36,1 L36,0 L35,0 Z" id="Shape"></path>
            </g>
            <g id="Rectangle_2_3_" transform="translate(554.000000, 597.000000)" fill="#DCE9F6" fill-rule="nonzero">
                <rect id="Rectangle-path" x="0" y="0" width="34" height="17"></rect>
            </g>
            <rect id="Rectangle-path" fill="#3987D9" fill-rule="nonzero" x="49" y="14.5" width="43" height="1"></rect>
            <rect id="Rectangle-path" fill="#DCE9F6" fill-rule="nonzero" x="49" y="63" width="98" height="15"></rect>
            <rect id="Rectangle-path" fill="#3987D9" fill-rule="nonzero" x="49" y="54.5" width="20" height="1"></rect>
            <rect id="Rectangle-path" fill="#3987D9" fill-rule="nonzero" x="74" y="54.5" width="20" height="1"></rect>
            <rect id="Rectangle-path" fill="#5BABFC" fill-rule="nonzero" x="49" y="97" width="87" height="18"></rect>
            <rect id="Rectangle-path" fill="#DCE9F6" fill-rule="nonzero" x="527.1" y="59.8" width="25" height="51.4"></rect>
            <rect id="Rectangle-path" fill="#FFFFFF" fill-rule="nonzero" x="547.1" y="35" width="24.9" height="23.8"></rect>
            <rect id="Rectangle-path" fill="#FFFFFF" fill-rule="nonzero" x="554" y="58" width="18" height="29.5"></rect>
            <rect id="Rectangle-path" fill="#57A9FF" fill-rule="nonzero" x="567.1" y="17" width="25" height="17"></rect>
            <rect id="Rectangle-path" fill="#57A9FF" fill-rule="nonzero" x="573" y="34" width="19.1" height="77.5"></rect>
            <polygon id="Shape" fill="#3987D9" fill-rule="nonzero" points="646 101.4 647.8 94.6 641 96.1"></polygon>
            <polygon id="Shape" fill="#3987D9" fill-rule="nonzero" points="871.6 100.2 873.4 107 878.6 102.3"></polygon>
            <path d="M802.4,96.1 C802.1,96.6 801.7,97.1 801.3,97.6 C800,98.9 798.2,99.6 796.3,99.7 C792.5,99.7 789.3,96.6 789.3,92.7 C789.3,88.9 792.4,85.7 796.3,85.7 C797.7,85.6 799,86 800.1,86.8 L799.5,87.6 C798.6,87 797.4,86.6 796.2,86.7 C792.9,86.7 790.2,89.4 790.2,92.7 C790.2,96 792.9,98.7 796.2,98.7 C797.8,98.7 799.3,98.1 800.4,96.9 C801.5,95.8 802.2,94.3 802.2,92.7 C802.2,91.8 802,90.9 801.6,90.1 L802.5,89.7 C802.9,90.6 803.1,91.6 803.1,92.6 C803.3,93.9 803,95.1 802.4,96.1 Z" id="Shape" fill="#3987D9" fill-rule="nonzero"></path>
            <circle id="Oval" fill="#DCE9F6" fill-rule="nonzero" cx="796.4" cy="92.7" r="6.1"></circle>
            <circle id="Oval" fill="#57A9FF" fill-rule="nonzero" cx="841.4" cy="43.6" r="6.1"></circle>
            <polygon id="Shape" fill="#3987D9" fill-rule="nonzero" points="764 99.3 750 99.3 750 93.7 751 93.7 751 98.3 763 98.3 763 86.9 751 86.9 751 94.3 750 94.3 750 85.9 751 85.9 751 85.9 764 85.9"></polygon>
            <rect id="Rectangle-path" fill="#57A9FF" fill-rule="nonzero" x="751" y="86.9" width="12" height="11.4"></rect>
            <rect id="Rectangle-path" fill="#DCE9F6" fill-rule="nonzero" x="772" y="23.3" width="46.1" height="26.8"></rect>
            <path d="M794.5,39.3 C794.2,39.3 793.9,39.3 793.7,39.2 L793.9,38.2 C794.2,38.3 794.8,38.3 795.3,38.1 C796,37.9 796.5,37.4 796.8,36.7 C797.1,36.1 797.1,35.5 796.8,34.9 C796.5,34.2 796.1,33.7 795.4,33.4 C794.8,33.1 794.2,33.1 793.6,33.4 C792.9,33.7 792.4,34.1 792.1,34.8 C791.8,35.4 791.8,36 792.1,36.6 C792.3,36.9 792.4,37.3 792.7,37.5 L792,38.2 C791.6,37.8 791.4,37.4 791.2,37 C790.8,36.1 790.9,35.2 791.2,34.4 C791.6,33.5 792.3,32.8 793.2,32.5 C794,32.2 794.9,32.2 795.7,32.6 C796.6,33 797.2,33.7 797.6,34.6 C797.9,35.4 797.9,36.3 797.5,37.1 C797.1,38 796.4,38.7 795.5,39 C795.2,39.2 794.8,39.3 794.5,39.3 Z" id="Shape" fill="#3987D9" fill-rule="nonzero"></path>
            <g id="Shape_1_2_" transform="translate(670.000000, 540.000000)" fill="#3987D9" fill-rule="nonzero">
                <path d="M186,49 L176,49 L176,50 L186,50 L186,49 Z M33,127.8 C33,122.9 33,46.2 33,16 L31,16 L31,128 L0,128 L0,130 L31,130 L114,130 L114,128 L33,127.8 Z M186,59 L176,59 L176,60 L186,60 L186,59 Z M161,2 C161,0.9 160.1,0 159,0 L33,0 C31.9,0 31,0.9 31,2 L31,11 L33,11 C33,6.6 33,4 33,4 C33,2.9 33.9,2 35,2 L157,2 C158.1,2 159,2.9 159,4 L159,128 L120,128 L120,130 L159,130 L192,130 L192,128 L161,128 L161,2 Z M186,54 L186,55 L192,55 L192,54 L186,54 Z" id="Shape"></path>
            </g>
            <rect id="Rectangle-path" fill="#3987D9" fill-rule="nonzero" x="756.1" y="595.5" width="9.3" height="1.5"></rect>
            <polygon id="Shape" fill="#3987D9" fill-rule="nonzero" points="798.2 625.2 735 625.2 735 620.6 744.1 603.1 745.4 603.8 736.5 621 736.5 623.7 796.6 623.7 796.6 620.9 790.7 605.4 792.1 604.9 798.2 620.8"></polygon>
            <rect id="Rectangle-path" fill="#3987D9" fill-rule="nonzero" x="735.7" y="620" width="23.7" height="1.5"></rect>
            <path d="M779.9,592.6 C777.6,592.6 775.7,594.5 775.7,596.8 C775.7,599.1 777.6,601 779.9,601 C782.2,601 784.1,599.1 784.1,596.8 C784.1,594.5 782.2,592.6 779.9,592.6 Z M779.9,599.8 C778.2,599.8 776.9,598.5 776.9,596.8 C776.9,595.1 778.2,593.8 779.9,593.8 C781.6,593.8 782.9,595.1 782.9,596.8 C782.9,598.5 781.5,599.8 779.9,599.8 Z" id="Shape" fill="#3987D9" fill-rule="nonzero"></path>
            <path d="M779.9,601.1 C777.5,601.1 775.6,599.2 775.6,596.8 C775.6,594.4 777.5,592.5 779.9,592.5 C782.3,592.5 784.2,594.4 784.2,596.8 C784.2,599.2 782.3,601.1 779.9,601.1 Z M779.9,592.7 C777.7,592.7 775.8,594.5 775.8,596.8 C775.8,599.1 777.6,600.9 779.9,600.9 C782.2,600.9 784,599.1 784,596.8 C784,594.5 782.1,592.7 779.9,592.7 Z M779.9,599.9 C778.2,599.9 776.8,598.5 776.8,596.8 C776.8,595.1 778.2,593.7 779.9,593.7 C781.6,593.7 783,595.1 783,596.8 C783,598.5 781.6,599.9 779.9,599.9 Z M779.9,593.9 C778.3,593.9 777,595.2 777,596.8 C777,598.4 778.3,599.7 779.9,599.7 C781.5,599.7 782.8,598.4 782.8,596.8 C782.8,595.2 781.5,593.9 779.9,593.9 Z" id="Shape" fill="#93A0B0" fill-rule="nonzero"></path>
            <path d="M787.9,588.8 C785.7,586.6 782.8,585.4 779.8,585.4 C776.7,585.4 773.8,586.6 771.7,588.8 C767.7,592.8 767.2,600.4 770.6,605 L779.8,618.3 L789,605 C792.4,600.4 791.9,592.8 787.9,588.8 Z M788,604.3 L779.8,616.2 L771.6,604.3 C768.5,600.1 768.9,593.3 772.6,589.7 C774.5,587.8 777.1,586.7 779.9,586.7 C782.7,586.7 785.2,587.8 787.2,589.7 C790.7,593.3 791.1,600.1 788,604.3 Z" id="Shape" fill="#3987D9" fill-rule="nonzero"></path>
            <path d="M779.8,618.5 L779.7,618.4 L770.5,605.1 C767,600.5 767.5,592.8 771.6,588.8 C773.8,586.6 776.7,585.4 779.8,585.4 C782.9,585.4 785.8,586.6 788,588.8 C792.1,592.9 792.6,600.5 789.1,605.2 L779.8,618.5 Z M779.8,585.5 C776.8,585.5 773.9,586.7 771.8,588.8 C767.8,592.8 767.3,600.3 770.7,604.8 L779.8,618 L788.9,604.9 C792.3,600.3 791.8,592.9 787.8,588.9 C785.7,586.7 782.8,585.5 779.8,585.5 Z M779.8,616.4 L779.7,616.3 L771.4,604.3 C768.2,600.1 768.7,593.2 772.4,589.5 C774.4,587.5 777,586.4 779.8,586.4 C782.6,586.4 785.2,587.5 787.2,589.5 C790.9,593.2 791.3,600.1 788.2,604.3 L779.8,616.4 Z M779.8,586.7 C777.1,586.7 774.5,587.8 772.6,589.7 C769,593.3 768.6,600 771.7,604.2 L779.8,616 L787.9,604.3 C791,600.2 790.6,593.4 787,589.8 C785.1,587.8 782.5,586.7 779.8,586.7 Z" id="Shape" fill="#3987D9" fill-rule="nonzero"></path>
            <path d="M752.8,590.3 C751.7,589.2 750.3,588.6 748.7,588.6 C747.2,588.6 745.7,589.2 744.6,590.3 C742.6,592.3 742.3,596.1 744.1,598.4 L748.7,605.1 L753.3,598.5 C755.1,596.1 754.9,592.3 752.8,590.3 Z M752.9,598.1 L748.8,604 L744.7,598 C743.1,595.9 743.4,592.5 745.2,590.7 C746.2,589.7 747.5,589.2 748.8,589.2 C750.1,589.2 751.4,589.8 752.4,590.7 C754.2,592.6 754.5,596 752.9,598.1 Z" id="Shape" fill="#3987D9" fill-rule="nonzero"></path>
            <path d="M748.8,605.8 L743.9,598.7 C742.1,596.3 742.3,592.2 744.5,590.1 C745.7,588.9 747.2,588.3 748.9,588.3 C750.5,588.3 752.1,588.9 753.3,590.1 C755.4,592.2 755.7,596.3 753.9,598.7 L748.8,605.8 Z M748.8,589.6 C747.5,589.6 746.3,590.1 745.4,591 C743.7,592.7 743.5,595.9 745,597.8 L748.8,603.3 L752.6,597.8 C754.1,595.9 753.8,592.7 752.2,591 C751.2,590.1 750,589.6 748.8,589.6 Z" id="Shape" fill="#3987D9" fill-rule="nonzero"></path>
            <rect id="Rectangle-path" fill="#3987D9" fill-rule="nonzero" x="763.7" y="620" width="33.7" height="1.5"></rect>
            <rect id="Rectangle-path" fill="#3987D9" fill-rule="nonzero" x="785.7" y="631" width="8.7" height="1.5"></rect>
            <rect id="Rectangle-path" fill="#3987D9" fill-rule="nonzero" x="749.7" y="582" width="8.7" height="1.5"></rect>
            <rect id="Rectangle-path_144_-Copy" fill="#3987D9" fill-rule="nonzero" x="275" y="1022" width="88" height="1"></rect>
            <path d="M270,1033 L270,1043 L280,1043 L280,1033 L270,1033 Z M279,1042 L271,1042 L271,1034 L279,1034 L279,1042 Z" id="Shape_257_-Copy" fill="#3987D9" fill-rule="nonzero"></path>
            <rect id="Rectangle-path_145_-Copy" fill="#3987D9" fill-rule="nonzero" x="319" y="1012" width="1" height="21"></rect>
            <rect id="Rectangle-path_146_-Copy" fill="#3987D9" fill-rule="nonzero" x="275" y="1023" width="1" height="10"></rect>
            <path d="M357,1033 L357,1043 L367,1043 L367,1033 L357,1033 Z M366,1042 L358,1042 L358,1034 L366,1034 L366,1042 Z" id="Shape_258_-Copy" fill="#3987D9" fill-rule="nonzero"></path>
            <path d="M320,1033 C317.2,1033 315,1035.2 315,1038 C315,1040.8 317.2,1043 320,1043 C322.8,1043 325,1040.8 325,1038 C325,1035.2 322.8,1033 320,1033 Z M320,1042 C317.8,1042 316,1040.2 316,1038 C316,1035.8 317.8,1034 320,1034 C322.2,1034 324,1035.8 324,1038 C324,1040.2 322.2,1042 320,1042 Z" id="Shape_259_-Copy" fill="#3987D9" fill-rule="nonzero"></path>
            <path d="M366,956 L272,956 L271,956 L271,957 L271,1011 L271,1012 L367,1012 L367,1011 L367,957 L367,956 L366,956 Z M366,1011 L272,1011 L272,957 L366,957 L366,1011 Z" id="Shape_260_-Copy" fill="#3987D9" fill-rule="nonzero"></path>
            <path d="M409,982 L399,982 L399,983 L409,983 L409,982 Z M409,992 L399,992 L399,993 L409,993 L409,992 Z M409,987 L409,988 L415,988 L415,987 L409,987 Z M223,1061 L254,1061 L254,1063 L223,1063 L223,1061 Z M382,1061 L415,1061 L415,1063 L382,1063 L382,1061 Z M382,933 L256,933 C254.9,933 254,933.9 254,935 L254,944 L256,944 L256,937 C256,935.9 256.9,935 258,935 L380,935 C381.1,935 382,935.9 382,937 L382,1061 L384,1061 L384,935 C384,933.9 383.1,933 382,933 Z M256,1060.9 L256,949 L254,949 L254,1063 L337,1063 L337,1061 L256,1060.9 C256,1061 256,1061 256,1060.9 Z M343,1063 L382,1063 L382,1061 L343,1061 L343,1063 Z" id="Shape_261_-Copy" fill="#3987D9" fill-rule="nonzero"></path>
            <path d="M290,998 L311.234946,998 M313.488164,998 L315.744931,998 M318.033639,998 L322,998" id="Line" stroke="#3987D9" stroke-linecap="round" stroke-linejoin="bevel"></path>
            <path d="M306.46582,972 L348,972 C349.104569,972 350,972.895431 350,974 L350,990 C350,991.104569 349.104569,992 348,992 L291,992 C289.895431,992 289,991.104569 289,990 L289,974 C289,972.895431 289.895431,972 291,972 L301.489258,972" id="Rectangle-path_147_" stroke="#3987D9" fill="#DCE9F6" fill-rule="nonzero" stroke-linecap="square" transform="translate(319.500000, 982.000000) scale(-1, 1) translate(-319.500000, -982.000000) "></path>
            <path d="M299,981 L326.234946,981 M325.427368,981 L330.744931,981 M333.033639,981 L337,981" id="Line" stroke="#3987D9" stroke-linecap="round" stroke-linejoin="bevel"></path>
            <path d="M343.144712,991.009572 L337.024305,990.136375 L336.628589,985.901246 C336.628589,985.312536 336.115973,984.766926 335.375488,984.672363 C334.431894,984.551942 333.616436,985.120201 333.616436,985.838024 L334.012152,993.681825 L333.259114,993.681825 L333.259114,992.428223 L332.653687,992.678223 C331.863797,993.79238 330.534668,992.025499 330.534668,992.678223 L331,994.801786 C331,995.606857 331.349169,996.387978 331.99011,997.016646 L334.012152,999 L343.801648,999 L344.973443,993.023258 C344.994496,992.915862 344.375426,993.128249 344.371826,993.023258 C344.343613,992.200413 344.212486,991.161917 343.144712,991.009572 Z" id="Shape" fill="#FFFFFF" fill-rule="nonzero"></path>
            <path d="M331.941406,992 C331.389122,992 330.5,991.947715 330.5,992.5 L330.5,994.5 C330.5,998.5 333.5,999.5 333.5,999.5 L342.5,999.5 L343.985,992.816 C344.112734,992.240523 343.98009,991.638006 343.622496,991.169374 C343.264901,990.700743 342.718782,990.413732 342.13,990.385 L336.5,990.111 L336.5,986 C336.5,985.171573 335.828427,984.5 335,984.5 C334.171573,984.5 333.5,985.171573 333.5,986 L333.5,994" id="Shape" stroke="#3987D9" stroke-linecap="round" stroke-linejoin="round"></path>
            <rect id="Rectangle-path_144_" fill="#3987D9" fill-rule="nonzero" x="52" y="1022" width="88" height="1"></rect>
            <path d="M47,1033 L47,1043 L57,1043 L57,1033 L47,1033 Z M56,1042 L48,1042 L48,1034 L56,1034 L56,1042 Z" id="Shape_257_" fill="#3A88D9" fill-rule="nonzero"></path>
            <rect id="Rectangle-path_145_" fill="#3987D9" fill-rule="nonzero" x="96" y="1012" width="1" height="21"></rect>
            <rect id="Rectangle-path_146_" fill="#3A88D9" fill-rule="nonzero" x="52" y="1023" width="1" height="10"></rect>
            <path d="M134,1033 L134,1043 L144,1043 L144,1033 L134,1033 Z M143,1042 L135,1042 L135,1034 L143,1034 L143,1042 Z" id="Shape_258_" fill="#3A88D9" fill-rule="nonzero"></path>
            <path d="M97,1033 C94.2,1033 92,1035.2 92,1038 C92,1040.8 94.2,1043 97,1043 C99.8,1043 102,1040.8 102,1038 C102,1035.2 99.8,1033 97,1033 Z M97,1042 C94.8,1042 93,1040.2 93,1038 C93,1035.8 94.8,1034 97,1034 C99.2,1034 101,1035.8 101,1038 C101,1040.2 99.2,1042 97,1042 Z" id="Shape_259_" fill="#3A88D9" fill-rule="nonzero"></path>
            <path d="M143,956 L49,956 L48,956 L48,957 L48,1011 L48,1012 L144,1012 L144,1011 L144,957 L144,956 L143,956 Z M143,1011 L49,1011 L49,957 L143,957 L143,1011 Z" id="Shape_260_" fill="#3A88D9" fill-rule="nonzero"></path>
            <path d="M186,982 L176,982 L176,983 L186,983 L186,982 Z M186,992 L176,992 L176,993 L186,993 L186,992 Z M186,987 L186,988 L192,988 L192,987 L186,987 Z M0,1061 L31,1061 L31,1063 L0,1063 L0,1061 Z M159,1061 L192,1061 L192,1063 L159,1063 L159,1061 Z M159,933 L33,933 C31.9,933 31,933.9 31,935 L31,944 L33,944 L33,937 C33,935.9 33.9,935 35,935 L157,935 C158.1,935 159,935.9 159,937 L159,1061 L161,1061 L161,935 C161,933.9 160.1,933 159,933 Z M33,1060.9 L33,949 L31,949 L31,1063 L114,1063 L114,1061 L33,1060.9 C33,1061 33,1061 33,1060.9 Z M120,1063 L159,1063 L159,1061 L120,1061 L120,1063 Z" id="Shape_261_" fill="#3987D9" fill-rule="nonzero"></path>
            <rect id="Rectangle-path" stroke="#3A88D9" stroke-linecap="square" x="72.5" y="974.5" width="43" height="22"></rect>
            <rect id="Rectangle-4" fill="#DCE9F6" fill-rule="nonzero" x="73" y="975" width="42" height="21"></rect>
            <path d="M93.9754454,979 L104.418294,979 C104.428266,981.362822 105.600309,982.572865 107.934423,982.63013 C107.934423,982.63013 107.948097,984.380035 107.975445,987.879846 C105.78744,988.579415 104.601723,989.9228 104.418294,991.91 L104.886481,991.91 L93.5091394,991.766505 L83.0889648,991.91 L83.5571512,991.91 C83.373722,989.9228 82.188005,988.579415 80,987.879846 C80.0273482,984.380035 80.0410223,982.63013 80.0410223,982.63013 C82.375136,982.572865 83.547179,981.362822 83.5571512,979 L93.9754454,979 Z" id="Combined-Shape" fill="#FFFFFF" fill-rule="nonzero"></path>
            <circle id="Oval" stroke="#3987D9" fill="#DCE9F6" fill-rule="nonzero" stroke-linecap="square" cx="94.5" cy="985.5" r="3"></circle>
            <path d="M104.5,978.5 L83.5,978.5 C83.5,980.759 81.759,982.5 79.5,982.5 L79.5,988.5 C81.759,988.5 83.5,990.241 83.5,992.5 L104.5,992.5 C104.5,990.241 106.241,988.5 108.5,988.5 L108.5,982.5 C106.241,982.5 104.5,980.759 104.5,978.5 Z" id="Shape" stroke="#3987D9" stroke-linecap="square"></path>
            <polyline id="Shape" stroke="#3987D9" stroke-linecap="square" points="80.5 971.5 80.5 969.5 109.5 969.5 109.5 971.5"></polyline>
            <path d="M107.5,994.5 L107.5,998.5 C107.5,1000.157 110.186,1001.5 113.5,1001.5 C116.814,1001.5 119.5,1000.157 119.5,998.5 L119.5,994.5" id="Shape" stroke="#3987D9"></path>
            <path d="M107.5,998.5 L107.5,1002.5 C107.5,1004.157 110.186,1005.5 113.5,1005.5 C116.814,1005.5 119.5,1004.157 119.5,1002.5 L119.5,998.5" id="Shape" stroke="#3987D9"></path>
            <ellipse id="Oval" stroke="#3987D9" stroke-linecap="square" cx="113.5" cy="994.5" rx="6" ry="3"></ellipse>
            <ellipse id="Oval-4" fill="#FFFFFF" fill-rule="nonzero" cx="113.5" cy="994.5" rx="5.5" ry="2.5"></ellipse>
            <g id="Group-10" transform="translate(446.000000, 933.000000)" fill="#3987D9" fill-rule="nonzero">
                <rect id="Rectangle-path_144_" x="52" y="89" width="88" height="1"></rect>
                <path d="M47,100 L47,110 L57,110 L57,100 L47,100 Z M56,109 L48,109 L48,101 L56,101 L56,109 Z" id="Shape_257_"></path>
                <rect id="Rectangle-path_145_" x="96" y="79" width="1" height="21"></rect>
                <rect id="Rectangle-path_146_" x="52" y="90" width="1" height="10"></rect>
                <path d="M134,100 L134,110 L144,110 L144,100 L134,100 Z M143,109 L135,109 L135,101 L143,101 L143,109 Z" id="Shape_258_"></path>
                <path d="M97,100 C94.2,100 92,102.2 92,105 C92,107.8 94.2,110 97,110 C99.8,110 102,107.8 102,105 C102,102.2 99.8,100 97,100 Z M97,109 C94.8,109 93,107.2 93,105 C93,102.8 94.8,101 97,101 C99.2,101 101,102.8 101,105 C101,107.2 99.2,109 97,109 Z" id="Shape_259_"></path>
                <path d="M143,23 L49,23 L48,23 L48,24 L48,78 L48,79 L144,79 L144,78 L144,24 L144,23 L143,23 Z M143,78 L49,78 L49,24 L143,24 L143,78 Z" id="Shape_260_"></path>
                <g id="code" transform="translate(80.999750, 38.717341)">
                    <path d="M7.00025,19.696659 L0.29325,12.989659 C-0.09775,12.598659 -0.09775,11.966659 0.29325,11.575659 L7.00025,4.86865902 L8.41425,6.28265902 L2.41425,12.282659 L8.41425,18.282659 L7.00025,19.696659 Z" id="Shape"></path>
                    <path d="M23.00025,19.696659 L21.58625,18.282659 L27.58625,12.282659 L21.58625,6.28265902 L23.00025,4.86865902 L29.70725,11.575659 C30.09825,11.966659 30.09825,12.598659 29.70725,12.989659 L23.00025,19.696659 Z" id="Shape"></path>
                    <rect id="Rectangle-path" transform="translate(14.999821, 12.281389) rotate(-70.019341) translate(-14.999821, -12.281389) " x="2.29542961" y="11.2813976" width="25.4087831" height="1.99998293"></rect>
                </g>
                <path d="M186,49 L176,49 L176,50 L186,50 L186,49 Z M186,59 L176,59 L176,60 L186,60 L186,59 Z M186,54 L186,55 L192,55 L192,54 L186,54 Z M0,128 L31,128 L31,130 L0,130 L0,128 Z M159,128 L192,128 L192,130 L159,130 L159,128 Z M159,0 L33,0 C31.9,0 31,0.9 31,2 L31,11 L33,11 L33,4 C33,2.9 33.9,2 35,2 L157,2 C158.1,2 159,2.9 159,4 L159,128 L161,128 L161,2 C161,0.9 160.1,0 159,0 Z M33,127.9 L33,16 L31,16 L31,130 L114,130 L114,128 L33,127.9 C33,128 33,128 33,127.9 Z M120,130 L159,130 L159,128 L120,128 L120,130 Z" id="Shape_261_"></path>
            </g>
            <g id="Group-10-Copy" transform="translate(666.000000, 933.000000)">
                <rect id="Rectangle-path_144_" fill="#3987D9" fill-rule="nonzero" x="52" y="89" width="88" height="1"></rect>
                <path d="M47,100 L47,110 L57,110 L57,100 L47,100 Z M56,109 L48,109 L48,101 L56,101 L56,109 Z" id="Shape_257_" fill="#3987D9" fill-rule="nonzero"></path>
                <rect id="Rectangle-path_145_" fill="#3987D9" fill-rule="nonzero" x="96" y="79" width="1" height="21"></rect>
                <rect id="Rectangle-path_146_" fill="#3987D9" fill-rule="nonzero" x="52" y="90" width="1" height="10"></rect>
                <path d="M134,100 L134,110 L144,110 L144,100 L134,100 Z M143,109 L135,109 L135,101 L143,101 L143,109 Z" id="Shape_258_" fill="#3987D9" fill-rule="nonzero"></path>
                <path d="M97,100 C94.2,100 92,102.2 92,105 C92,107.8 94.2,110 97,110 C99.8,110 102,107.8 102,105 C102,102.2 99.8,100 97,100 Z M97,109 C94.8,109 93,107.2 93,105 C93,102.8 94.8,101 97,101 C99.2,101 101,102.8 101,105 C101,107.2 99.2,109 97,109 Z" id="Shape_259_" fill="#3987D9" fill-rule="nonzero"></path>
                <path d="M143,23 L49,23 L48,23 L48,24 L48,78 L48,79 L144,79 L144,78 L144,24 L144,23 L143,23 Z M143,78 L49,78 L49,24 L143,24 L143,78 Z" id="Shape_260_" fill="#3987D9" fill-rule="nonzero"></path>
                <g id="Group-3" transform="translate(80.538720, 35.430976)">
                    <g id="Oval-3" transform="translate(0.000000, 0.000000)">
                        <g id="path-14-link" transform="translate(0.430977, 0.430977)" fill="#DCE9F6" fill-rule="nonzero">
                            <circle id="path-14" cx="15.0841751" cy="15.0841751" r="15.0841751"></circle>
                        </g>
                        <circle id="Oval" stroke="#3987D9" cx="15.5151515" cy="15.5151515" r="15.5151515"></circle>
                    </g>
                    <path d="M7.10836386,28.0413298 C9.5105157,29.6566881 12.4027512,30.5993266 15.5151517,30.5993266 C23.8459114,30.5993266 30.5993267,23.8459114 30.5993267,15.5151515 C30.5993267,8.92162132 26.3688414,3.31617395 20.474128,1.26506756 C24.5016602,3.97343395 27.1515153,8.5728864 27.1515153,13.7912458 C27.1515153,22.1220057 20.3981,28.8754209 12.0673402,28.8754209 C10.3301106,28.8754209 8.66147268,28.5817449 7.10836386,28.0413298 Z" id="Combined-Shape" fill="#FFFFFF" fill-rule="nonzero"></path>
                    <g id="Group-4" transform="translate(9.050506, 7.326600)" fill="#3987D9" fill-rule="nonzero">
                        <path d="M2.48699027,15.5151515 C3.73838398,15.5151515 4.40271338,14.3829289 4.5980791,13.7140466 C4.60119549,13.7034864 4.60409697,13.6927085 4.60678352,13.681713 C5.06199208,11.7716316 5.78714491,8.74424242 6.3243469,6.54217831 L8.24641027,6.54217831 C8.6078046,6.54217831 8.90085314,6.24540534 8.90085314,5.87917487 C8.90085314,5.5129444 8.6078046,5.21617143 8.24641027,5.21617143 L6.64963404,5.21617143 C6.82157307,4.52235847 6.94741094,4.02820861 6.99695087,3.85957275 L7.05197136,3.6707964 C7.2548594,2.96936271 7.72994842,1.32633349 8.46466536,1.32633349 C9.14597374,1.32633349 9.24752524,2.38931635 9.25214608,2.44070184 C9.28116079,2.80464609 9.5945197,3.07953668 9.95462447,3.04807396 C10.3150516,3.02020386 10.584781,2.70111304 10.5569483,2.33618898 C10.4958025,1.52806508 9.97923323,0 8.46445044,0 C6.74925122,0 6.10533957,2.22721255 5.79595679,3.29781614 L5.74330046,3.47842743 C5.68043526,3.6902837 5.51548126,4.34305359 5.30034255,5.21617143 L3.01054461,5.21617143 C2.64904281,5.21617143 2.35610169,5.5129444 2.35610169,5.87917487 C2.35610169,6.24540534 2.64904281,6.54217831 3.01054461,6.54217831 L4.97613003,6.54217831 C4.30417083,9.30327738 3.4357713,12.9452239 3.34023768,13.3461831 C3.30456033,13.4512403 3.03622799,14.1890357 2.48731266,14.1890357 C1.64910992,14.1890357 1.28621112,12.9971537 1.28330965,12.9882265 C1.18272532,12.6366932 0.820686209,12.4332197 0.472617148,12.535773 C0.125515243,12.6377819 -0.0745787957,13.0054277 0.0260055332,13.3571787 C0.255006821,14.1585529 1.03077421,15.5151515 2.48699027,15.5151515 Z" id="Shape"></path>
                        <path d="M11.4262554,13.9636364 C11.7746055,13.9636364 12.0673401,13.660004 12.0673401,13.1766221 C12.0673401,12.9520843 11.9941565,12.749464 11.8383743,12.5245688 L10.610947,10.7933043 L11.8019766,9.08443393 C11.9118491,8.91576242 11.9941565,8.73589389 11.9941565,8.49980155 C11.9941565,8.07216705 11.7100603,7.75757576 11.3435598,7.75757576 C11.0963466,7.75757576 10.9041668,7.94864143 10.7389699,8.19640737 L9.81388602,9.67990605 L8.90704963,8.19616914 C8.7236052,7.91540743 8.53152247,7.75757576 8.25674413,7.75757576 C7.90829688,7.75757576 7.6154653,8.0614464 7.6154653,8.54482824 C7.6154653,8.76936611 7.68884304,8.97198632 7.84423694,9.19652418 L8.98945396,10.8155794 L7.73426737,12.6367782 C7.61517411,12.8054497 7.54208754,12.9853182 7.54208754,13.2214106 C7.54208754,13.648926 7.82608662,13.9633981 8.19229595,13.9633981 C8.43970321,13.9633981 8.63198013,13.7723325 8.79688594,13.5248048 L9.78593263,11.9286202 L10.7752705,13.5248048 C10.9591031,13.8062812 11.1514771,13.9636364 11.4262554,13.9636364 Z" id="Shape"></path>
                    </g>
                </g>
                <path d="M186,49 L176,49 L176,50 L186,50 L186,49 Z M186,59 L176,59 L176,60 L186,60 L186,59 Z M186,54 L186,55 L192,55 L192,54 L186,54 Z M0,128 L31,128 L31,130 L0,130 L0,128 Z M159,128 L192,128 L192,130 L159,130 L159,128 Z M159,0 L33,0 C31.9,0 31,0.9 31,2 L31,11 L33,11 L33,4 C33,2.9 33.9,2 35,2 L157,2 C158.1,2 159,2.9 159,4 L159,128 L161,128 L161,2 C161,0.9 160.1,0 159,0 Z M33,127.9 L33,16 L31,16 L31,130 L114,130 L114,128 L33,127.9 C33,128 33,128 33,127.9 Z M120,130 L159,130 L159,128 L120,128 L120,130 Z" id="Shape_261_" fill="#3987D9" fill-rule="nonzero"></path>
            </g>
            <g id="blueprint" transform="translate(0.000000, 1093.000000)">
                <g id="Rectangle_1_copy_3_2_" transform="translate(52.000000, 88.999999)" fill="#3987D9" fill-rule="nonzero">
                    <rect id="Rectangle-path_130_" x="0" y="0" width="87.9999998" height="1"></rect>
                </g>
                <g id="Rectangle_2_24_" transform="translate(47.000000, 100.000000)" fill="#3987D9" fill-rule="nonzero">
                    <path d="M0,0 L0,10 L10,10 L10,0 L0,0 Z M9,9 L0.999999997,9 L0.999999997,1 L9,1 L9,9 Z" id="Shape_231_"></path>
                </g>
                <g id="Rectangle_1_copy_2_2_" transform="translate(95.999999, 79.000000)" fill="#3987D9" fill-rule="nonzero">
                    <rect id="Rectangle-path_131_" x="0" y="0" width="1" height="21"></rect>
                </g>
                <g id="Rectangle_1_copy_6" transform="translate(52.000000, 90.000000)" fill="#3987D9" fill-rule="nonzero">
                    <rect id="Rectangle-path_132_" x="0" y="0" width="1" height="10"></rect>
                </g>
                <g id="Rectangle_2_copy_22_" transform="translate(134.000000, 100.000000)" fill="#3987D9" fill-rule="nonzero">
                    <path d="M0,0 L0,10 L10,10 L10,0 L0,0 Z M9,9 L0.999999997,9 L0.999999997,1 L9,1 L9,9 Z" id="Shape_232_"></path>
                </g>
                <g id="Ellipse_1_8_" transform="translate(91.999999, 100.000000)" fill="#3987D9" fill-rule="nonzero">
                    <path d="M5,0 C2.19999999,0 0,2.20000001 0,5 C0,7.8 2.19999999,10 5,10 C7.79999997,10 10,7.8 10,5 C10,2.20000001 7.79999997,0 5,0 Z M5,9 C2.79999999,9 0.999999997,7.20000001 0.999999997,5 C0.999999997,2.80000001 2.79999999,1 5,1 C7.19999998,1 9,2.80000001 9,5 C9,7.20000001 7.19999998,9 5,9 Z" id="Shape_233_"></path>
                </g>
                <g id="Rectangle_1_copy_5_2_" transform="translate(48.000000, 24.000000)" fill="#3987D9" fill-rule="nonzero">
                    <path d="M95,0 L1,0 L0,0 L0,1 L0,55 L0,56 L96,56 L96,55 L96,1 L96,0 L95,0 Z M95,55 L0.999999997,55 L0.999999997,1 L95,1 L95,55 Z" id="Shape_234_"></path>
                </g>
                <g id="Blank_34_" fill="#3987D9" fill-rule="nonzero">
                    <g id="Blank_33_">
                        <path d="M186,49 L176,49 L176,50 L186,50 L186,49 Z M186,59 L176,59 L176,60 L186,60 L186,59 Z M186,54 L186,55 L192,55 L192,54 L186,54 Z M0,128 L31,128 L31,130 L0,130 L0,128 Z M159,128 L192,128 L192,130 L159,130 L159,128 Z M159,0 L32.9999999,0 C31.8999999,0 30.9999999,0.9 30.9999999,2 L30.9999999,11 L32.9999999,11 L32.9999999,4 C32.9999999,2.9 33.8999999,2 34.9999999,2 L157,2 C158.099999,2 159,2.9 159,4 L159,128 L161,128 L161,2 C161,0.9 160.099999,0 159,0 Z M32.9999999,127.9 L32.9999999,15.9999999 L30.9999999,15.9999999 L30.9999999,130 L114,130 L114,128 L32.9999999,127.9 C32.9999999,128 32.9999999,128 32.9999999,127.9 Z M120,130 L159,130 L159,128 L120,128 L120,130 Z" id="Shape_235_"></path>
                    </g>
                </g>
                <g id="Group-4" transform="translate(77.803090, 33.583333)" stroke="#3987D9" stroke-width="0.743999961">
                    <line x1="18.0988486" y1="5.41666668" x2="18.0988486" y2="30.4166666" id="Path-16"></line>
                    <polygon id="Rectangle" fill="#FFFFFF" fill-rule="nonzero" transform="translate(18.202029, 18.916666) rotate(45.000000) translate(-18.202029, -18.916666) " points="21.1651497 15.9535453 21.1186954 21.8333329 15.2389078 21.8797872 15.2853621 15.9999996"></polygon>
                    <rect id="Rectangle" fill="#FFFFFF" fill-rule="nonzero" x="5.07963593" y="-1.74094121e-16" width="25.2288585" height="6.83333334"></rect>
                    <rect id="Rectangle-Copy" fill="#DCE9F6" fill-rule="nonzero" x="-1.76866951e-16" y="30.0000001" width="35.3881303" height="6.83333334"></rect>
                </g>
            </g>
        </g>
    </g>
</svg>